<?xml version="1.0" encoding="utf-8"?>
<svg xmlns="http://www.w3.org/2000/svg" xmlns:xlink="http://www.w3.org/1999/xlink" width="600" height="400" viewBox="0 0 2400 1600">
<defs>
  <clipPath id="clip7400">
    <rect x="0" y="0" width="2400" height="1600"/>
  </clipPath>
</defs>
<polygon clip-path="url(#clip7400)" points="
0,1600 2400,1600 2400,0 0,0 
  " fill="#ffffff" fill-rule="evenodd" fill-opacity="1"/>
<defs>
  <clipPath id="clip7401">
    <rect x="480" y="0" width="1681" height="1600"/>
  </clipPath>
</defs>
<polygon clip-path="url(#clip7400)" points="
180.66,1487.47 2352.76,1487.47 2352.76,47.2441 180.66,47.2441 
  " fill="#ffffff" fill-rule="evenodd" fill-opacity="1"/>
<defs>
  <clipPath id="clip7402">
    <rect x="180" y="47" width="2173" height="1441"/>
  </clipPath>
</defs>
<polyline clip-path="url(#clip7402)" style="stroke:#000000; stroke-width:2; stroke-opacity:0.1; fill:none" points="
  242.135,1487.47 242.135,47.2441 
  "/>
<polyline clip-path="url(#clip7402)" style="stroke:#000000; stroke-width:2; stroke-opacity:0.1; fill:none" points="
  583.659,1487.47 583.659,47.2441 
  "/>
<polyline clip-path="url(#clip7402)" style="stroke:#000000; stroke-width:2; stroke-opacity:0.1; fill:none" points="
  925.184,1487.47 925.184,47.2441 
  "/>
<polyline clip-path="url(#clip7402)" style="stroke:#000000; stroke-width:2; stroke-opacity:0.1; fill:none" points="
  1266.71,1487.47 1266.71,47.2441 
  "/>
<polyline clip-path="url(#clip7402)" style="stroke:#000000; stroke-width:2; stroke-opacity:0.1; fill:none" points="
  1608.23,1487.47 1608.23,47.2441 
  "/>
<polyline clip-path="url(#clip7402)" style="stroke:#000000; stroke-width:2; stroke-opacity:0.1; fill:none" points="
  1949.76,1487.47 1949.76,47.2441 
  "/>
<polyline clip-path="url(#clip7402)" style="stroke:#000000; stroke-width:2; stroke-opacity:0.1; fill:none" points="
  2291.28,1487.47 2291.28,47.2441 
  "/>
<polyline clip-path="url(#clip7402)" style="stroke:#000000; stroke-width:2; stroke-opacity:0.1; fill:none" points="
  180.66,1446.71 2352.76,1446.71 
  "/>
<polyline clip-path="url(#clip7402)" style="stroke:#000000; stroke-width:2; stroke-opacity:0.1; fill:none" points="
  180.66,1107.01 2352.76,1107.01 
  "/>
<polyline clip-path="url(#clip7402)" style="stroke:#000000; stroke-width:2; stroke-opacity:0.1; fill:none" points="
  180.66,767.313 2352.76,767.313 
  "/>
<polyline clip-path="url(#clip7402)" style="stroke:#000000; stroke-width:2; stroke-opacity:0.1; fill:none" points="
  180.66,427.613 2352.76,427.613 
  "/>
<polyline clip-path="url(#clip7402)" style="stroke:#000000; stroke-width:2; stroke-opacity:0.1; fill:none" points="
  180.66,87.913 2352.76,87.913 
  "/>
<polyline clip-path="url(#clip7400)" style="stroke:#000000; stroke-width:4; stroke-opacity:1; fill:none" points="
  180.66,1487.47 2352.76,1487.47 
  "/>
<polyline clip-path="url(#clip7400)" style="stroke:#000000; stroke-width:4; stroke-opacity:1; fill:none" points="
  180.66,1487.47 180.66,47.2441 
  "/>
<polyline clip-path="url(#clip7400)" style="stroke:#000000; stroke-width:4; stroke-opacity:1; fill:none" points="
  242.135,1487.47 242.135,1465.87 
  "/>
<polyline clip-path="url(#clip7400)" style="stroke:#000000; stroke-width:4; stroke-opacity:1; fill:none" points="
  583.659,1487.47 583.659,1465.87 
  "/>
<polyline clip-path="url(#clip7400)" style="stroke:#000000; stroke-width:4; stroke-opacity:1; fill:none" points="
  925.184,1487.47 925.184,1465.87 
  "/>
<polyline clip-path="url(#clip7400)" style="stroke:#000000; stroke-width:4; stroke-opacity:1; fill:none" points="
  1266.71,1487.47 1266.71,1465.87 
  "/>
<polyline clip-path="url(#clip7400)" style="stroke:#000000; stroke-width:4; stroke-opacity:1; fill:none" points="
  1608.23,1487.47 1608.23,1465.87 
  "/>
<polyline clip-path="url(#clip7400)" style="stroke:#000000; stroke-width:4; stroke-opacity:1; fill:none" points="
  1949.76,1487.47 1949.76,1465.87 
  "/>
<polyline clip-path="url(#clip7400)" style="stroke:#000000; stroke-width:4; stroke-opacity:1; fill:none" points="
  2291.28,1487.47 2291.28,1465.87 
  "/>
<polyline clip-path="url(#clip7400)" style="stroke:#000000; stroke-width:4; stroke-opacity:1; fill:none" points="
  180.66,1446.71 213.242,1446.71 
  "/>
<polyline clip-path="url(#clip7400)" style="stroke:#000000; stroke-width:4; stroke-opacity:1; fill:none" points="
  180.66,1107.01 213.242,1107.01 
  "/>
<polyline clip-path="url(#clip7400)" style="stroke:#000000; stroke-width:4; stroke-opacity:1; fill:none" points="
  180.66,767.313 213.242,767.313 
  "/>
<polyline clip-path="url(#clip7400)" style="stroke:#000000; stroke-width:4; stroke-opacity:1; fill:none" points="
  180.66,427.613 213.242,427.613 
  "/>
<polyline clip-path="url(#clip7400)" style="stroke:#000000; stroke-width:4; stroke-opacity:1; fill:none" points="
  180.66,87.913 213.242,87.913 
  "/>
<g clip-path="url(#clip7400)">
<text style="fill:#000000; fill-opacity:1; font-family:Arial,Helvetica Neue,Helvetica,sans-serif; font-size:48px; text-anchor:middle;" transform="rotate(0, 242.135, 1541.47)" x="242.135" y="1541.47">-15</text>
</g>
<g clip-path="url(#clip7400)">
<text style="fill:#000000; fill-opacity:1; font-family:Arial,Helvetica Neue,Helvetica,sans-serif; font-size:48px; text-anchor:middle;" transform="rotate(0, 583.659, 1541.47)" x="583.659" y="1541.47">-10</text>
</g>
<g clip-path="url(#clip7400)">
<text style="fill:#000000; fill-opacity:1; font-family:Arial,Helvetica Neue,Helvetica,sans-serif; font-size:48px; text-anchor:middle;" transform="rotate(0, 925.184, 1541.47)" x="925.184" y="1541.47">-5</text>
</g>
<g clip-path="url(#clip7400)">
<text style="fill:#000000; fill-opacity:1; font-family:Arial,Helvetica Neue,Helvetica,sans-serif; font-size:48px; text-anchor:middle;" transform="rotate(0, 1266.71, 1541.47)" x="1266.71" y="1541.47">0</text>
</g>
<g clip-path="url(#clip7400)">
<text style="fill:#000000; fill-opacity:1; font-family:Arial,Helvetica Neue,Helvetica,sans-serif; font-size:48px; text-anchor:middle;" transform="rotate(0, 1608.23, 1541.47)" x="1608.23" y="1541.47">5</text>
</g>
<g clip-path="url(#clip7400)">
<text style="fill:#000000; fill-opacity:1; font-family:Arial,Helvetica Neue,Helvetica,sans-serif; font-size:48px; text-anchor:middle;" transform="rotate(0, 1949.76, 1541.47)" x="1949.76" y="1541.47">10</text>
</g>
<g clip-path="url(#clip7400)">
<text style="fill:#000000; fill-opacity:1; font-family:Arial,Helvetica Neue,Helvetica,sans-serif; font-size:48px; text-anchor:middle;" transform="rotate(0, 2291.28, 1541.47)" x="2291.28" y="1541.47">15</text>
</g>
<g clip-path="url(#clip7400)">
<text style="fill:#000000; fill-opacity:1; font-family:Arial,Helvetica Neue,Helvetica,sans-serif; font-size:48px; text-anchor:end;" transform="rotate(0, 156.66, 1464.21)" x="156.66" y="1464.21">0.00</text>
</g>
<g clip-path="url(#clip7400)">
<text style="fill:#000000; fill-opacity:1; font-family:Arial,Helvetica Neue,Helvetica,sans-serif; font-size:48px; text-anchor:end;" transform="rotate(0, 156.66, 1124.51)" x="156.66" y="1124.51">0.25</text>
</g>
<g clip-path="url(#clip7400)">
<text style="fill:#000000; fill-opacity:1; font-family:Arial,Helvetica Neue,Helvetica,sans-serif; font-size:48px; text-anchor:end;" transform="rotate(0, 156.66, 784.813)" x="156.66" y="784.813">0.50</text>
</g>
<g clip-path="url(#clip7400)">
<text style="fill:#000000; fill-opacity:1; font-family:Arial,Helvetica Neue,Helvetica,sans-serif; font-size:48px; text-anchor:end;" transform="rotate(0, 156.66, 445.113)" x="156.66" y="445.113">0.75</text>
</g>
<g clip-path="url(#clip7400)">
<text style="fill:#000000; fill-opacity:1; font-family:Arial,Helvetica Neue,Helvetica,sans-serif; font-size:48px; text-anchor:end;" transform="rotate(0, 156.66, 105.413)" x="156.66" y="105.413">1.00</text>
</g>
<polyline clip-path="url(#clip7402)" style="stroke:#009af9; stroke-width:8; stroke-opacity:1; fill:none" points="
  242.135,1446.71 244.186,1446.71 246.237,1446.71 248.288,1446.71 250.34,1446.71 252.391,1446.71 254.442,1446.71 256.493,1446.71 258.544,1446.71 260.596,1446.71 
  262.647,1446.71 264.698,1446.71 266.749,1446.71 268.8,1446.71 270.851,1446.71 272.903,1446.71 274.954,1446.71 277.005,1446.71 279.056,1446.71 281.107,1446.71 
  283.159,1446.71 285.21,1446.71 287.261,1446.71 289.312,1446.71 291.363,1446.71 293.415,1446.71 295.466,1446.71 297.517,1446.71 299.568,1446.71 301.619,1446.71 
  303.671,1446.71 305.722,1446.71 307.773,1446.71 309.824,1446.71 311.875,1446.71 313.927,1446.71 315.978,1446.71 318.029,1446.71 320.08,1446.71 322.131,1446.71 
  324.183,1446.71 326.234,1446.71 328.285,1446.71 330.336,1446.71 332.387,1446.71 334.439,1446.71 336.49,1446.71 338.541,1446.71 340.592,1446.71 342.643,1446.71 
  344.695,1446.71 346.746,1446.71 348.797,1446.71 350.848,1446.71 352.899,1446.71 354.951,1446.71 357.002,1446.71 359.053,1446.71 361.104,1446.71 363.155,1446.71 
  365.207,1446.71 367.258,1446.71 369.309,1446.71 371.36,1446.71 373.411,1446.71 375.463,1446.71 377.514,1446.71 379.565,1446.71 381.616,1446.71 383.667,1446.71 
  385.719,1446.71 387.77,1446.71 389.821,1446.71 391.872,1446.71 393.923,1446.71 395.975,1446.71 398.026,1446.71 400.077,1446.71 402.128,1446.71 404.179,1446.71 
  406.231,1446.71 408.282,1446.71 410.333,1446.71 412.384,1446.71 414.435,1446.71 416.487,1446.71 418.538,1446.71 420.589,1446.71 422.64,1446.71 424.691,1446.71 
  426.743,1446.71 428.794,1446.71 430.845,1446.71 432.896,1446.71 434.947,1446.71 436.999,1446.71 439.05,1446.71 441.101,1446.71 443.152,1446.71 445.203,1446.71 
  447.255,1446.71 449.306,1446.71 451.357,1446.71 453.408,1446.71 455.459,1446.71 457.511,1446.71 459.562,1446.71 461.613,1446.71 463.664,1446.71 465.715,1446.71 
  467.766,1446.71 469.818,1446.71 471.869,1446.71 473.92,1446.71 475.971,1446.71 478.022,1446.71 480.074,1446.71 482.125,1446.71 484.176,1446.71 486.227,1446.71 
  488.278,1446.71 490.33,1446.71 492.381,1446.71 494.432,1446.71 496.483,1446.71 498.534,1446.71 500.586,1446.71 502.637,1446.71 504.688,1446.71 506.739,1446.71 
  508.79,1446.71 510.842,1446.71 512.893,1446.71 514.944,1446.71 516.995,1446.71 519.046,1446.71 521.098,1446.71 523.149,1446.71 525.2,1446.71 527.251,1446.71 
  529.302,1446.71 531.354,1446.71 533.405,1446.71 535.456,1446.71 537.507,1446.71 539.558,1446.71 541.61,1446.71 543.661,1446.71 545.712,1446.71 547.763,1446.71 
  549.814,1446.71 551.866,1446.71 553.917,1446.71 555.968,1446.71 558.019,1446.71 560.07,1446.71 562.122,1446.71 564.173,1446.71 566.224,1446.71 568.275,1446.71 
  570.326,1446.71 572.378,1446.71 574.429,1446.71 576.48,1446.71 578.531,1446.71 580.582,1446.71 582.634,1446.71 584.685,1446.71 586.736,1446.71 588.787,1446.71 
  590.838,1446.71 592.89,1446.71 594.941,1446.71 596.992,1446.71 599.043,1446.71 601.094,1446.71 603.146,1446.71 605.197,1446.71 607.248,1446.71 609.299,1446.71 
  611.35,1446.71 613.402,1446.71 615.453,1446.71 617.504,1446.71 619.555,1446.71 621.606,1446.71 623.658,1446.71 625.709,1446.71 627.76,1446.71 629.811,1446.71 
  631.862,1446.71 633.914,1446.71 635.965,1446.71 638.016,1446.71 640.067,1446.71 642.118,1446.71 644.17,1446.71 646.221,1446.71 648.272,1446.71 650.323,1446.71 
  652.374,1446.71 654.426,1446.71 656.477,1446.71 658.528,1446.71 660.579,1446.71 662.63,1446.71 664.682,1446.71 666.733,1446.71 668.784,1446.71 670.835,1446.71 
  672.886,1446.71 674.937,1446.71 676.989,1446.71 679.04,1446.71 681.091,1446.71 683.142,1446.71 685.193,1446.71 687.245,1446.71 689.296,1446.71 691.347,1446.71 
  693.398,1446.71 695.449,1446.71 697.501,1446.71 699.552,1446.71 701.603,1446.71 703.654,1446.71 705.705,1446.71 707.757,1446.71 709.808,1446.71 711.859,1446.71 
  713.91,1446.71 715.961,1446.71 718.013,1446.71 720.064,1446.71 722.115,1446.71 724.166,1446.71 726.217,1446.71 728.269,1446.71 730.32,1446.71 732.371,1446.71 
  734.422,1446.71 736.473,1446.71 738.525,1446.71 740.576,1446.71 742.627,1446.71 744.678,1446.71 746.729,1446.71 748.781,1446.71 750.832,1446.71 752.883,1446.71 
  754.934,1446.71 756.985,1446.71 759.037,1446.71 761.088,1446.71 763.139,1446.71 765.19,1446.7 767.241,1446.7 769.293,1446.7 771.344,1446.7 773.395,1446.7 
  775.446,1446.7 777.497,1446.7 779.549,1446.7 781.6,1446.7 783.651,1446.7 785.702,1446.7 787.753,1446.7 789.805,1446.7 791.856,1446.7 793.907,1446.7 
  795.958,1446.7 798.009,1446.7 800.061,1446.69 802.112,1446.69 804.163,1446.69 806.214,1446.69 808.265,1446.69 810.317,1446.69 812.368,1446.69 814.419,1446.69 
  816.47,1446.69 818.521,1446.68 820.573,1446.68 822.624,1446.68 824.675,1446.68 826.726,1446.68 828.777,1446.68 830.829,1446.67 832.88,1446.67 834.931,1446.67 
  836.982,1446.67 839.033,1446.66 841.085,1446.66 843.136,1446.66 845.187,1446.66 847.238,1446.65 849.289,1446.65 851.341,1446.65 853.392,1446.64 855.443,1446.64 
  857.494,1446.64 859.545,1446.63 861.597,1446.63 863.648,1446.62 865.699,1446.62 867.75,1446.62 869.801,1446.61 871.852,1446.61 873.904,1446.6 875.955,1446.6 
  878.006,1446.59 880.057,1446.58 882.108,1446.58 884.16,1446.57 886.211,1446.57 888.262,1446.56 890.313,1446.55 892.364,1446.55 894.416,1446.54 896.467,1446.53 
  898.518,1446.52 900.569,1446.52 902.62,1446.51 904.672,1446.5 906.723,1446.49 908.774,1446.48 910.825,1446.47 912.876,1446.46 914.928,1446.45 916.979,1446.44 
  919.03,1446.43 921.081,1446.42 923.132,1446.41 925.184,1446.4 927.235,1446.39 929.286,1446.38 931.337,1446.37 933.388,1446.36 935.44,1446.34 937.491,1446.33 
  939.542,1446.32 941.593,1446.31 943.644,1446.29 945.696,1446.28 947.747,1446.26 949.798,1446.25 951.849,1446.23 953.9,1446.21 955.952,1446.2 958.003,1446.18 
  960.054,1446.16 962.105,1446.14 964.156,1446.12 966.208,1446.1 968.259,1446.07 970.31,1446.05 972.361,1446.03 974.412,1446 976.464,1445.97 978.515,1445.94 
  980.566,1445.91 982.617,1445.88 984.668,1445.84 986.72,1445.81 988.771,1445.77 990.822,1445.72 992.873,1445.68 994.924,1445.63 996.976,1445.58 999.027,1445.53 
  1001.08,1445.47 1003.13,1445.4 1005.18,1445.34 1007.23,1445.26 1009.28,1445.19 1011.33,1445.1 1013.39,1445.01 1015.44,1444.92 1017.49,1444.81 1019.54,1444.7 
  1021.59,1444.58 1023.64,1444.45 1025.69,1444.3 1027.74,1444.15 1029.79,1443.99 1031.85,1443.81 1033.9,1443.62 1035.95,1443.41 1038,1443.19 1040.05,1442.95 
  1042.1,1442.68 1044.15,1442.4 1046.2,1442.1 1048.26,1441.77 1050.31,1441.42 1052.36,1441.05 1054.41,1440.64 1056.46,1440.2 1058.51,1439.73 1060.56,1439.23 
  1062.61,1438.69 1064.67,1438.11 1066.72,1437.49 1068.77,1436.83 1070.82,1436.13 1072.87,1435.38 1074.92,1434.58 1076.97,1433.73 1079.02,1432.83 1081.07,1431.87 
  1083.13,1430.86 1085.18,1429.79 1087.23,1428.66 1089.28,1427.47 1091.33,1426.21 1093.38,1424.89 1095.43,1423.5 1097.48,1422.04 1099.54,1420.5 1101.59,1418.9 
  1103.64,1417.22 1105.69,1415.47 1107.74,1413.63 1109.79,1411.72 1111.84,1409.72 1113.89,1407.65 1115.95,1405.48 1118,1403.22 1120.05,1400.87 1122.1,1398.43 
  1124.15,1395.89 1126.2,1393.24 1128.25,1390.49 1130.3,1387.62 1132.35,1384.63 1134.41,1381.51 1136.46,1378.26 1138.51,1374.87 1140.56,1371.32 1142.61,1367.61 
  1144.66,1363.72 1146.71,1359.65 1148.76,1355.37 1150.82,1350.88 1152.87,1346.17 1154.92,1341.21 1156.97,1335.99 1159.02,1330.5 1161.07,1324.74 1163.12,1318.69 
  1165.17,1312.34 1167.23,1305.7 1169.28,1298.77 1171.33,1291.56 1173.38,1284.09 1175.43,1276.38 1177.48,1268.45 1179.53,1260.36 1181.58,1252.14 1183.63,1243.83 
  1185.69,1235.49 1187.74,1227.16 1189.79,1218.91 1191.84,1210.77 1193.89,1202.78 1195.94,1194.99 1197.99,1187.42 1200.04,1180.09 1202.1,1173.01 1204.15,1166.2 
  1206.2,1159.65 1208.25,1153.35 1210.3,1147.3 1212.35,1141.48 1214.4,1135.88 1216.45,1130.49 1218.5,1125.29 1220.56,1120.26 1222.61,1115.39 1224.66,1110.69 
  1226.71,1106.13 1228.76,1101.71 1230.81,1097.44 1232.86,1093.3 1234.91,1089.31 1236.97,1085.45 1239.02,1081.74 1241.07,1078.17 1243.12,1074.76 1245.17,1071.51 
  1247.22,1068.43 1249.27,1065.53 1251.32,1062.83 1253.38,1060.33 1255.43,1058.06 1257.48,1056.04 1259.53,1054.29 1261.58,1052.83 1263.63,1051.69 1265.68,1050.89 
  1267.73,1050.48 1269.78,1050.46 1271.84,1050.89 1273.89,1051.77 1275.94,1053.14 1277.99,1055.03 1280.04,1057.44 1282.09,1060.4 1284.14,1063.92 1286.19,1067.99 
  1288.25,1072.61 1290.3,1077.78 1292.35,1083.47 1294.4,1089.64 1296.45,1096.27 1298.5,1103.31 1300.55,1110.71 1302.6,1118.4 1304.66,1126.33 1306.71,1134.43 
  1308.76,1142.62 1310.81,1150.85 1312.86,1159.04 1314.91,1167.13 1316.96,1175.06 1319.01,1182.78 1321.06,1190.25 1323.12,1197.42 1325.17,1204.27 1327.22,1210.78 
  1329.27,1216.92 1331.32,1222.7 1333.37,1228.11 1335.42,1233.15 1337.47,1237.84 1339.53,1242.19 1341.58,1246.2 1343.63,1249.91 1345.68,1253.34 1347.73,1256.49 
  1349.78,1259.39 1351.83,1262.07 1353.88,1264.55 1355.94,1266.84 1357.99,1268.96 1360.04,1270.93 1362.09,1272.78 1364.14,1274.5 1366.19,1276.13 1368.24,1277.66 
  1370.29,1279.12 1372.34,1280.51 1374.4,1281.85 1376.45,1283.14 1378.5,1284.38 1380.55,1285.59 1382.6,1286.78 1384.65,1287.94 1386.7,1289.08 1388.75,1290.2 
  1390.81,1291.31 1392.86,1292.41 1394.91,1293.51 1396.96,1294.59 1399.01,1295.67 1401.06,1296.74 1403.11,1297.81 1405.16,1298.87 1407.22,1299.92 1409.27,1300.96 
  1411.32,1302 1413.37,1303.02 1415.42,1304.02 1417.47,1305.01 1419.52,1305.98 1421.57,1306.93 1423.62,1307.85 1425.68,1308.74 1427.73,1309.61 1429.78,1310.44 
  1431.83,1311.23 1433.88,1311.98 1435.93,1312.7 1437.98,1313.36 1440.03,1313.98 1442.09,1314.55 1444.14,1315.07 1446.19,1315.53 1448.24,1315.94 1450.29,1316.29 
  1452.34,1316.58 1454.39,1316.8 1456.44,1316.97 1458.5,1317.07 1460.55,1317.1 1462.6,1317.07 1464.65,1316.97 1466.7,1316.81 1468.75,1316.58 1470.8,1316.27 
  1472.85,1315.91 1474.9,1315.47 1476.96,1314.96 1479.01,1314.39 1481.06,1313.74 1483.11,1313.03 1485.16,1312.25 1487.21,1311.4 1489.26,1310.48 1491.31,1309.49 
  1493.37,1308.44 1495.42,1307.31 1497.47,1306.12 1499.52,1304.86 1501.57,1303.53 1503.62,1302.14 1505.67,1300.67 1507.72,1299.14 1509.78,1297.54 1511.83,1295.87 
  1513.88,1294.14 1515.93,1292.34 1517.98,1290.47 1520.03,1288.53 1522.08,1286.53 1524.13,1284.46 1526.18,1282.32 1528.24,1280.12 1530.29,1277.85 1532.34,1275.51 
  1534.39,1273.11 1536.44,1270.65 1538.49,1268.12 1540.54,1265.52 1542.59,1262.87 1544.65,1260.15 1546.7,1257.38 1548.75,1254.54 1550.8,1251.65 1552.85,1248.71 
  1554.9,1245.71 1556.95,1242.66 1559,1239.56 1561.06,1236.42 1563.11,1233.24 1565.16,1230.02 1567.21,1226.76 1569.26,1223.48 1571.31,1220.17 1573.36,1216.85 
  1575.41,1213.5 1577.46,1210.15 1579.52,1206.8 1581.57,1203.46 1583.62,1200.12 1585.67,1196.81 1587.72,1193.53 1589.77,1190.28 1591.82,1187.07 1593.87,1183.92 
  1595.93,1180.84 1597.98,1177.82 1600.03,1174.89 1602.08,1172.05 1604.13,1169.31 1606.18,1166.69 1608.23,1164.19 1610.28,1161.81 1612.33,1159.58 1614.39,1157.5 
  1616.44,1155.58 1618.49,1153.82 1620.54,1152.24 1622.59,1150.84 1624.64,1149.62 1626.69,1148.6 1628.74,1147.77 1630.8,1147.15 1632.85,1146.73 1634.9,1146.51 
  1636.95,1146.49 1639,1146.68 1641.05,1147.08 1643.1,1147.67 1645.15,1148.45 1647.21,1149.43 1649.26,1150.59 1651.31,1151.93 1653.36,1153.44 1655.41,1155.12 
  1657.46,1156.94 1659.51,1158.91 1661.56,1161.01 1663.61,1163.24 1665.67,1165.57 1667.72,1168.01 1669.77,1170.53 1671.82,1173.13 1673.87,1175.8 1675.92,1178.53 
  1677.97,1181.29 1680.02,1184.09 1682.08,1186.91 1684.13,1189.75 1686.18,1192.58 1688.23,1195.4 1690.28,1198.21 1692.33,1200.99 1694.38,1203.74 1696.43,1206.44 
  1698.49,1209.09 1700.54,1211.69 1702.59,1214.22 1704.64,1216.67 1706.69,1219.06 1708.74,1221.36 1710.79,1223.58 1712.84,1225.7 1714.89,1227.73 1716.95,1229.67 
  1719,1231.5 1721.05,1233.22 1723.1,1234.84 1725.15,1236.35 1727.2,1237.74 1729.25,1239.02 1731.3,1240.17 1733.36,1241.21 1735.41,1242.13 1737.46,1242.92 
  1739.51,1243.59 1741.56,1244.13 1743.61,1244.55 1745.66,1244.83 1747.71,1244.98 1749.77,1245 1751.82,1244.88 1753.87,1244.62 1755.92,1244.23 1757.97,1243.69 
  1760.02,1243.01 1762.07,1242.18 1764.12,1241.21 1766.17,1240.09 1768.23,1238.82 1770.28,1237.39 1772.33,1235.8 1774.38,1234.05 1776.43,1232.14 1778.48,1230.07 
  1780.53,1227.82 1782.58,1225.39 1784.64,1222.79 1786.69,1220.01 1788.74,1217.04 1790.79,1213.89 1792.84,1210.53 1794.89,1206.98 1796.94,1203.23 1798.99,1199.26 
  1801.05,1195.08 1803.1,1190.68 1805.15,1186.06 1807.2,1181.2 1809.25,1176.11 1811.3,1170.78 1813.35,1165.2 1815.4,1159.37 1817.45,1153.28 1819.51,1146.92 
  1821.56,1140.3 1823.61,1133.4 1825.66,1126.21 1827.71,1118.74 1829.76,1110.98 1831.81,1102.92 1833.86,1094.56 1835.92,1085.9 1837.97,1076.92 1840.02,1067.63 
  1842.07,1058.03 1844.12,1048.11 1846.17,1037.87 1848.22,1027.31 1850.27,1016.43 1852.33,1005.23 1854.38,993.718 1856.43,981.887 1858.48,969.745 1860.53,957.296 
  1862.58,944.546 1864.63,931.503 1866.68,918.174 1868.73,904.57 1870.79,890.7 1872.84,876.577 1874.89,862.214 1876.94,847.624 1878.99,832.824 1881.04,817.831 
  1883.09,802.662 1885.14,787.336 1887.2,771.873 1889.25,756.293 1891.3,740.619 1893.35,724.871 1895.4,709.073 1897.45,693.248 1899.5,677.419 1901.55,661.608 
  1903.61,645.841 1905.66,630.14 1907.71,614.527 1909.76,599.026 1911.81,583.657 1913.86,568.443 1915.91,553.404 1917.96,538.558 1920.01,523.925 1922.07,509.521 
  1924.12,495.363 1926.17,481.465 1928.22,467.84 1930.27,454.502 1932.32,441.46 1934.37,428.724 1936.42,416.301 1938.48,404.199 1940.53,392.423 1942.58,380.977 
  1944.63,369.863 1946.68,359.083 1948.73,348.638 1950.78,338.527 1952.83,328.749 1954.89,319.301 1956.94,310.179 1958.99,301.38 1961.04,292.899 1963.09,284.73 
  1965.14,276.868 1967.19,269.305 1969.24,262.036 1971.29,255.053 1973.35,248.348 1975.4,241.913 1977.45,235.742 1979.5,229.825 1981.55,224.155 1983.6,218.724 
  1985.65,213.523 1987.7,208.544 1989.76,203.779 1991.81,199.221 1993.86,194.861 1995.91,190.692 1997.96,186.706 2000.01,182.895 2002.06,179.254 2004.11,175.774 
  2006.16,172.448 2008.22,169.271 2010.27,166.236 2012.32,163.336 2014.37,160.565 2016.42,157.919 2018.47,155.391 2020.52,152.975 2022.57,150.668 2024.63,148.463 
  2026.68,146.357 2028.73,144.344 2030.78,142.42 2032.83,140.582 2034.88,138.824 2036.93,137.145 2038.98,135.538 2041.04,134.003 2043.09,132.534 2045.14,131.129 
  2047.19,129.785 2049.24,128.499 2051.29,127.268 2053.34,126.09 2055.39,124.961 2057.44,123.881 2059.5,122.847 2061.55,121.855 2063.6,120.906 2065.65,119.996 
  2067.7,119.123 2069.75,118.287 2071.8,117.484 2073.85,116.715 2075.91,115.976 2077.96,115.267 2080.01,114.587 2082.06,113.934 2084.11,113.307 2086.16,112.704 
  2088.21,112.125 2090.26,111.568 2092.32,111.034 2094.37,110.519 2096.42,110.024 2098.47,109.549 2100.52,109.09 2102.57,108.65 2104.62,108.225 2106.67,107.817 
  2108.72,107.423 2110.78,107.044 2112.83,106.679 2114.88,106.327 2116.93,105.987 2118.98,105.66 2121.03,105.344 2123.08,105.04 2125.13,104.746 2127.19,104.462 
  2129.24,104.188 2131.29,103.924 2133.34,103.668 2135.39,103.422 2137.44,103.183 2139.49,102.953 2141.54,102.73 2143.6,102.515 2145.65,102.307 2147.7,102.106 
  2149.75,101.911 2151.8,101.722 2153.85,101.54 2155.9,101.363 2157.95,101.193 2160,101.027 2162.06,100.867 2164.11,100.711 2166.16,100.561 2168.21,100.415 
  2170.26,100.274 2172.31,100.137 2174.36,100.004 2176.41,99.8749 2178.47,99.7501 2180.52,99.6288 2182.57,99.5111 2184.62,99.3971 2186.67,99.2861 2188.72,99.1788 
  2190.77,99.0744 2192.82,98.973 2194.88,98.8745 2196.93,98.7789 2198.98,98.6862 2201.03,98.5958 2203.08,98.5081 2205.13,98.4229 2207.18,98.3399 2209.23,98.2594 
  2211.28,98.1811 2213.34,98.105 2215.39,98.0309 2217.44,97.9588 2219.49,97.8887 2221.54,97.8205 2223.59,97.7544 2225.64,97.6897 2227.69,97.6267 2229.75,97.5654 
  2231.8,97.506 2233.85,97.4479 2235.9,97.3915 2237.95,97.3365 2240,97.2831 2242.05,97.2308 2244.1,97.18 2246.16,97.1303 2248.21,97.0822 2250.26,97.0352 
  2252.31,96.9893 2254.36,96.9446 2256.41,96.901 2258.46,96.8583 2260.51,96.8169 2262.56,96.7766 2264.62,96.7373 2266.67,96.6987 2268.72,96.6613 2270.77,96.6249 
  2272.82,96.5892 2274.87,96.5542 2276.92,96.5201 2278.97,96.4872 2281.03,96.4545 2283.08,96.423 2285.13,96.3923 2287.18,96.3622 2289.23,96.3328 2291.28,96.304 
  
  "/>
<polyline clip-path="url(#clip7402)" style="stroke:#e26f46; stroke-width:8; stroke-opacity:1; fill:none" points="
  242.135,1446.71 244.186,1446.71 246.237,1446.71 248.288,1446.71 250.34,1446.71 252.391,1446.71 254.442,1446.71 256.493,1446.71 258.544,1446.71 260.596,1446.71 
  262.647,1446.71 264.698,1446.71 266.749,1446.71 268.8,1446.71 270.851,1446.71 272.903,1446.7 274.954,1446.7 277.005,1446.7 279.056,1446.7 281.107,1446.7 
  283.159,1446.7 285.21,1446.7 287.261,1446.7 289.312,1446.7 291.363,1446.7 293.415,1446.7 295.466,1446.7 297.517,1446.7 299.568,1446.7 301.619,1446.7 
  303.671,1446.7 305.722,1446.7 307.773,1446.7 309.824,1446.7 311.875,1446.7 313.927,1446.7 315.978,1446.7 318.029,1446.7 320.08,1446.7 322.131,1446.7 
  324.183,1446.7 326.234,1446.7 328.285,1446.7 330.336,1446.7 332.387,1446.7 334.439,1446.7 336.49,1446.7 338.541,1446.7 340.592,1446.7 342.643,1446.69 
  344.695,1446.69 346.746,1446.69 348.797,1446.69 350.848,1446.69 352.899,1446.69 354.951,1446.69 357.002,1446.69 359.053,1446.69 361.104,1446.69 363.155,1446.69 
  365.207,1446.69 367.258,1446.69 369.309,1446.68 371.36,1446.68 373.411,1446.68 375.463,1446.68 377.514,1446.68 379.565,1446.68 381.616,1446.68 383.667,1446.67 
  385.719,1446.67 387.77,1446.67 389.821,1446.67 391.872,1446.67 393.923,1446.66 395.975,1446.66 398.026,1446.66 400.077,1446.66 402.128,1446.65 404.179,1446.65 
  406.231,1446.65 408.282,1446.64 410.333,1446.64 412.384,1446.63 414.435,1446.63 416.487,1446.63 418.538,1446.62 420.589,1446.61 422.64,1446.61 424.691,1446.6 
  426.743,1446.59 428.794,1446.59 430.845,1446.58 432.896,1446.57 434.947,1446.56 436.999,1446.55 439.05,1446.54 441.101,1446.53 443.152,1446.51 445.203,1446.5 
  447.255,1446.48 449.306,1446.47 451.357,1446.45 453.408,1446.43 455.459,1446.41 457.511,1446.39 459.562,1446.36 461.613,1446.33 463.664,1446.3 465.715,1446.27 
  467.766,1446.23 469.818,1446.2 471.869,1446.15 473.92,1446.11 475.971,1446.06 478.022,1446 480.074,1445.94 482.125,1445.87 484.176,1445.8 486.227,1445.72 
  488.278,1445.63 490.33,1445.53 492.381,1445.43 494.432,1445.31 496.483,1445.18 498.534,1445.04 500.586,1444.89 502.637,1444.72 504.688,1444.53 506.739,1444.33 
  508.79,1444.1 510.842,1443.85 512.893,1443.58 514.944,1443.28 516.995,1442.95 519.046,1442.59 521.098,1442.19 523.149,1441.76 525.2,1441.28 527.251,1440.75 
  529.302,1440.17 531.354,1439.53 533.405,1438.83 535.456,1438.06 537.507,1437.22 539.558,1436.29 541.61,1435.28 543.661,1434.17 545.712,1432.95 547.763,1431.62 
  549.814,1430.17 551.866,1428.58 553.917,1426.85 555.968,1424.97 558.019,1422.91 560.07,1420.67 562.122,1418.24 564.173,1415.61 566.224,1412.75 568.275,1409.66 
  570.326,1406.31 572.378,1402.7 574.429,1398.82 576.48,1394.63 578.531,1390.14 580.582,1385.33 582.634,1380.18 584.685,1374.69 586.736,1368.83 588.787,1362.6 
  590.838,1356 592.89,1349.01 594.941,1341.63 596.992,1333.85 599.043,1325.68 601.094,1317.12 603.146,1308.17 605.197,1298.84 607.248,1289.13 609.299,1279.06 
  611.35,1268.65 613.402,1257.91 615.453,1246.86 617.504,1235.53 619.555,1223.93 621.606,1212.1 623.658,1200.06 625.709,1187.85 627.76,1175.48 629.811,1163 
  631.862,1150.43 633.914,1137.81 635.965,1125.16 638.016,1112.52 640.067,1099.92 642.118,1087.37 644.17,1074.92 646.221,1062.59 648.272,1050.4 650.323,1038.36 
  652.374,1026.52 654.426,1014.87 656.477,1003.44 658.528,992.249 660.579,981.301 662.63,970.612 664.682,960.19 666.733,950.044 668.784,940.179 670.835,930.603 
  672.886,921.318 674.937,912.325 676.989,903.629 679.04,895.228 681.091,887.122 683.142,879.311 685.193,871.791 687.245,864.562 689.296,857.619 691.347,850.96 
  693.398,844.579 695.449,838.474 697.501,832.639 699.552,827.07 701.603,821.763 703.654,816.711 705.705,811.91 707.757,807.355 709.808,803.041 711.859,798.962 
  713.91,795.115 715.961,791.492 718.013,788.091 720.064,784.904 722.115,781.928 724.166,779.158 726.217,776.589 728.269,774.216 730.32,772.035 732.371,770.041 
  734.422,768.23 736.473,766.598 738.525,765.139 740.576,763.852 742.627,762.729 744.678,761.77 746.729,760.968 748.781,760.321 750.832,759.824 752.883,759.474 
  754.934,759.268 756.985,759.2 759.037,759.269 761.088,759.47 763.139,759.801 765.19,760.257 767.241,760.836 769.293,761.533 771.344,762.347 773.395,763.273 
  775.446,764.308 777.497,765.449 779.549,766.694 781.6,768.039 783.651,769.481 785.702,771.017 787.753,772.644 789.805,774.36 791.856,776.162 793.907,778.046 
  795.958,780.011 798.009,782.055 800.061,784.173 802.112,786.366 804.163,788.629 806.214,790.961 808.265,793.36 810.317,795.824 812.368,798.351 814.419,800.941 
  816.47,803.591 818.521,806.3 820.573,809.067 822.624,811.892 824.675,814.772 826.726,817.71 828.777,820.703 830.829,823.751 832.88,826.855 834.931,830.015 
  836.982,833.231 839.033,836.504 841.085,839.835 843.136,843.225 845.187,846.675 847.238,850.187 849.289,853.762 851.341,857.402 853.392,861.108 855.443,864.884 
  857.494,868.729 859.545,872.647 861.597,876.641 863.648,880.711 865.699,884.86 867.75,889.09 869.801,893.403 871.852,897.801 873.904,902.285 875.955,906.858 
  878.006,911.519 880.057,916.27 882.108,921.112 884.16,926.045 886.211,931.069 888.262,936.183 890.313,941.386 892.364,946.678 894.416,952.057 896.467,957.519 
  898.518,963.062 900.569,968.684 902.62,974.38 904.672,980.145 906.723,985.976 908.774,991.867 910.825,997.813 912.876,1003.81 914.928,1009.84 916.979,1015.92 
  919.03,1022.02 921.081,1028.14 923.132,1034.27 925.184,1040.41 927.235,1046.55 929.286,1052.68 931.337,1058.79 933.388,1064.88 935.44,1070.93 937.491,1076.94 
  939.542,1082.9 941.593,1088.81 943.644,1094.65 945.696,1100.42 947.747,1106.12 949.798,1111.73 951.849,1117.25 953.9,1122.68 955.952,1128 958.003,1133.22 
  960.054,1138.33 962.105,1143.32 964.156,1148.19 966.208,1152.94 968.259,1157.57 970.31,1162.06 972.361,1166.42 974.412,1170.65 976.464,1174.74 978.515,1178.7 
  980.566,1182.51 982.617,1186.19 984.668,1189.72 986.72,1193.12 988.771,1196.37 990.822,1199.48 992.873,1202.45 994.924,1205.27 996.976,1207.96 999.027,1210.51 
  1001.08,1212.92 1003.13,1215.2 1005.18,1217.34 1007.23,1219.35 1009.28,1221.23 1011.33,1222.99 1013.39,1224.61 1015.44,1226.12 1017.49,1227.5 1019.54,1228.77 
  1021.59,1229.93 1023.64,1230.98 1025.69,1231.93 1027.74,1232.77 1029.79,1233.52 1031.85,1234.18 1033.9,1234.75 1035.95,1235.24 1038,1235.65 1040.05,1235.99 
  1042.1,1236.26 1044.15,1236.48 1046.2,1236.64 1048.26,1236.75 1050.31,1236.82 1052.36,1236.85 1054.41,1236.85 1056.46,1236.82 1058.51,1236.77 1060.56,1236.71 
  1062.61,1236.63 1064.67,1236.55 1066.72,1236.47 1068.77,1236.4 1070.82,1236.33 1072.87,1236.28 1074.92,1236.24 1076.97,1236.22 1079.02,1236.22 1081.07,1236.25 
  1083.13,1236.3 1085.18,1236.38 1087.23,1236.49 1089.28,1236.64 1091.33,1236.81 1093.38,1237.01 1095.43,1237.25 1097.48,1237.51 1099.54,1237.8 1101.59,1238.12 
  1103.64,1238.46 1105.69,1238.82 1107.74,1239.19 1109.79,1239.58 1111.84,1239.98 1113.89,1240.39 1115.95,1240.79 1118,1241.18 1120.05,1241.55 1122.1,1241.9 
  1124.15,1242.22 1126.2,1242.5 1128.25,1242.72 1130.3,1242.88 1132.35,1242.97 1134.41,1242.96 1136.46,1242.86 1138.51,1242.64 1140.56,1242.3 1142.61,1241.81 
  1144.66,1241.16 1146.71,1240.33 1148.76,1239.32 1150.82,1238.1 1152.87,1236.67 1154.92,1235.01 1156.97,1233.11 1159.02,1230.98 1161.07,1228.6 1163.12,1225.98 
  1165.17,1223.13 1167.23,1220.07 1169.28,1216.82 1171.33,1213.41 1173.38,1209.89 1175.43,1206.3 1177.48,1202.71 1179.53,1199.18 1181.58,1195.79 1183.63,1192.61 
  1185.69,1189.72 1187.74,1187.22 1189.79,1185.16 1191.84,1183.63 1193.89,1182.69 1195.94,1182.4 1197.99,1182.8 1200.04,1183.9 1202.1,1185.74 1204.15,1188.31 
  1206.2,1191.58 1208.25,1195.54 1210.3,1200.13 1212.35,1205.29 1214.4,1210.96 1216.45,1217.06 1218.5,1223.51 1220.56,1230.23 1222.61,1237.13 1224.66,1244.12 
  1226.71,1251.12 1228.76,1258.06 1230.81,1264.88 1232.86,1271.5 1234.91,1277.89 1236.97,1284.01 1239.02,1289.8 1241.07,1295.26 1243.12,1300.37 1245.17,1305.1 
  1247.22,1309.46 1249.27,1313.44 1251.32,1317.04 1253.38,1320.26 1255.43,1323.1 1257.48,1325.58 1259.53,1327.69 1261.58,1329.44 1263.63,1330.83 1265.68,1331.86 
  1267.73,1332.54 1269.78,1332.87 1271.84,1332.83 1273.89,1332.44 1275.94,1331.69 1277.99,1330.56 1280.04,1329.07 1282.09,1327.2 1284.14,1324.95 1286.19,1322.31 
  1288.25,1319.28 1290.3,1315.87 1292.35,1312.08 1294.4,1307.91 1296.45,1303.39 1298.5,1298.52 1300.55,1293.35 1302.6,1287.89 1304.66,1282.2 1306.71,1276.33 
  1308.76,1270.33 1310.81,1264.27 1312.86,1258.23 1314.91,1252.26 1316.96,1246.46 1319.01,1240.9 1321.06,1235.66 1323.12,1230.79 1325.17,1226.37 1327.22,1222.45 
  1329.27,1219.06 1331.32,1216.26 1333.37,1214.04 1335.42,1212.43 1337.47,1211.41 1339.53,1210.97 1341.58,1211.1 1343.63,1211.74 1345.68,1212.87 1347.73,1214.44 
  1349.78,1216.39 1351.83,1218.67 1353.88,1221.22 1355.94,1224 1357.99,1226.94 1360.04,1230 1362.09,1233.12 1364.14,1236.26 1366.19,1239.37 1368.24,1242.43 
  1370.29,1245.39 1372.34,1248.23 1374.4,1250.91 1376.45,1253.43 1378.5,1255.75 1380.55,1257.88 1382.6,1259.78 1384.65,1261.47 1386.7,1262.93 1388.75,1264.15 
  1390.81,1265.15 1392.86,1265.91 1394.91,1266.45 1396.96,1266.76 1399.01,1266.85 1401.06,1266.72 1403.11,1266.4 1405.16,1265.88 1407.22,1265.17 1409.27,1264.28 
  1411.32,1263.23 1413.37,1262.03 1415.42,1260.68 1417.47,1259.21 1419.52,1257.62 1421.57,1255.93 1423.62,1254.15 1425.68,1252.3 1427.73,1250.39 1429.78,1248.44 
  1431.83,1246.45 1433.88,1244.44 1435.93,1242.43 1437.98,1240.43 1440.03,1238.44 1442.09,1236.49 1444.14,1234.58 1446.19,1232.72 1448.24,1230.92 1450.29,1229.19 
  1452.34,1227.54 1454.39,1225.96 1456.44,1224.48 1458.5,1223.09 1460.55,1221.79 1462.6,1220.58 1464.65,1219.47 1466.7,1218.47 1468.75,1217.55 1470.8,1216.73 
  1472.85,1216.01 1474.9,1215.37 1476.96,1214.82 1479.01,1214.35 1481.06,1213.95 1483.11,1213.63 1485.16,1213.37 1487.21,1213.16 1489.26,1213.01 1491.31,1212.91 
  1493.37,1212.85 1495.42,1212.81 1497.47,1212.8 1499.52,1212.81 1501.57,1212.83 1503.62,1212.86 1505.67,1212.88 1507.72,1212.89 1509.78,1212.89 1511.83,1212.86 
  1513.88,1212.8 1515.93,1212.71 1517.98,1212.57 1520.03,1212.38 1522.08,1212.14 1524.13,1211.85 1526.18,1211.48 1528.24,1211.05 1530.29,1210.53 1532.34,1209.94 
  1534.39,1209.26 1536.44,1208.49 1538.49,1207.62 1540.54,1206.65 1542.59,1205.57 1544.65,1204.39 1546.7,1203.09 1548.75,1201.67 1550.8,1200.13 1552.85,1198.46 
  1554.9,1196.66 1556.95,1194.73 1559,1192.65 1561.06,1190.44 1563.11,1188.08 1565.16,1185.57 1567.21,1182.91 1569.26,1180.09 1571.31,1177.11 1573.36,1173.98 
  1575.41,1170.67 1577.46,1167.21 1579.52,1163.57 1581.57,1159.76 1583.62,1155.79 1585.67,1151.63 1587.72,1147.31 1589.77,1142.81 1591.82,1138.13 1593.87,1133.28 
  1595.93,1128.26 1597.98,1123.06 1600.03,1117.7 1602.08,1112.16 1604.13,1106.46 1606.18,1100.59 1608.23,1094.57 1610.28,1088.39 1612.33,1082.06 1614.39,1075.59 
  1616.44,1068.98 1618.49,1062.24 1620.54,1055.37 1622.59,1048.39 1624.64,1041.3 1626.69,1034.11 1628.74,1026.82 1630.8,1019.46 1632.85,1012.03 1634.9,1004.53 
  1636.95,996.983 1639,989.395 1641.05,981.776 1643.1,974.137 1645.15,966.489 1647.21,958.842 1649.26,951.207 1651.31,943.594 1653.36,936.013 1655.41,928.473 
  1657.46,920.985 1659.51,913.558 1661.56,906.201 1663.61,898.922 1665.67,891.73 1667.72,884.633 1669.77,877.639 1671.82,870.754 1673.87,863.985 1675.92,857.339 
  1677.97,850.822 1680.02,844.44 1682.08,838.197 1684.13,832.099 1686.18,826.15 1688.23,820.355 1690.28,814.717 1692.33,809.241 1694.38,803.93 1696.43,798.786 
  1698.49,793.813 1700.54,789.014 1702.59,784.39 1704.64,779.944 1706.69,775.677 1708.74,771.593 1710.79,767.691 1712.84,763.975 1714.89,760.444 1716.95,757.1 
  1719,753.945 1721.05,750.979 1723.1,748.203 1725.15,745.617 1727.2,743.222 1729.25,741.019 1731.3,739.009 1733.36,737.191 1735.41,735.565 1737.46,734.134 
  1739.51,732.895 1741.56,731.85 1743.61,730.999 1745.66,730.342 1747.71,729.879 1749.77,729.609 1751.82,729.534 1753.87,729.654 1755.92,729.967 1757.97,730.475 
  1760.02,731.177 1762.07,732.074 1764.12,733.166 1766.17,734.452 1768.23,735.934 1770.28,737.61 1772.33,739.481 1774.38,741.548 1776.43,743.81 1778.48,746.267 
  1780.53,748.921 1782.58,751.771 1784.64,754.817 1786.69,758.06 1788.74,761.499 1790.79,765.136 1792.84,768.969 1794.89,773 1796.94,777.229 1798.99,781.656 
  1801.05,786.28 1803.1,791.103 1805.15,796.123 1807.2,801.34 1809.25,806.756 1811.3,812.368 1813.35,818.178 1815.4,824.183 1817.45,830.384 1819.51,836.78 
  1821.56,843.369 1823.61,850.151 1825.66,857.122 1827.71,864.283 1829.76,871.631 1831.81,879.163 1833.86,886.877 1835.92,894.769 1837.97,902.837 1840.02,911.076 
  1842.07,919.482 1844.12,928.05 1846.17,936.775 1848.22,945.652 1850.27,954.674 1852.33,963.835 1854.38,973.127 1856.43,982.543 1858.48,992.075 1860.53,1001.71 
  1862.58,1011.45 1864.63,1021.27 1866.68,1031.17 1868.73,1041.14 1870.79,1051.16 1872.84,1061.22 1874.89,1071.32 1876.94,1081.43 1878.99,1091.55 1881.04,1101.66 
  1883.09,1111.75 1885.14,1121.81 1887.2,1131.82 1889.25,1141.77 1891.3,1151.65 1893.35,1161.43 1895.4,1171.12 1897.45,1180.7 1899.5,1190.15 1901.55,1199.46 
  1903.61,1208.63 1905.66,1217.63 1907.71,1226.47 1909.76,1235.13 1911.81,1243.61 1913.86,1251.89 1915.91,1259.97 1917.96,1267.84 1920.01,1275.5 1922.07,1282.94 
  1924.12,1290.16 1926.17,1297.16 1928.22,1303.94 1930.27,1310.48 1932.32,1316.8 1934.37,1322.9 1936.42,1328.77 1938.48,1334.41 1940.53,1339.84 1942.58,1345.04 
  1944.63,1350.04 1946.68,1354.82 1948.73,1359.4 1950.78,1363.77 1952.83,1367.95 1954.89,1371.94 1956.94,1375.75 1958.99,1379.37 1961.04,1382.82 1963.09,1386.1 
  1965.14,1389.23 1967.19,1392.19 1969.24,1395.01 1971.29,1397.69 1973.35,1400.22 1975.4,1402.63 1977.45,1404.91 1979.5,1407.07 1981.55,1409.11 1983.6,1411.05 
  1985.65,1412.88 1987.7,1414.62 1989.76,1416.26 1991.81,1417.81 1993.86,1419.28 1995.91,1420.66 1997.96,1421.97 2000.01,1423.21 2002.06,1424.38 2004.11,1425.49 
  2006.16,1426.54 2008.22,1427.52 2010.27,1428.46 2012.32,1429.34 2014.37,1430.17 2016.42,1430.96 2018.47,1431.71 2020.52,1432.41 2022.57,1433.07 2024.63,1433.7 
  2026.68,1434.3 2028.73,1434.86 2030.78,1435.39 2032.83,1435.9 2034.88,1436.37 2036.93,1436.82 2038.98,1437.25 2041.04,1437.66 2043.09,1438.04 2045.14,1438.4 
  2047.19,1438.75 2049.24,1439.07 2051.29,1439.38 2053.34,1439.67 2055.39,1439.95 2057.44,1440.22 2059.5,1440.47 2061.55,1440.71 2063.6,1440.93 2065.65,1441.15 
  2067.7,1441.35 2069.75,1441.54 2071.8,1441.73 2073.85,1441.91 2075.91,1442.07 2077.96,1442.23 2080.01,1442.38 2082.06,1442.53 2084.11,1442.67 2086.16,1442.8 
  2088.21,1442.92 2090.26,1443.04 2092.32,1443.16 2094.37,1443.27 2096.42,1443.37 2098.47,1443.47 2100.52,1443.56 2102.57,1443.66 2104.62,1443.74 2106.67,1443.83 
  2108.72,1443.91 2110.78,1443.98 2112.83,1444.05 2114.88,1444.12 2116.93,1444.19 2118.98,1444.26 2121.03,1444.32 2123.08,1444.38 2125.13,1444.43 2127.19,1444.49 
  2129.24,1444.54 2131.29,1444.59 2133.34,1444.64 2135.39,1444.69 2137.44,1444.73 2139.49,1444.77 2141.54,1444.82 2143.6,1444.85 2145.65,1444.89 2147.7,1444.93 
  2149.75,1444.97 2151.8,1445 2153.85,1445.03 2155.9,1445.07 2157.95,1445.1 2160,1445.13 2162.06,1445.15 2164.11,1445.18 2166.16,1445.21 2168.21,1445.23 
  2170.26,1445.26 2172.31,1445.28 2174.36,1445.31 2176.41,1445.33 2178.47,1445.35 2180.52,1445.37 2182.57,1445.39 2184.62,1445.41 2186.67,1445.43 2188.72,1445.45 
  2190.77,1445.47 2192.82,1445.49 2194.88,1445.5 2196.93,1445.52 2198.98,1445.53 2201.03,1445.55 2203.08,1445.56 2205.13,1445.58 2207.18,1445.59 2209.23,1445.61 
  2211.28,1445.62 2213.34,1445.63 2215.39,1445.65 2217.44,1445.66 2219.49,1445.67 2221.54,1445.68 2223.59,1445.69 2225.64,1445.7 2227.69,1445.71 2229.75,1445.72 
  2231.8,1445.73 2233.85,1445.74 2235.9,1445.75 2237.95,1445.76 2240,1445.77 2242.05,1445.78 2244.1,1445.79 2246.16,1445.8 2248.21,1445.8 2250.26,1445.81 
  2252.31,1445.82 2254.36,1445.83 2256.41,1445.83 2258.46,1445.84 2260.51,1445.85 2262.56,1445.86 2264.62,1445.86 2266.67,1445.87 2268.72,1445.87 2270.77,1445.88 
  2272.82,1445.89 2274.87,1445.89 2276.92,1445.9 2278.97,1445.9 2281.03,1445.91 2283.08,1445.91 2285.13,1445.92 2287.18,1445.93 2289.23,1445.93 2291.28,1445.93 
  
  "/>
<polyline clip-path="url(#clip7402)" style="stroke:#3da44d; stroke-width:8; stroke-opacity:1; fill:none" points="
  242.135,1446.71 244.186,1446.71 246.237,1446.71 248.288,1446.71 250.34,1446.71 252.391,1446.71 254.442,1446.71 256.493,1446.71 258.544,1446.71 260.596,1446.71 
  262.647,1446.71 264.698,1446.71 266.749,1446.71 268.8,1446.71 270.851,1446.71 272.903,1446.71 274.954,1446.71 277.005,1446.71 279.056,1446.71 281.107,1446.71 
  283.159,1446.71 285.21,1446.71 287.261,1446.71 289.312,1446.71 291.363,1446.71 293.415,1446.71 295.466,1446.71 297.517,1446.71 299.568,1446.71 301.619,1446.71 
  303.671,1446.71 305.722,1446.71 307.773,1446.71 309.824,1446.71 311.875,1446.71 313.927,1446.71 315.978,1446.71 318.029,1446.71 320.08,1446.71 322.131,1446.71 
  324.183,1446.71 326.234,1446.71 328.285,1446.71 330.336,1446.71 332.387,1446.71 334.439,1446.71 336.49,1446.71 338.541,1446.71 340.592,1446.71 342.643,1446.71 
  344.695,1446.71 346.746,1446.71 348.797,1446.71 350.848,1446.71 352.899,1446.71 354.951,1446.71 357.002,1446.71 359.053,1446.71 361.104,1446.71 363.155,1446.71 
  365.207,1446.71 367.258,1446.71 369.309,1446.71 371.36,1446.71 373.411,1446.71 375.463,1446.71 377.514,1446.71 379.565,1446.71 381.616,1446.71 383.667,1446.71 
  385.719,1446.71 387.77,1446.71 389.821,1446.71 391.872,1446.71 393.923,1446.71 395.975,1446.71 398.026,1446.71 400.077,1446.71 402.128,1446.71 404.179,1446.71 
  406.231,1446.71 408.282,1446.71 410.333,1446.71 412.384,1446.71 414.435,1446.71 416.487,1446.71 418.538,1446.71 420.589,1446.71 422.64,1446.71 424.691,1446.71 
  426.743,1446.71 428.794,1446.71 430.845,1446.71 432.896,1446.71 434.947,1446.71 436.999,1446.71 439.05,1446.71 441.101,1446.71 443.152,1446.71 445.203,1446.71 
  447.255,1446.71 449.306,1446.71 451.357,1446.71 453.408,1446.71 455.459,1446.71 457.511,1446.71 459.562,1446.71 461.613,1446.71 463.664,1446.71 465.715,1446.71 
  467.766,1446.71 469.818,1446.71 471.869,1446.71 473.92,1446.71 475.971,1446.71 478.022,1446.71 480.074,1446.71 482.125,1446.71 484.176,1446.71 486.227,1446.71 
  488.278,1446.71 490.33,1446.71 492.381,1446.71 494.432,1446.71 496.483,1446.71 498.534,1446.71 500.586,1446.71 502.637,1446.71 504.688,1446.71 506.739,1446.71 
  508.79,1446.71 510.842,1446.71 512.893,1446.71 514.944,1446.71 516.995,1446.71 519.046,1446.71 521.098,1446.71 523.149,1446.71 525.2,1446.71 527.251,1446.71 
  529.302,1446.71 531.354,1446.71 533.405,1446.71 535.456,1446.71 537.507,1446.71 539.558,1446.71 541.61,1446.71 543.661,1446.71 545.712,1446.71 547.763,1446.71 
  549.814,1446.71 551.866,1446.71 553.917,1446.7 555.968,1446.7 558.019,1446.7 560.07,1446.7 562.122,1446.7 564.173,1446.7 566.224,1446.7 568.275,1446.7 
  570.326,1446.7 572.378,1446.7 574.429,1446.7 576.48,1446.69 578.531,1446.69 580.582,1446.69 582.634,1446.69 584.685,1446.69 586.736,1446.69 588.787,1446.69 
  590.838,1446.68 592.89,1446.68 594.941,1446.68 596.992,1446.68 599.043,1446.68 601.094,1446.68 603.146,1446.67 605.197,1446.67 607.248,1446.67 609.299,1446.67 
  611.35,1446.66 613.402,1446.66 615.453,1446.66 617.504,1446.66 619.555,1446.65 621.606,1446.65 623.658,1446.65 625.709,1446.64 627.76,1446.64 629.811,1446.64 
  631.862,1446.63 633.914,1446.63 635.965,1446.63 638.016,1446.62 640.067,1446.62 642.118,1446.62 644.17,1446.61 646.221,1446.61 648.272,1446.61 650.323,1446.6 
  652.374,1446.6 654.426,1446.59 656.477,1446.59 658.528,1446.58 660.579,1446.58 662.63,1446.57 664.682,1446.57 666.733,1446.56 668.784,1446.56 670.835,1446.55 
  672.886,1446.55 674.937,1446.54 676.989,1446.53 679.04,1446.53 681.091,1446.52 683.142,1446.51 685.193,1446.5 687.245,1446.5 689.296,1446.49 691.347,1446.48 
  693.398,1446.47 695.449,1446.46 697.501,1446.45 699.552,1446.44 701.603,1446.42 703.654,1446.41 705.705,1446.4 707.757,1446.38 709.808,1446.36 711.859,1446.35 
  713.91,1446.33 715.961,1446.31 718.013,1446.29 720.064,1446.27 722.115,1446.24 724.166,1446.22 726.217,1446.19 728.269,1446.16 730.32,1446.13 732.371,1446.09 
  734.422,1446.06 736.473,1446.02 738.525,1445.97 740.576,1445.93 742.627,1445.88 744.678,1445.82 746.729,1445.76 748.781,1445.7 750.832,1445.63 752.883,1445.56 
  754.934,1445.48 756.985,1445.39 759.037,1445.29 761.088,1445.19 763.139,1445.08 765.19,1444.96 767.241,1444.83 769.293,1444.69 771.344,1444.53 773.395,1444.36 
  775.446,1444.18 777.497,1443.98 779.549,1443.76 781.6,1443.53 783.651,1443.27 785.702,1442.99 787.753,1442.69 789.805,1442.36 791.856,1442 793.907,1441.6 
  795.958,1441.18 798.009,1440.72 800.061,1440.21 802.112,1439.66 804.163,1439.07 806.214,1438.42 808.265,1437.72 810.317,1436.95 812.368,1436.12 814.419,1435.22 
  816.47,1434.24 818.521,1433.18 820.573,1432.04 822.624,1430.79 824.675,1429.45 826.726,1427.99 828.777,1426.42 830.829,1424.72 832.88,1422.89 834.931,1420.91 
  836.982,1418.78 839.033,1416.49 841.085,1414.03 843.136,1411.38 845.187,1408.55 847.238,1405.5 849.289,1402.24 851.341,1398.76 853.392,1395.04 855.443,1391.07 
  857.494,1386.84 859.545,1382.34 861.597,1377.55 863.648,1372.47 865.699,1367.09 867.75,1361.4 869.801,1355.38 871.852,1349.03 873.904,1342.34 875.955,1335.31 
  878.006,1327.92 880.057,1320.17 882.108,1312.07 884.16,1303.59 886.211,1294.75 888.262,1285.55 890.313,1275.98 892.364,1266.05 894.416,1255.76 896.467,1245.13 
  898.518,1234.15 900.569,1222.83 902.62,1211.2 904.672,1199.26 906.723,1187.02 908.774,1174.51 910.825,1161.74 912.876,1148.72 914.928,1135.48 916.979,1122.04 
  919.03,1108.42 921.081,1094.65 923.132,1080.74 925.184,1066.73 927.235,1052.63 929.286,1038.48 931.337,1024.29 933.388,1010.1 935.44,995.921 937.491,981.788 
  939.542,967.722 941.593,953.748 943.644,939.888 945.696,926.167 947.747,912.604 949.798,899.222 951.849,886.041 953.9,873.08 955.952,860.357 958.003,847.89 
  960.054,835.695 962.105,823.787 964.156,812.179 966.208,800.886 968.259,789.918 970.31,779.287 972.361,769.003 974.412,759.075 976.464,749.512 978.515,740.319 
  980.566,731.504 982.617,723.072 984.668,715.028 986.72,707.376 988.771,700.119 990.822,693.26 992.873,686.8 994.924,680.742 996.976,675.086 999.027,669.832 
  1001.08,664.98 1003.13,660.528 1005.18,656.476 1007.23,652.82 1009.28,649.559 1011.33,646.689 1013.39,644.206 1015.44,642.107 1017.49,640.386 1019.54,639.036 
  1021.59,638.053 1023.64,637.429 1025.69,637.155 1027.74,637.225 1029.79,637.628 1031.85,638.354 1033.9,639.392 1035.95,640.731 1038,642.359 1040.05,644.26 
  1042.1,646.423 1044.15,648.831 1046.2,651.469 1048.26,654.32 1050.31,657.367 1052.36,660.593 1054.41,663.979 1056.46,667.506 1058.51,671.156 1060.56,674.91 
  1062.61,678.748 1064.67,682.65 1066.72,686.598 1068.77,690.574 1070.82,694.558 1072.87,698.533 1074.92,702.483 1076.97,706.391 1079.02,710.242 1081.07,714.022 
  1083.13,717.718 1085.18,721.32 1087.23,724.816 1089.28,728.199 1091.33,731.463 1093.38,734.601 1095.43,737.612 1097.48,740.493 1099.54,743.244 1101.59,745.869 
  1103.64,748.372 1105.69,750.76 1107.74,753.04 1109.79,755.225 1111.84,757.326 1113.89,759.36 1115.95,761.343 1118,763.296 1120.05,765.241 1122.1,767.203 
  1124.15,769.21 1126.2,771.29 1128.25,773.477 1130.3,775.806 1132.35,778.314 1134.41,781.04 1136.46,784.028 1138.51,787.322 1140.56,790.967 1142.61,795.013 
  1144.66,799.506 1146.71,804.497 1148.76,810.033 1150.82,816.163 1152.87,822.929 1154.92,830.371 1156.97,838.524 1159.02,847.413 1161.07,857.054 1163.12,867.45 
  1165.17,878.592 1167.23,890.453 1169.28,902.988 1171.33,916.133 1173.38,929.806 1175.43,943.905 1177.48,958.309 1179.53,972.886 1181.58,987.489 1183.63,1001.97 
  1185.69,1016.17 1187.74,1029.93 1189.79,1043.13 1191.84,1055.63 1193.89,1067.31 1195.94,1078.09 1197.99,1087.89 1200.04,1096.66 1202.1,1104.37 1204.15,1111.01 
  1206.2,1116.6 1208.25,1121.14 1210.3,1124.69 1212.35,1127.29 1214.4,1129 1216.45,1129.89 1218.5,1130.04 1220.56,1129.51 1222.61,1128.4 1224.66,1126.79 
  1226.71,1124.77 1228.76,1122.4 1230.81,1119.79 1232.86,1117 1234.91,1114.1 1236.97,1111.16 1239.02,1108.24 1241.07,1105.39 1243.12,1102.66 1245.17,1100.08 
  1247.22,1097.69 1249.27,1095.5 1251.32,1093.54 1253.38,1091.82 1255.43,1090.33 1257.48,1089.1 1259.53,1088.1 1261.58,1087.33 1263.63,1086.79 1265.68,1086.47 
  1267.73,1086.34 1269.78,1086.41 1271.84,1086.65 1273.89,1087.05 1275.94,1087.6 1277.99,1088.29 1280.04,1089.11 1282.09,1090.06 1284.14,1091.11 1286.19,1092.28 
  1288.25,1093.56 1290.3,1094.94 1292.35,1096.43 1294.4,1098.04 1296.45,1099.75 1298.5,1101.58 1300.55,1103.52 1302.6,1105.58 1304.66,1107.76 1306.71,1110.05 
  1308.76,1112.44 1310.81,1114.92 1312.86,1117.49 1314.91,1120.12 1316.96,1122.81 1319.01,1125.52 1321.06,1128.25 1323.12,1130.96 1325.17,1133.64 1327.22,1136.26 
  1329.27,1138.82 1331.32,1141.29 1333.37,1143.66 1335.42,1145.93 1337.47,1148.07 1339.53,1150.1 1341.58,1152 1343.63,1153.78 1345.68,1155.43 1347.73,1156.97 
  1349.78,1158.39 1351.83,1159.7 1353.88,1160.92 1355.94,1162.04 1357.99,1163.07 1360.04,1164.02 1362.09,1164.9 1364.14,1165.71 1366.19,1166.46 1368.24,1167.15 
  1370.29,1167.8 1372.34,1168.4 1374.4,1168.96 1376.45,1169.49 1378.5,1169.99 1380.55,1170.46 1382.6,1170.92 1384.65,1171.36 1386.7,1171.79 1388.75,1172.22 
  1390.81,1172.65 1392.86,1173.09 1394.91,1173.53 1396.96,1174 1399.01,1174.48 1401.06,1174.99 1403.11,1175.53 1405.16,1176.11 1407.22,1176.73 1409.27,1177.39 
  1411.32,1178.1 1413.37,1178.86 1415.42,1179.68 1417.47,1180.55 1419.52,1181.48 1421.57,1182.47 1423.62,1183.51 1425.68,1184.62 1427.73,1185.78 1429.78,1187.01 
  1431.83,1188.28 1433.88,1189.61 1435.93,1190.99 1437.98,1192.42 1440.03,1193.89 1442.09,1195.4 1444.14,1196.94 1446.19,1198.51 1448.24,1200.11 1450.29,1201.73 
  1452.34,1203.37 1454.39,1205.01 1456.44,1206.67 1458.5,1208.32 1460.55,1209.97 1462.6,1211.6 1464.65,1213.23 1466.7,1214.84 1468.75,1216.42 1470.8,1217.98 
  1472.85,1219.5 1474.9,1221 1476.96,1222.45 1479.01,1223.86 1481.06,1225.22 1483.11,1226.54 1485.16,1227.81 1487.21,1229.02 1489.26,1230.17 1491.31,1231.26 
  1493.37,1232.29 1495.42,1233.26 1497.47,1234.16 1499.52,1234.99 1501.57,1235.75 1503.62,1236.43 1505.67,1237.04 1507.72,1237.57 1509.78,1238.03 1511.83,1238.4 
  1513.88,1238.69 1515.93,1238.89 1517.98,1239.01 1520.03,1239.05 1522.08,1238.99 1524.13,1238.84 1526.18,1238.61 1528.24,1238.27 1530.29,1237.85 1532.34,1237.32 
  1534.39,1236.7 1536.44,1235.98 1538.49,1235.16 1540.54,1234.24 1542.59,1233.21 1544.65,1232.08 1546.7,1230.85 1548.75,1229.5 1550.8,1228.05 1552.85,1226.49 
  1554.9,1224.82 1556.95,1223.04 1559,1221.15 1561.06,1219.15 1563.11,1217.03 1565.16,1214.8 1567.21,1212.46 1569.26,1210 1571.31,1207.44 1573.36,1204.76 
  1575.41,1201.97 1577.46,1199.07 1579.52,1196.06 1581.57,1192.94 1583.62,1189.72 1585.67,1186.4 1587.72,1182.98 1589.77,1179.46 1591.82,1175.85 1593.87,1172.16 
  1595.93,1168.38 1597.98,1164.52 1600.03,1160.58 1602.08,1156.59 1604.13,1152.53 1606.18,1148.41 1608.23,1144.25 1610.28,1140.05 1612.33,1135.82 1614.39,1131.57 
  1616.44,1127.3 1618.49,1123.03 1620.54,1118.76 1622.59,1114.51 1624.64,1110.27 1626.69,1106.07 1628.74,1101.91 1630.8,1097.8 1632.85,1093.75 1634.9,1089.77 
  1636.95,1085.86 1639,1082.04 1641.05,1078.3 1643.1,1074.67 1645.15,1071.14 1647.21,1067.72 1649.26,1064.42 1651.31,1061.23 1653.36,1058.18 1655.41,1055.25 
  1657.46,1052.45 1659.51,1049.78 1661.56,1047.24 1663.61,1044.84 1665.67,1042.58 1667.72,1040.44 1669.77,1038.44 1671.82,1036.57 1673.87,1034.82 1675.92,1033.2 
  1677.97,1031.7 1680.02,1030.31 1682.08,1029.04 1684.13,1027.87 1686.18,1026.81 1688.23,1025.84 1690.28,1024.97 1692.33,1024.19 1694.38,1023.48 1696.43,1022.85 
  1698.49,1022.3 1700.54,1021.8 1702.59,1021.37 1704.64,1020.99 1706.69,1020.66 1708.74,1020.37 1710.79,1020.11 1712.84,1019.9 1714.89,1019.7 1716.95,1019.53 
  1719,1019.38 1721.05,1019.24 1723.1,1019.11 1725.15,1018.99 1727.2,1018.87 1729.25,1018.74 1731.3,1018.62 1733.36,1018.48 1735.41,1018.33 1737.46,1018.17 
  1739.51,1017.99 1741.56,1017.8 1743.61,1017.58 1745.66,1017.35 1747.71,1017.09 1749.77,1016.8 1751.82,1016.5 1753.87,1016.16 1755.92,1015.8 1757.97,1015.42 
  1760.02,1015.01 1762.07,1014.57 1764.12,1014.11 1766.17,1013.62 1768.23,1013.11 1770.28,1012.58 1772.33,1012.03 1774.38,1011.46 1776.43,1010.87 1778.48,1010.26 
  1780.53,1009.65 1782.58,1009.02 1784.64,1008.38 1786.69,1007.74 1788.74,1007.1 1790.79,1006.46 1792.84,1005.83 1794.89,1005.2 1796.94,1004.59 1798.99,1004 
  1801.05,1003.43 1803.1,1002.89 1805.15,1002.38 1807.2,1001.91 1809.25,1001.48 1811.3,1001.1 1813.35,1000.77 1815.4,1000.51 1817.45,1000.31 1819.51,1000.19 
  1821.56,1000.15 1823.61,1000.19 1825.66,1000.33 1827.71,1000.56 1829.76,1000.91 1831.81,1001.37 1833.86,1001.95 1835.92,1002.66 1837.97,1003.51 1840.02,1004.5 
  1842.07,1005.64 1844.12,1006.94 1846.17,1008.4 1848.22,1010.03 1850.27,1011.84 1852.33,1013.82 1854.38,1016 1856.43,1018.37 1858.48,1020.93 1860.53,1023.7 
  1862.58,1026.67 1864.63,1029.85 1866.68,1033.24 1868.73,1036.83 1870.79,1040.64 1872.84,1044.66 1874.89,1048.89 1876.94,1053.33 1878.99,1057.98 1881.04,1062.82 
  1883.09,1067.87 1885.14,1073.1 1887.2,1078.52 1889.25,1084.12 1891.3,1089.89 1893.35,1095.81 1895.4,1101.89 1897.45,1108.11 1899.5,1114.46 1901.55,1120.93 
  1903.61,1127.51 1905.66,1134.17 1907.71,1140.92 1909.76,1147.74 1911.81,1154.61 1913.86,1161.52 1915.91,1168.46 1917.96,1175.41 1920.01,1182.36 1922.07,1189.3 
  1924.12,1196.22 1926.17,1203.1 1928.22,1209.93 1930.27,1216.71 1932.32,1223.41 1934.37,1230.04 1936.42,1236.58 1938.48,1243.02 1940.53,1249.36 1942.58,1255.58 
  1944.63,1261.69 1946.68,1267.67 1948.73,1273.53 1950.78,1279.25 1952.83,1284.84 1954.89,1290.29 1956.94,1295.6 1958.99,1300.76 1961.04,1305.78 1963.09,1310.66 
  1965.14,1315.39 1967.19,1319.98 1969.24,1324.43 1971.29,1328.73 1973.35,1332.89 1975.4,1336.91 1977.45,1340.8 1979.5,1344.55 1981.55,1348.17 1983.6,1351.66 
  1985.65,1355.02 1987.7,1358.26 1989.76,1361.38 1991.81,1364.38 1993.86,1367.27 1995.91,1370.05 1997.96,1372.72 2000.01,1375.29 2002.06,1377.76 2004.11,1380.13 
  2006.16,1382.41 2008.22,1384.6 2010.27,1386.69 2012.32,1388.71 2014.37,1390.64 2016.42,1392.5 2018.47,1394.28 2020.52,1395.99 2022.57,1397.63 2024.63,1399.21 
  2026.68,1400.72 2028.73,1402.17 2030.78,1403.56 2032.83,1404.89 2034.88,1406.17 2036.93,1407.4 2038.98,1408.58 2041.04,1409.71 2043.09,1410.79 2045.14,1411.83 
  2047.19,1412.83 2049.24,1413.79 2051.29,1414.71 2053.34,1415.6 2055.39,1416.44 2057.44,1417.26 2059.5,1418.04 2061.55,1418.8 2063.6,1419.52 2065.65,1420.21 
  2067.7,1420.88 2069.75,1421.52 2071.8,1422.14 2073.85,1422.73 2075.91,1423.3 2077.96,1423.85 2080.01,1424.38 2082.06,1424.89 2084.11,1425.38 2086.16,1425.85 
  2088.21,1426.3 2090.26,1426.74 2092.32,1427.16 2094.37,1427.56 2096.42,1427.96 2098.47,1428.33 2100.52,1428.69 2102.57,1429.04 2104.62,1429.38 2106.67,1429.71 
  2108.72,1430.02 2110.78,1430.32 2112.83,1430.61 2114.88,1430.9 2116.93,1431.17 2118.98,1431.43 2121.03,1431.68 2123.08,1431.93 2125.13,1432.17 2127.19,1432.4 
  2129.24,1432.62 2131.29,1432.83 2133.34,1433.04 2135.39,1433.24 2137.44,1433.43 2139.49,1433.62 2141.54,1433.8 2143.6,1433.98 2145.65,1434.14 2147.7,1434.31 
  2149.75,1434.47 2151.8,1434.62 2153.85,1434.77 2155.9,1434.92 2157.95,1435.06 2160,1435.19 2162.06,1435.32 2164.11,1435.45 2166.16,1435.57 2168.21,1435.69 
  2170.26,1435.81 2172.31,1435.92 2174.36,1436.03 2176.41,1436.14 2178.47,1436.24 2180.52,1436.34 2182.57,1436.44 2184.62,1436.53 2186.67,1436.63 2188.72,1436.71 
  2190.77,1436.8 2192.82,1436.89 2194.88,1436.97 2196.93,1437.05 2198.98,1437.12 2201.03,1437.2 2203.08,1437.27 2205.13,1437.34 2207.18,1437.41 2209.23,1437.48 
  2211.28,1437.54 2213.34,1437.61 2215.39,1437.67 2217.44,1437.73 2219.49,1437.79 2221.54,1437.84 2223.59,1437.9 2225.64,1437.95 2227.69,1438 2229.75,1438.05 
  2231.8,1438.1 2233.85,1438.15 2235.9,1438.2 2237.95,1438.24 2240,1438.29 2242.05,1438.33 2244.1,1438.37 2246.16,1438.42 2248.21,1438.46 2250.26,1438.5 
  2252.31,1438.53 2254.36,1438.57 2256.41,1438.61 2258.46,1438.64 2260.51,1438.68 2262.56,1438.71 2264.62,1438.74 2266.67,1438.78 2268.72,1438.81 2270.77,1438.84 
  2272.82,1438.87 2274.87,1438.9 2276.92,1438.92 2278.97,1438.95 2281.03,1438.98 2283.08,1439 2285.13,1439.03 2287.18,1439.06 2289.23,1439.08 2291.28,1439.1 
  
  "/>
<polyline clip-path="url(#clip7402)" style="stroke:#c271d2; stroke-width:8; stroke-opacity:1; fill:none" points="
  242.135,1446.63 244.186,1446.63 246.237,1446.63 248.288,1446.63 250.34,1446.63 252.391,1446.62 254.442,1446.62 256.493,1446.62 258.544,1446.62 260.596,1446.62 
  262.647,1446.62 264.698,1446.62 266.749,1446.62 268.8,1446.62 270.851,1446.62 272.903,1446.62 274.954,1446.61 277.005,1446.61 279.056,1446.61 281.107,1446.61 
  283.159,1446.61 285.21,1446.61 287.261,1446.61 289.312,1446.61 291.363,1446.6 293.415,1446.6 295.466,1446.6 297.517,1446.6 299.568,1446.6 301.619,1446.6 
  303.671,1446.6 305.722,1446.59 307.773,1446.59 309.824,1446.59 311.875,1446.59 313.927,1446.59 315.978,1446.58 318.029,1446.58 320.08,1446.58 322.131,1446.58 
  324.183,1446.57 326.234,1446.57 328.285,1446.57 330.336,1446.57 332.387,1446.56 334.439,1446.56 336.49,1446.56 338.541,1446.55 340.592,1446.55 342.643,1446.54 
  344.695,1446.54 346.746,1446.54 348.797,1446.53 350.848,1446.53 352.899,1446.52 354.951,1446.52 357.002,1446.51 359.053,1446.51 361.104,1446.5 363.155,1446.5 
  365.207,1446.49 367.258,1446.48 369.309,1446.48 371.36,1446.47 373.411,1446.46 375.463,1446.46 377.514,1446.45 379.565,1446.44 381.616,1446.43 383.667,1446.42 
  385.719,1446.41 387.77,1446.4 389.821,1446.39 391.872,1446.38 393.923,1446.36 395.975,1446.35 398.026,1446.34 400.077,1446.32 402.128,1446.31 404.179,1446.29 
  406.231,1446.27 408.282,1446.26 410.333,1446.24 412.384,1446.22 414.435,1446.19 416.487,1446.17 418.538,1446.15 420.589,1446.12 422.64,1446.09 424.691,1446.06 
  426.743,1446.03 428.794,1446 430.845,1445.96 432.896,1445.93 434.947,1445.89 436.999,1445.84 439.05,1445.8 441.101,1445.75 443.152,1445.7 445.203,1445.64 
  447.255,1445.58 449.306,1445.52 451.357,1445.45 453.408,1445.38 455.459,1445.3 457.511,1445.22 459.562,1445.13 461.613,1445.03 463.664,1444.93 465.715,1444.82 
  467.766,1444.7 469.818,1444.57 471.869,1444.43 473.92,1444.29 475.971,1444.13 478.022,1443.96 480.074,1443.77 482.125,1443.58 484.176,1443.36 486.227,1443.13 
  488.278,1442.89 490.33,1442.62 492.381,1442.33 494.432,1442.03 496.483,1441.69 498.534,1441.33 500.586,1440.95 502.637,1440.53 504.688,1440.08 506.739,1439.59 
  508.79,1439.06 510.842,1438.5 512.893,1437.89 514.944,1437.23 516.995,1436.52 519.046,1435.75 521.098,1434.92 523.149,1434.03 525.2,1433.07 527.251,1432.03 
  529.302,1430.92 531.354,1429.72 533.405,1428.42 535.456,1427.03 537.507,1425.53 539.558,1423.92 541.61,1422.19 543.661,1420.34 545.712,1418.34 547.763,1416.21 
  549.814,1413.92 551.866,1411.47 553.917,1408.85 555.968,1406.05 558.019,1403.06 560.07,1399.88 562.122,1396.49 564.173,1392.88 566.224,1389.05 568.275,1384.98 
  570.326,1380.68 572.378,1376.13 574.429,1371.32 576.48,1366.26 578.531,1360.93 580.582,1355.34 582.634,1349.47 584.685,1343.34 586.736,1336.94 588.787,1330.28 
  590.838,1323.35 592.89,1316.18 594.941,1308.75 596.992,1301.1 599.043,1293.22 601.094,1285.14 603.146,1276.87 605.197,1268.43 607.248,1259.84 609.299,1251.12 
  611.35,1242.3 613.402,1233.41 615.453,1224.45 617.504,1215.47 619.555,1206.49 621.606,1197.54 623.658,1188.64 625.709,1179.81 627.76,1171.09 629.811,1162.49 
  631.862,1154.04 633.914,1145.76 635.965,1137.66 638.016,1129.77 640.067,1122.1 642.118,1114.66 644.17,1107.47 646.221,1100.52 648.272,1093.84 650.323,1087.42 
  652.374,1081.27 654.426,1075.39 656.477,1069.78 658.528,1064.43 660.579,1059.35 662.63,1054.52 664.682,1049.95 666.733,1045.63 668.784,1041.54 670.835,1037.69 
  672.886,1034.06 674.937,1030.64 676.989,1027.42 679.04,1024.41 681.091,1021.57 683.142,1018.91 685.193,1016.42 687.245,1014.08 689.296,1011.89 691.347,1009.84 
  693.398,1007.91 695.449,1006.1 697.501,1004.4 699.552,1002.81 701.603,1001.31 703.654,999.893 705.705,998.557 707.757,997.294 709.808,996.097 711.859,994.959 
  713.91,993.875 715.961,992.84 718.013,991.847 720.064,990.894 722.115,989.974 724.166,989.084 726.217,988.221 728.269,987.379 730.32,986.558 732.371,985.752 
  734.422,984.961 736.473,984.181 738.525,983.411 740.576,982.647 742.627,981.891 744.678,981.138 746.729,980.389 748.781,979.642 750.832,978.897 752.883,978.154 
  754.934,977.411 756.985,976.669 759.037,975.928 761.088,975.188 763.139,974.45 765.19,973.714 767.241,972.98 769.293,972.251 771.344,971.526 773.395,970.807 
  775.446,970.095 777.497,969.392 779.549,968.699 781.6,968.018 783.651,967.351 785.702,966.7 787.753,966.066 789.805,965.452 791.856,964.86 793.907,964.293 
  795.958,963.752 798.009,963.241 800.061,962.762 802.112,962.318 804.163,961.912 806.214,961.546 808.265,961.224 810.317,960.948 812.368,960.722 814.419,960.549 
  816.47,960.432 818.521,960.375 820.573,960.381 822.624,960.454 824.675,960.597 826.726,960.814 828.777,961.108 830.829,961.485 832.88,961.946 834.931,962.496 
  836.982,963.14 839.033,963.88 841.085,964.721 843.136,965.667 845.187,966.722 847.238,967.89 849.289,969.174 851.341,970.578 853.392,972.106 855.443,973.762 
  857.494,975.549 859.545,977.471 861.597,979.53 863.648,981.728 865.699,984.071 867.75,986.558 869.801,989.193 871.852,991.977 873.904,994.912 875.955,997.999 
  878.006,1001.24 880.057,1004.63 882.108,1008.17 884.16,1011.86 886.211,1015.7 888.262,1019.69 890.313,1023.82 892.364,1028.09 894.416,1032.5 896.467,1037.04 
  898.518,1041.71 900.569,1046.5 902.62,1051.4 904.672,1056.41 906.723,1061.53 908.774,1066.73 910.825,1072.03 912.876,1077.39 914.928,1082.83 916.979,1088.32 
  919.03,1093.86 921.081,1099.44 923.132,1105.05 925.184,1110.68 927.235,1116.31 929.286,1121.95 931.337,1127.57 933.388,1133.17 935.44,1138.74 937.491,1144.27 
  939.542,1149.75 941.593,1155.17 943.644,1160.53 945.696,1165.81 947.747,1171 949.798,1176.11 951.849,1181.12 953.9,1186.02 955.952,1190.82 958.003,1195.5 
  960.054,1200.06 962.105,1204.49 964.156,1208.79 966.208,1212.96 968.259,1216.99 970.31,1220.89 972.361,1224.63 974.412,1228.23 976.464,1231.68 978.515,1234.98 
  980.566,1238.13 982.617,1241.13 984.668,1243.97 986.72,1246.66 988.771,1249.19 990.822,1251.56 992.873,1253.78 994.924,1255.84 996.976,1257.75 999.027,1259.5 
  1001.08,1261.09 1003.13,1262.53 1005.18,1263.81 1007.23,1264.94 1009.28,1265.92 1011.33,1266.75 1013.39,1267.43 1015.44,1267.96 1017.49,1268.34 1019.54,1268.58 
  1021.59,1268.68 1023.64,1268.63 1025.69,1268.45 1027.74,1268.14 1029.79,1267.7 1031.85,1267.12 1033.9,1266.43 1035.95,1265.61 1038,1264.69 1040.05,1263.65 
  1042.1,1262.51 1044.15,1261.27 1046.2,1259.93 1048.26,1258.51 1050.31,1257.02 1052.36,1255.45 1054.41,1253.81 1056.46,1252.12 1058.51,1250.38 1060.56,1248.61 
  1062.61,1246.8 1064.67,1244.96 1066.72,1243.11 1068.77,1241.26 1070.82,1239.41 1072.87,1237.57 1074.92,1235.75 1076.97,1233.95 1079.02,1232.2 1081.07,1230.48 
  1083.13,1228.82 1085.18,1227.21 1087.23,1225.66 1089.28,1224.19 1091.33,1222.78 1093.38,1221.46 1095.43,1220.21 1097.48,1219.05 1099.54,1217.98 1101.59,1217 
  1103.64,1216.1 1105.69,1215.29 1107.74,1214.58 1109.79,1213.95 1111.84,1213.41 1113.89,1212.95 1115.95,1212.57 1118,1212.27 1120.05,1212.04 1122.1,1211.88 
  1124.15,1211.78 1126.2,1211.73 1128.25,1211.74 1130.3,1211.78 1132.35,1211.86 1134.41,1211.96 1136.46,1212.09 1138.51,1212.22 1140.56,1212.35 1142.61,1212.48 
  1144.66,1212.6 1146.71,1212.69 1148.76,1212.76 1150.82,1212.79 1152.87,1212.78 1154.92,1212.73 1156.97,1212.63 1159.02,1212.49 1161.07,1212.29 1163.12,1212.06 
  1165.17,1211.77 1167.23,1211.45 1169.28,1211.09 1171.33,1210.7 1173.38,1210.27 1175.43,1209.83 1177.48,1209.35 1179.53,1208.85 1181.58,1208.31 1183.63,1207.73 
  1185.69,1207.1 1187.74,1206.4 1189.79,1205.61 1191.84,1204.72 1193.89,1203.7 1195.94,1202.54 1197.99,1201.23 1200.04,1199.76 1202.1,1198.12 1204.15,1196.32 
  1206.2,1194.36 1208.25,1192.27 1210.3,1190.07 1212.35,1187.78 1214.4,1185.44 1216.45,1183.1 1218.5,1180.78 1220.56,1178.52 1222.61,1176.37 1224.66,1174.35 
  1226.71,1172.49 1228.76,1170.82 1230.81,1169.35 1232.86,1168.1 1234.91,1167.07 1236.97,1166.26 1239.02,1165.67 1241.07,1165.29 1243.12,1165.12 1245.17,1165.14 
  1247.22,1165.35 1249.27,1165.73 1251.32,1166.26 1253.38,1166.94 1255.43,1167.75 1257.48,1168.68 1259.53,1169.72 1261.58,1170.85 1263.63,1172.07 1265.68,1173.36 
  1267.73,1174.71 1269.78,1176.11 1271.84,1177.55 1273.89,1179.02 1275.94,1180.52 1277.99,1182.03 1280.04,1183.55 1282.09,1185.08 1284.14,1186.61 1286.19,1188.14 
  1288.25,1189.66 1290.3,1191.17 1292.35,1192.68 1294.4,1194.17 1296.45,1195.66 1298.5,1197.12 1300.55,1198.58 1302.6,1200.01 1304.66,1201.41 1306.71,1202.79 
  1308.76,1204.12 1310.81,1205.39 1312.86,1206.6 1314.91,1207.73 1316.96,1208.76 1319.01,1209.67 1321.06,1210.45 1323.12,1211.08 1325.17,1211.53 1327.22,1211.8 
  1329.27,1211.87 1331.32,1211.72 1333.37,1211.34 1335.42,1210.73 1337.47,1209.86 1339.53,1208.75 1341.58,1207.37 1343.63,1205.74 1345.68,1203.85 1347.73,1201.69 
  1349.78,1199.27 1351.83,1196.6 1353.88,1193.68 1355.94,1190.5 1357.99,1187.07 1360.04,1183.4 1362.09,1179.49 1364.14,1175.34 1366.19,1170.96 1368.24,1166.35 
  1370.29,1161.51 1372.34,1156.45 1374.4,1151.17 1376.45,1145.67 1378.5,1139.96 1380.55,1134.03 1382.6,1127.91 1384.65,1121.58 1386.7,1115.05 1388.75,1108.34 
  1390.81,1101.44 1392.86,1094.36 1394.91,1087.11 1396.96,1079.69 1399.01,1072.13 1401.06,1064.42 1403.11,1056.57 1405.16,1048.6 1407.22,1040.52 1409.27,1032.34 
  1411.32,1024.07 1413.37,1015.73 1415.42,1007.32 1417.47,998.875 1419.52,990.391 1421.57,981.889 1423.62,973.38 1425.68,964.879 1427.73,956.4 1429.78,947.955 
  1431.83,939.557 1433.88,931.217 1435.93,922.948 1437.98,914.762 1440.03,906.667 1442.09,898.675 1444.14,890.794 1446.19,883.034 1448.24,875.403 1450.29,867.908 
  1452.34,860.558 1454.39,853.358 1456.44,846.315 1458.5,839.436 1460.55,832.726 1462.6,826.19 1464.65,819.834 1466.7,813.663 1468.75,807.681 1470.8,801.894 
  1472.85,796.306 1474.9,790.921 1476.96,785.744 1479.01,780.78 1481.06,776.032 1483.11,771.505 1485.16,767.203 1487.21,763.131 1489.26,759.292 1491.31,755.691 
  1493.37,752.333 1495.42,749.22 1497.47,746.358 1499.52,743.749 1501.57,741.399 1503.62,739.311 1505.67,737.489 1507.72,735.937 1509.78,734.659 1511.83,733.658 
  1513.88,732.938 1515.93,732.503 1517.98,732.356 1520.03,732.501 1522.08,732.941 1524.13,733.679 1526.18,734.72 1528.24,736.065 1530.29,737.718 1532.34,739.682 
  1534.39,741.96 1536.44,744.555 1538.49,747.469 1540.54,750.705 1542.59,754.264 1544.65,758.15 1546.7,762.364 1548.75,766.907 1550.8,771.782 1552.85,776.989 
  1554.9,782.528 1556.95,788.402 1559,794.608 1561.06,801.148 1563.11,808.019 1565.16,815.221 1567.21,822.752 1569.26,830.608 1571.31,838.787 1573.36,847.283 
  1575.41,856.093 1577.46,865.211 1579.52,874.629 1581.57,884.341 1583.62,894.337 1585.67,904.607 1587.72,915.142 1589.77,925.929 1591.82,936.956 1593.87,948.207 
  1595.93,959.669 1597.98,971.324 1600.03,983.157 1602.08,995.146 1604.13,1007.28 1606.18,1019.52 1608.23,1031.87 1610.28,1044.28 1612.33,1056.75 1614.39,1069.25 
  1616.44,1081.76 1618.49,1094.25 1620.54,1106.69 1622.59,1119.07 1624.64,1131.35 1626.69,1143.52 1628.74,1155.56 1630.8,1167.44 1632.85,1179.13 1634.9,1190.63 
  1636.95,1201.9 1639,1212.94 1641.05,1223.72 1643.1,1234.24 1645.15,1244.47 1647.21,1254.41 1649.26,1264.04 1651.31,1273.36 1653.36,1282.36 1655.41,1291.03 
  1657.46,1299.38 1659.51,1307.39 1661.56,1315.08 1663.61,1322.44 1665.67,1329.47 1667.72,1336.18 1669.77,1342.57 1671.82,1348.65 1673.87,1354.43 1675.92,1359.91 
  1677.97,1365.1 1680.02,1370.01 1682.08,1374.65 1684.13,1379.03 1686.18,1383.16 1688.23,1387.05 1690.28,1390.71 1692.33,1394.16 1694.38,1397.39 1696.43,1400.43 
  1698.49,1403.27 1700.54,1405.94 1702.59,1408.44 1704.64,1410.79 1706.69,1412.98 1708.74,1415.03 1710.79,1416.95 1712.84,1418.74 1714.89,1420.41 1716.95,1421.98 
  1719,1423.44 1721.05,1424.81 1723.1,1426.08 1725.15,1427.27 1727.2,1428.39 1729.25,1429.42 1731.3,1430.4 1733.36,1431.3 1735.41,1432.15 1737.46,1432.94 
  1739.51,1433.68 1741.56,1434.37 1743.61,1435.02 1745.66,1435.63 1747.71,1436.19 1749.77,1436.72 1751.82,1437.22 1753.87,1437.69 1755.92,1438.12 1757.97,1438.53 
  1760.02,1438.92 1762.07,1439.28 1764.12,1439.62 1766.17,1439.94 1768.23,1440.24 1770.28,1440.52 1772.33,1440.79 1774.38,1441.04 1776.43,1441.27 1778.48,1441.49 
  1780.53,1441.71 1782.58,1441.9 1784.64,1442.09 1786.69,1442.27 1788.74,1442.44 1790.79,1442.6 1792.84,1442.75 1794.89,1442.89 1796.94,1443.03 1798.99,1443.16 
  1801.05,1443.28 1803.1,1443.4 1805.15,1443.51 1807.2,1443.62 1809.25,1443.72 1811.3,1443.82 1813.35,1443.92 1815.4,1444.01 1817.45,1444.09 1819.51,1444.17 
  1821.56,1444.25 1823.61,1444.33 1825.66,1444.4 1827.71,1444.47 1829.76,1444.54 1831.81,1444.61 1833.86,1444.67 1835.92,1444.73 1837.97,1444.79 1840.02,1444.85 
  1842.07,1444.91 1844.12,1444.96 1846.17,1445.02 1848.22,1445.07 1850.27,1445.12 1852.33,1445.17 1854.38,1445.21 1856.43,1445.26 1858.48,1445.31 1860.53,1445.35 
  1862.58,1445.39 1864.63,1445.44 1866.68,1445.48 1868.73,1445.52 1870.79,1445.56 1872.84,1445.6 1874.89,1445.63 1876.94,1445.67 1878.99,1445.71 1881.04,1445.74 
  1883.09,1445.78 1885.14,1445.81 1887.2,1445.84 1889.25,1445.87 1891.3,1445.91 1893.35,1445.94 1895.4,1445.97 1897.45,1446 1899.5,1446.02 1901.55,1446.05 
  1903.61,1446.08 1905.66,1446.11 1907.71,1446.13 1909.76,1446.16 1911.81,1446.18 1913.86,1446.2 1915.91,1446.23 1917.96,1446.25 1920.01,1446.27 1922.07,1446.29 
  1924.12,1446.31 1926.17,1446.33 1928.22,1446.34 1930.27,1446.36 1932.32,1446.38 1934.37,1446.39 1936.42,1446.41 1938.48,1446.43 1940.53,1446.44 1942.58,1446.45 
  1944.63,1446.47 1946.68,1446.48 1948.73,1446.49 1950.78,1446.5 1952.83,1446.51 1954.89,1446.52 1956.94,1446.53 1958.99,1446.54 1961.04,1446.55 1963.09,1446.56 
  1965.14,1446.57 1967.19,1446.57 1969.24,1446.58 1971.29,1446.59 1973.35,1446.59 1975.4,1446.6 1977.45,1446.61 1979.5,1446.61 1981.55,1446.62 1983.6,1446.62 
  1985.65,1446.63 1987.7,1446.63 1989.76,1446.63 1991.81,1446.64 1993.86,1446.64 1995.91,1446.65 1997.96,1446.65 2000.01,1446.65 2002.06,1446.66 2004.11,1446.66 
  2006.16,1446.66 2008.22,1446.66 2010.27,1446.67 2012.32,1446.67 2014.37,1446.67 2016.42,1446.67 2018.47,1446.67 2020.52,1446.68 2022.57,1446.68 2024.63,1446.68 
  2026.68,1446.68 2028.73,1446.68 2030.78,1446.68 2032.83,1446.68 2034.88,1446.69 2036.93,1446.69 2038.98,1446.69 2041.04,1446.69 2043.09,1446.69 2045.14,1446.69 
  2047.19,1446.69 2049.24,1446.69 2051.29,1446.69 2053.34,1446.69 2055.39,1446.7 2057.44,1446.7 2059.5,1446.7 2061.55,1446.7 2063.6,1446.7 2065.65,1446.7 
  2067.7,1446.7 2069.75,1446.7 2071.8,1446.7 2073.85,1446.7 2075.91,1446.7 2077.96,1446.7 2080.01,1446.7 2082.06,1446.7 2084.11,1446.7 2086.16,1446.7 
  2088.21,1446.7 2090.26,1446.7 2092.32,1446.7 2094.37,1446.7 2096.42,1446.7 2098.47,1446.7 2100.52,1446.7 2102.57,1446.7 2104.62,1446.71 2106.67,1446.71 
  2108.72,1446.71 2110.78,1446.71 2112.83,1446.71 2114.88,1446.71 2116.93,1446.71 2118.98,1446.71 2121.03,1446.71 2123.08,1446.71 2125.13,1446.71 2127.19,1446.71 
  2129.24,1446.71 2131.29,1446.71 2133.34,1446.71 2135.39,1446.71 2137.44,1446.71 2139.49,1446.71 2141.54,1446.71 2143.6,1446.71 2145.65,1446.71 2147.7,1446.71 
  2149.75,1446.71 2151.8,1446.71 2153.85,1446.71 2155.9,1446.71 2157.95,1446.71 2160,1446.71 2162.06,1446.71 2164.11,1446.71 2166.16,1446.71 2168.21,1446.71 
  2170.26,1446.71 2172.31,1446.71 2174.36,1446.71 2176.41,1446.71 2178.47,1446.71 2180.52,1446.71 2182.57,1446.71 2184.62,1446.71 2186.67,1446.71 2188.72,1446.71 
  2190.77,1446.71 2192.82,1446.71 2194.88,1446.71 2196.93,1446.71 2198.98,1446.71 2201.03,1446.71 2203.08,1446.71 2205.13,1446.71 2207.18,1446.71 2209.23,1446.71 
  2211.28,1446.71 2213.34,1446.71 2215.39,1446.71 2217.44,1446.71 2219.49,1446.71 2221.54,1446.71 2223.59,1446.71 2225.64,1446.71 2227.69,1446.71 2229.75,1446.71 
  2231.8,1446.71 2233.85,1446.71 2235.9,1446.71 2237.95,1446.71 2240,1446.71 2242.05,1446.71 2244.1,1446.71 2246.16,1446.71 2248.21,1446.71 2250.26,1446.71 
  2252.31,1446.71 2254.36,1446.71 2256.41,1446.71 2258.46,1446.71 2260.51,1446.71 2262.56,1446.71 2264.62,1446.71 2266.67,1446.71 2268.72,1446.71 2270.77,1446.71 
  2272.82,1446.71 2274.87,1446.71 2276.92,1446.71 2278.97,1446.71 2281.03,1446.71 2283.08,1446.71 2285.13,1446.71 2287.18,1446.71 2289.23,1446.71 2291.28,1446.71 
  
  "/>
<polyline clip-path="url(#clip7402)" style="stroke:#ac8d18; stroke-width:8; stroke-opacity:1; fill:none" points="
  242.135,88.0053 244.186,88.0061 246.237,88.007 248.288,88.0076 250.34,88.0084 252.391,88.0094 254.442,88.0102 256.493,88.0112 258.544,88.012 260.596,88.013 
  262.647,88.0139 264.698,88.0151 266.749,88.016 268.8,88.0172 270.851,88.0183 272.903,88.0194 274.954,88.0207 277.005,88.0219 279.056,88.0232 281.107,88.0246 
  283.159,88.0259 285.21,88.0274 287.261,88.0288 289.312,88.0304 291.363,88.0321 293.415,88.0337 295.466,88.0353 297.517,88.0371 299.568,88.039 301.619,88.041 
  303.671,88.0429 305.722,88.045 307.773,88.0471 309.824,88.0494 311.875,88.0517 313.927,88.0541 315.978,88.0565 318.029,88.0593 320.08,88.0619 322.131,88.0648 
  324.183,88.0677 326.234,88.0708 328.285,88.0739 330.336,88.0773 332.387,88.0807 334.439,88.0844 336.49,88.0881 338.541,88.092 340.592,88.096 342.643,88.1004 
  344.695,88.105 346.746,88.1095 348.797,88.1145 350.848,88.1195 352.899,88.1249 354.951,88.1306 357.002,88.1364 359.053,88.1427 361.104,88.1489 363.155,88.1557 
  365.207,88.1629 367.258,88.1703 369.309,88.1783 371.36,88.1865 373.411,88.1951 375.463,88.2042 377.514,88.2139 379.565,88.2239 381.616,88.2346 383.667,88.2458 
  385.719,88.2576 387.77,88.2701 389.821,88.2832 391.872,88.2971 393.923,88.3119 395.975,88.3272 398.026,88.3437 400.077,88.3611 402.128,88.3795 404.179,88.399 
  406.231,88.4197 408.282,88.4415 410.333,88.4648 412.384,88.4896 414.435,88.5158 416.487,88.5436 418.538,88.5734 420.589,88.605 422.64,88.6386 424.691,88.6744 
  426.743,88.7126 428.794,88.7534 430.845,88.7969 432.896,88.8433 434.947,88.8929 436.999,88.946 439.05,89.0027 441.101,89.0636 443.152,89.1286 445.203,89.1984 
  447.255,89.2731 449.306,89.3533 451.357,89.4394 453.408,89.5319 455.459,89.6312 457.511,89.7381 459.562,89.8529 461.613,89.9766 463.664,90.1096 465.715,90.253 
  467.766,90.4076 469.818,90.5744 471.869,90.7541 473.92,90.9482 475.971,91.1577 478.022,91.3841 480.074,91.6287 482.125,91.8932 484.176,92.1793 486.227,92.4887 
  488.278,92.8238 490.33,93.1865 492.381,93.5794 494.432,94.0049 496.483,94.466 498.534,94.966 500.586,95.5079 502.637,96.0957 504.688,96.7331 506.739,97.4247 
  508.79,98.175 510.842,98.9892 512.893,99.8725 514.944,100.831 516.995,101.872 519.046,103.001 521.098,104.226 523.149,105.555 525.2,106.998 527.251,108.562 
  529.302,110.259 531.354,112.099 533.405,114.093 535.456,116.254 537.507,118.595 539.558,121.13 541.61,123.873 543.661,126.841 545.712,130.049 547.763,133.514 
  549.814,137.256 551.866,141.293 553.917,145.645 555.968,150.333 558.019,155.376 560.07,160.798 562.122,166.621 564.173,172.866 566.224,179.556 568.275,186.714 
  570.326,194.363 572.378,202.524 574.429,211.218 576.48,220.465 578.531,230.285 580.582,240.694 582.634,251.707 584.685,263.337 586.736,275.594 588.787,288.487 
  590.838,302.018 592.89,316.187 594.941,330.992 596.992,346.424 599.043,362.472 601.094,379.119 603.146,396.342 605.197,414.119 607.248,432.416 609.299,451.202 
  611.35,470.436 613.402,490.078 615.453,510.081 617.504,530.398 619.555,550.976 621.606,571.765 623.658,592.709 625.709,613.755 627.76,634.846 629.811,655.929 
  631.862,676.95 633.914,697.859 635.965,718.604 638.016,739.139 640.067,759.419 642.118,779.402 644.17,799.052 646.221,818.332 648.272,837.212 650.323,855.665 
  652.374,873.669 654.426,891.201 656.477,908.247 658.528,924.792 660.579,940.829 662.63,956.347 664.682,971.346 666.733,985.821 668.784,999.777 670.835,1013.21 
  672.886,1026.14 674.937,1038.55 676.989,1050.47 679.04,1061.9 681.091,1072.84 683.142,1083.32 685.193,1093.34 687.245,1102.92 689.296,1112.06 691.347,1120.78 
  693.398,1129.1 695.449,1137.02 697.501,1144.57 699.552,1151.74 701.603,1158.56 703.654,1165.04 705.705,1171.19 707.757,1177.03 709.808,1182.55 711.859,1187.79 
  713.91,1192.74 715.961,1197.42 718.013,1201.83 720.064,1205.99 722.115,1209.91 724.166,1213.6 726.217,1217.06 728.269,1220.3 730.32,1223.34 732.371,1226.17 
  734.422,1228.81 736.473,1231.26 738.525,1233.54 740.576,1235.63 742.627,1237.56 744.678,1239.33 746.729,1240.94 748.781,1242.4 750.832,1243.71 752.883,1244.88 
  754.934,1245.91 756.985,1246.8 759.037,1247.57 761.088,1248.21 763.139,1248.73 765.19,1249.13 767.241,1249.42 769.293,1249.59 771.344,1249.66 773.395,1249.62 
  775.446,1249.48 777.497,1249.24 779.549,1248.91 781.6,1248.48 783.651,1247.96 785.702,1247.36 787.753,1246.67 789.805,1245.9 791.856,1245.05 793.907,1244.13 
  795.958,1243.13 798.009,1242.06 800.061,1240.93 802.112,1239.73 804.163,1238.47 806.214,1237.15 808.265,1235.78 810.317,1234.35 812.368,1232.88 814.419,1231.37 
  816.47,1229.82 818.521,1228.22 820.573,1226.6 822.624,1224.95 824.675,1223.27 826.726,1221.57 828.777,1219.86 830.829,1218.14 832.88,1216.41 834.931,1214.68 
  836.982,1212.95 839.033,1211.23 841.085,1209.52 843.136,1207.83 845.187,1206.17 847.238,1204.53 849.289,1202.94 851.341,1201.38 853.392,1199.87 855.443,1198.41 
  857.494,1197.01 859.545,1195.68 861.597,1194.42 863.648,1193.23 865.699,1192.12 867.75,1191.11 869.801,1190.18 871.852,1189.35 873.904,1188.63 875.955,1188.01 
  878.006,1187.5 880.057,1187.11 882.108,1186.84 884.16,1186.7 886.211,1186.68 888.262,1186.79 890.313,1187.03 892.364,1187.4 894.416,1187.91 896.467,1188.55 
  898.518,1189.33 900.569,1190.24 902.62,1191.28 904.672,1192.45 906.723,1193.75 908.774,1195.17 910.825,1196.72 912.876,1198.39 914.928,1200.16 916.979,1202.05 
  919.03,1204.03 921.081,1206.12 923.132,1208.29 925.184,1210.55 927.235,1212.88 929.286,1215.28 931.337,1217.75 933.388,1220.27 935.44,1222.83 937.491,1225.44 
  939.542,1228.08 941.593,1230.74 943.644,1233.41 945.696,1236.1 947.747,1238.78 949.798,1241.46 951.849,1244.13 953.9,1246.77 955.952,1249.39 958.003,1251.98 
  960.054,1254.53 962.105,1257.03 964.156,1259.48 966.208,1261.88 968.259,1264.21 970.31,1266.48 972.361,1268.68 974.412,1270.81 976.464,1272.86 978.515,1274.82 
  980.566,1276.7 982.617,1278.5 984.668,1280.2 986.72,1281.81 988.771,1283.33 990.822,1284.74 992.873,1286.06 994.924,1287.28 996.976,1288.39 999.027,1289.4 
  1001.08,1290.31 1003.13,1291.11 1005.18,1291.8 1007.23,1292.39 1009.28,1292.87 1011.33,1293.24 1013.39,1293.51 1015.44,1293.67 1017.49,1293.73 1019.54,1293.68 
  1021.59,1293.53 1023.64,1293.28 1025.69,1292.93 1027.74,1292.48 1029.79,1291.94 1031.85,1291.3 1033.9,1290.58 1035.95,1289.77 1038,1288.89 1040.05,1287.92 
  1042.1,1286.89 1044.15,1285.79 1046.2,1284.62 1048.26,1283.41 1050.31,1282.14 1052.36,1280.83 1054.41,1279.49 1056.46,1278.12 1058.51,1276.72 1060.56,1275.32 
  1062.61,1273.9 1064.67,1272.49 1066.72,1271.09 1068.77,1269.7 1070.82,1268.34 1072.87,1267.01 1074.92,1265.72 1076.97,1264.47 1079.02,1263.28 1081.07,1262.14 
  1083.13,1261.07 1085.18,1260.06 1087.23,1259.13 1089.28,1258.28 1091.33,1257.5 1093.38,1256.81 1095.43,1256.2 1097.48,1255.68 1099.54,1255.24 1101.59,1254.89 
  1103.64,1254.62 1105.69,1254.43 1107.74,1254.32 1109.79,1254.29 1111.84,1254.33 1113.89,1254.43 1115.95,1254.59 1118,1254.8 1120.05,1255.06 1122.1,1255.35 
  1124.15,1255.67 1126.2,1256.01 1128.25,1256.35 1130.3,1256.68 1132.35,1257 1134.41,1257.29 1136.46,1257.53 1138.51,1257.72 1140.56,1257.83 1142.61,1257.86 
  1144.66,1257.79 1146.71,1257.6 1148.76,1257.29 1150.82,1256.83 1152.87,1256.22 1154.92,1255.45 1156.97,1254.51 1159.02,1253.39 1161.07,1252.08 1163.12,1250.6 
  1165.17,1248.93 1167.23,1247.1 1169.28,1245.1 1171.33,1242.97 1173.38,1240.71 1175.43,1238.36 1177.48,1235.94 1179.53,1233.49 1181.58,1231.04 1183.63,1228.63 
  1185.69,1226.29 1187.74,1224.06 1189.79,1221.96 1191.84,1220.03 1193.89,1218.28 1195.94,1216.75 1197.99,1215.44 1200.04,1214.36 1202.1,1213.52 1204.15,1212.93 
  1206.2,1212.58 1208.25,1212.46 1210.3,1212.58 1212.35,1212.92 1214.4,1213.47 1216.45,1214.22 1218.5,1215.15 1220.56,1216.24 1222.61,1217.47 1224.66,1218.82 
  1226.71,1220.26 1228.76,1221.77 1230.81,1223.31 1232.86,1224.86 1234.91,1226.4 1236.97,1227.9 1239.02,1229.32 1241.07,1230.65 1243.12,1231.86 1245.17,1232.93 
  1247.22,1233.84 1249.27,1234.57 1251.32,1235.1 1253.38,1235.42 1255.43,1235.51 1257.48,1235.37 1259.53,1234.97 1261.58,1234.32 1263.63,1233.39 1265.68,1232.19 
  1267.73,1230.7 1269.78,1228.93 1271.84,1226.86 1273.89,1224.49 1275.94,1221.82 1277.99,1218.85 1280.04,1215.59 1282.09,1212.02 1284.14,1208.18 1286.19,1204.05 
  1288.25,1199.65 1290.3,1195 1292.35,1190.11 1294.4,1185 1296.45,1179.7 1298.5,1174.23 1300.55,1168.61 1302.6,1162.88 1304.66,1157.06 1306.71,1151.18 
  1308.76,1145.26 1310.81,1139.33 1312.86,1133.41 1314.91,1127.52 1316.96,1121.68 1319.01,1115.89 1321.06,1110.17 1323.12,1104.52 1325.17,1098.96 1327.22,1093.48 
  1329.27,1088.09 1331.32,1082.8 1333.37,1077.61 1335.42,1072.54 1337.47,1067.58 1339.53,1062.76 1341.58,1058.09 1343.63,1053.59 1345.68,1049.28 1347.73,1045.18 
  1349.78,1041.32 1351.83,1037.72 1353.88,1034.4 1355.94,1031.4 1357.99,1028.73 1360.04,1026.41 1362.09,1024.48 1364.14,1022.96 1366.19,1021.85 1368.24,1021.17 
  1370.29,1020.95 1372.34,1021.18 1374.4,1021.88 1376.45,1023.05 1378.5,1024.69 1380.55,1026.8 1382.6,1029.38 1384.65,1032.43 1386.7,1035.92 1388.75,1039.86 
  1390.81,1044.22 1392.86,1049 1394.91,1054.18 1396.96,1059.73 1399.01,1065.64 1401.06,1071.89 1403.11,1078.46 1405.16,1085.31 1407.22,1092.43 1409.27,1099.79 
  1411.32,1107.37 1413.37,1115.13 1415.42,1123.06 1417.47,1131.12 1419.52,1139.3 1421.57,1147.55 1423.62,1155.87 1425.68,1164.22 1427.73,1172.58 1429.78,1180.93 
  1431.83,1189.25 1433.88,1197.51 1435.93,1205.7 1437.98,1213.79 1440.03,1221.78 1442.09,1229.65 1444.14,1237.38 1446.19,1244.97 1448.24,1252.39 1450.29,1259.65 
  1452.34,1266.73 1454.39,1273.63 1456.44,1280.34 1458.5,1286.86 1460.55,1293.19 1462.6,1299.32 1464.65,1305.26 1466.7,1311 1468.75,1316.54 1470.8,1321.89 
  1472.85,1327.04 1474.9,1332.01 1476.96,1336.8 1479.01,1341.39 1481.06,1345.82 1483.11,1350.06 1485.16,1354.14 1487.21,1358.06 1489.26,1361.81 1491.31,1365.41 
  1493.37,1368.86 1495.42,1372.16 1497.47,1375.33 1499.52,1378.35 1501.57,1381.25 1503.62,1384.03 1505.67,1386.69 1507.72,1389.23 1509.78,1391.66 1511.83,1393.98 
  1513.88,1396.2 1515.93,1398.33 1517.98,1400.36 1520.03,1402.3 1522.08,1404.16 1524.13,1405.94 1526.18,1407.64 1528.24,1409.27 1530.29,1410.82 1532.34,1412.31 
  1534.39,1413.74 1536.44,1415.1 1538.49,1416.4 1540.54,1417.65 1542.59,1418.85 1544.65,1419.99 1546.7,1421.09 1548.75,1422.14 1550.8,1423.15 1552.85,1424.12 
  1554.9,1425.05 1556.95,1425.94 1559,1426.79 1561.06,1427.61 1563.11,1428.4 1565.16,1429.16 1567.21,1429.89 1569.26,1430.59 1571.31,1431.26 1573.36,1431.91 
  1575.41,1432.53 1577.46,1433.13 1579.52,1433.7 1581.57,1434.26 1583.62,1434.8 1585.67,1435.31 1587.72,1435.81 1589.77,1436.29 1591.82,1436.75 1593.87,1437.2 
  1595.93,1437.62 1597.98,1438.04 1600.03,1438.44 1602.08,1438.82 1604.13,1439.19 1606.18,1439.55 1608.23,1439.9 1610.28,1440.23 1612.33,1440.55 1614.39,1440.85 
  1616.44,1441.15 1618.49,1441.43 1620.54,1441.71 1622.59,1441.97 1624.64,1442.22 1626.69,1442.46 1628.74,1442.7 1630.8,1442.92 1632.85,1443.13 1634.9,1443.33 
  1636.95,1443.53 1639,1443.71 1641.05,1443.89 1643.1,1444.06 1645.15,1444.22 1647.21,1444.37 1649.26,1444.51 1651.31,1444.65 1653.36,1444.78 1655.41,1444.9 
  1657.46,1445.02 1659.51,1445.13 1661.56,1445.23 1663.61,1445.33 1665.67,1445.42 1667.72,1445.5 1669.77,1445.58 1671.82,1445.66 1673.87,1445.73 1675.92,1445.8 
  1677.97,1445.86 1680.02,1445.92 1682.08,1445.97 1684.13,1446.02 1686.18,1446.07 1688.23,1446.11 1690.28,1446.15 1692.33,1446.19 1694.38,1446.23 1696.43,1446.26 
  1698.49,1446.29 1700.54,1446.32 1702.59,1446.35 1704.64,1446.37 1706.69,1446.4 1708.74,1446.42 1710.79,1446.44 1712.84,1446.46 1714.89,1446.47 1716.95,1446.49 
  1719,1446.5 1721.05,1446.52 1723.1,1446.53 1725.15,1446.54 1727.2,1446.55 1729.25,1446.56 1731.3,1446.57 1733.36,1446.58 1735.41,1446.59 1737.46,1446.6 
  1739.51,1446.6 1741.56,1446.61 1743.61,1446.62 1745.66,1446.62 1747.71,1446.63 1749.77,1446.63 1751.82,1446.64 1753.87,1446.64 1755.92,1446.65 1757.97,1446.65 
  1760.02,1446.65 1762.07,1446.66 1764.12,1446.66 1766.17,1446.66 1768.23,1446.67 1770.28,1446.67 1772.33,1446.67 1774.38,1446.67 1776.43,1446.67 1778.48,1446.68 
  1780.53,1446.68 1782.58,1446.68 1784.64,1446.68 1786.69,1446.68 1788.74,1446.68 1790.79,1446.69 1792.84,1446.69 1794.89,1446.69 1796.94,1446.69 1798.99,1446.69 
  1801.05,1446.69 1803.1,1446.69 1805.15,1446.69 1807.2,1446.69 1809.25,1446.7 1811.3,1446.7 1813.35,1446.7 1815.4,1446.7 1817.45,1446.7 1819.51,1446.7 
  1821.56,1446.7 1823.61,1446.7 1825.66,1446.7 1827.71,1446.7 1829.76,1446.7 1831.81,1446.7 1833.86,1446.7 1835.92,1446.7 1837.97,1446.7 1840.02,1446.7 
  1842.07,1446.7 1844.12,1446.7 1846.17,1446.71 1848.22,1446.71 1850.27,1446.71 1852.33,1446.71 1854.38,1446.71 1856.43,1446.71 1858.48,1446.71 1860.53,1446.71 
  1862.58,1446.71 1864.63,1446.71 1866.68,1446.71 1868.73,1446.71 1870.79,1446.71 1872.84,1446.71 1874.89,1446.71 1876.94,1446.71 1878.99,1446.71 1881.04,1446.71 
  1883.09,1446.71 1885.14,1446.71 1887.2,1446.71 1889.25,1446.71 1891.3,1446.71 1893.35,1446.71 1895.4,1446.71 1897.45,1446.71 1899.5,1446.71 1901.55,1446.71 
  1903.61,1446.71 1905.66,1446.71 1907.71,1446.71 1909.76,1446.71 1911.81,1446.71 1913.86,1446.71 1915.91,1446.71 1917.96,1446.71 1920.01,1446.71 1922.07,1446.71 
  1924.12,1446.71 1926.17,1446.71 1928.22,1446.71 1930.27,1446.71 1932.32,1446.71 1934.37,1446.71 1936.42,1446.71 1938.48,1446.71 1940.53,1446.71 1942.58,1446.71 
  1944.63,1446.71 1946.68,1446.71 1948.73,1446.71 1950.78,1446.71 1952.83,1446.71 1954.89,1446.71 1956.94,1446.71 1958.99,1446.71 1961.04,1446.71 1963.09,1446.71 
  1965.14,1446.71 1967.19,1446.71 1969.24,1446.71 1971.29,1446.71 1973.35,1446.71 1975.4,1446.71 1977.45,1446.71 1979.5,1446.71 1981.55,1446.71 1983.6,1446.71 
  1985.65,1446.71 1987.7,1446.71 1989.76,1446.71 1991.81,1446.71 1993.86,1446.71 1995.91,1446.71 1997.96,1446.71 2000.01,1446.71 2002.06,1446.71 2004.11,1446.71 
  2006.16,1446.71 2008.22,1446.71 2010.27,1446.71 2012.32,1446.71 2014.37,1446.71 2016.42,1446.71 2018.47,1446.71 2020.52,1446.71 2022.57,1446.71 2024.63,1446.71 
  2026.68,1446.71 2028.73,1446.71 2030.78,1446.71 2032.83,1446.71 2034.88,1446.71 2036.93,1446.71 2038.98,1446.71 2041.04,1446.71 2043.09,1446.71 2045.14,1446.71 
  2047.19,1446.71 2049.24,1446.71 2051.29,1446.71 2053.34,1446.71 2055.39,1446.71 2057.44,1446.71 2059.5,1446.71 2061.55,1446.71 2063.6,1446.71 2065.65,1446.71 
  2067.7,1446.71 2069.75,1446.71 2071.8,1446.71 2073.85,1446.71 2075.91,1446.71 2077.96,1446.71 2080.01,1446.71 2082.06,1446.71 2084.11,1446.71 2086.16,1446.71 
  2088.21,1446.71 2090.26,1446.71 2092.32,1446.71 2094.37,1446.71 2096.42,1446.71 2098.47,1446.71 2100.52,1446.71 2102.57,1446.71 2104.62,1446.71 2106.67,1446.71 
  2108.72,1446.71 2110.78,1446.71 2112.83,1446.71 2114.88,1446.71 2116.93,1446.71 2118.98,1446.71 2121.03,1446.71 2123.08,1446.71 2125.13,1446.71 2127.19,1446.71 
  2129.24,1446.71 2131.29,1446.71 2133.34,1446.71 2135.39,1446.71 2137.44,1446.71 2139.49,1446.71 2141.54,1446.71 2143.6,1446.71 2145.65,1446.71 2147.7,1446.71 
  2149.75,1446.71 2151.8,1446.71 2153.85,1446.71 2155.9,1446.71 2157.95,1446.71 2160,1446.71 2162.06,1446.71 2164.11,1446.71 2166.16,1446.71 2168.21,1446.71 
  2170.26,1446.71 2172.31,1446.71 2174.36,1446.71 2176.41,1446.71 2178.47,1446.71 2180.52,1446.71 2182.57,1446.71 2184.62,1446.71 2186.67,1446.71 2188.72,1446.71 
  2190.77,1446.71 2192.82,1446.71 2194.88,1446.71 2196.93,1446.71 2198.98,1446.71 2201.03,1446.71 2203.08,1446.71 2205.13,1446.71 2207.18,1446.71 2209.23,1446.71 
  2211.28,1446.71 2213.34,1446.71 2215.39,1446.71 2217.44,1446.71 2219.49,1446.71 2221.54,1446.71 2223.59,1446.71 2225.64,1446.71 2227.69,1446.71 2229.75,1446.71 
  2231.8,1446.71 2233.85,1446.71 2235.9,1446.71 2237.95,1446.71 2240,1446.71 2242.05,1446.71 2244.1,1446.71 2246.16,1446.71 2248.21,1446.71 2250.26,1446.71 
  2252.31,1446.71 2254.36,1446.71 2256.41,1446.71 2258.46,1446.71 2260.51,1446.71 2262.56,1446.71 2264.62,1446.71 2266.67,1446.71 2268.72,1446.71 2270.77,1446.71 
  2272.82,1446.71 2274.87,1446.71 2276.92,1446.71 2278.97,1446.71 2281.03,1446.71 2283.08,1446.71 2285.13,1446.71 2287.18,1446.71 2289.23,1446.71 2291.28,1446.71 
  
  "/>
<polygon clip-path="url(#clip7400)" points="
1989.93,493.644 2280.76,493.644 2280.76,130.764 1989.93,130.764 
  " fill="#ffffff" fill-rule="evenodd" fill-opacity="1"/>
<polyline clip-path="url(#clip7400)" style="stroke:#000000; stroke-width:4; stroke-opacity:1; fill:none" points="
  1989.93,493.644 2280.76,493.644 2280.76,130.764 1989.93,130.764 1989.93,493.644 
  "/>
<polyline clip-path="url(#clip7400)" style="stroke:#009af9; stroke-width:8; stroke-opacity:1; fill:none" points="
  2013.93,191.244 2157.93,191.244 
  "/>
<g clip-path="url(#clip7400)">
<text style="fill:#000000; fill-opacity:1; font-family:Arial,Helvetica Neue,Helvetica,sans-serif; font-size:48px; text-anchor:start;" transform="rotate(0, 2181.93, 208.744)" x="2181.93" y="208.744">y1</text>
</g>
<polyline clip-path="url(#clip7400)" style="stroke:#e26f46; stroke-width:8; stroke-opacity:1; fill:none" points="
  2013.93,251.724 2157.93,251.724 
  "/>
<g clip-path="url(#clip7400)">
<text style="fill:#000000; fill-opacity:1; font-family:Arial,Helvetica Neue,Helvetica,sans-serif; font-size:48px; text-anchor:start;" transform="rotate(0, 2181.93, 269.224)" x="2181.93" y="269.224">y2</text>
</g>
<polyline clip-path="url(#clip7400)" style="stroke:#3da44d; stroke-width:8; stroke-opacity:1; fill:none" points="
  2013.93,312.204 2157.93,312.204 
  "/>
<g clip-path="url(#clip7400)">
<text style="fill:#000000; fill-opacity:1; font-family:Arial,Helvetica Neue,Helvetica,sans-serif; font-size:48px; text-anchor:start;" transform="rotate(0, 2181.93, 329.704)" x="2181.93" y="329.704">y3</text>
</g>
<polyline clip-path="url(#clip7400)" style="stroke:#c271d2; stroke-width:8; stroke-opacity:1; fill:none" points="
  2013.93,372.684 2157.93,372.684 
  "/>
<g clip-path="url(#clip7400)">
<text style="fill:#000000; fill-opacity:1; font-family:Arial,Helvetica Neue,Helvetica,sans-serif; font-size:48px; text-anchor:start;" transform="rotate(0, 2181.93, 390.184)" x="2181.93" y="390.184">y4</text>
</g>
<polyline clip-path="url(#clip7400)" style="stroke:#ac8d18; stroke-width:8; stroke-opacity:1; fill:none" points="
  2013.93,433.164 2157.93,433.164 
  "/>
<g clip-path="url(#clip7400)">
<text style="fill:#000000; fill-opacity:1; font-family:Arial,Helvetica Neue,Helvetica,sans-serif; font-size:48px; text-anchor:start;" transform="rotate(0, 2181.93, 450.664)" x="2181.93" y="450.664">y5</text>
</g>
</svg>
