<?xml version="1.0" encoding="utf-8"?>
<svg xmlns="http://www.w3.org/2000/svg" xmlns:xlink="http://www.w3.org/1999/xlink" width="600" height="400" viewBox="0 0 2400 1600">
<defs>
  <clipPath id="clip7800">
    <rect x="0" y="0" width="2400" height="1600"/>
  </clipPath>
</defs>
<polygon clip-path="url(#clip7800)" points="
0,1600 2400,1600 2400,0 0,0 
  " fill="#ffffff" fill-rule="evenodd" fill-opacity="1"/>
<defs>
  <clipPath id="clip7801">
    <rect x="480" y="0" width="1681" height="1600"/>
  </clipPath>
</defs>
<polygon clip-path="url(#clip7800)" points="
113.754,1487.47 2352.76,1487.47 2352.76,47.2441 113.754,47.2441 
  " fill="#ffffff" fill-rule="evenodd" fill-opacity="1"/>
<defs>
  <clipPath id="clip7802">
    <rect x="113" y="47" width="2240" height="1441"/>
  </clipPath>
</defs>
<polyline clip-path="url(#clip7802)" style="stroke:#000000; stroke-width:2; stroke-opacity:0.1; fill:none" points="
  177.122,1487.47 177.122,47.2441 
  "/>
<polyline clip-path="url(#clip7802)" style="stroke:#000000; stroke-width:2; stroke-opacity:0.1; fill:none" points="
  529.167,1487.47 529.167,47.2441 
  "/>
<polyline clip-path="url(#clip7802)" style="stroke:#000000; stroke-width:2; stroke-opacity:0.1; fill:none" points="
  881.211,1487.47 881.211,47.2441 
  "/>
<polyline clip-path="url(#clip7802)" style="stroke:#000000; stroke-width:2; stroke-opacity:0.1; fill:none" points="
  1233.26,1487.47 1233.26,47.2441 
  "/>
<polyline clip-path="url(#clip7802)" style="stroke:#000000; stroke-width:2; stroke-opacity:0.1; fill:none" points="
  1585.3,1487.47 1585.3,47.2441 
  "/>
<polyline clip-path="url(#clip7802)" style="stroke:#000000; stroke-width:2; stroke-opacity:0.1; fill:none" points="
  1937.34,1487.47 1937.34,47.2441 
  "/>
<polyline clip-path="url(#clip7802)" style="stroke:#000000; stroke-width:2; stroke-opacity:0.1; fill:none" points="
  2289.39,1487.47 2289.39,47.2441 
  "/>
<polyline clip-path="url(#clip7802)" style="stroke:#000000; stroke-width:2; stroke-opacity:0.1; fill:none" points="
  113.754,1466.25 2352.76,1466.25 
  "/>
<polyline clip-path="url(#clip7802)" style="stroke:#000000; stroke-width:2; stroke-opacity:0.1; fill:none" points="
  113.754,1129.14 2352.76,1129.14 
  "/>
<polyline clip-path="url(#clip7802)" style="stroke:#000000; stroke-width:2; stroke-opacity:0.1; fill:none" points="
  113.754,792.034 2352.76,792.034 
  "/>
<polyline clip-path="url(#clip7802)" style="stroke:#000000; stroke-width:2; stroke-opacity:0.1; fill:none" points="
  113.754,454.925 2352.76,454.925 
  "/>
<polyline clip-path="url(#clip7802)" style="stroke:#000000; stroke-width:2; stroke-opacity:0.1; fill:none" points="
  113.754,117.816 2352.76,117.816 
  "/>
<polyline clip-path="url(#clip7800)" style="stroke:#000000; stroke-width:4; stroke-opacity:1; fill:none" points="
  113.754,1487.47 2352.76,1487.47 
  "/>
<polyline clip-path="url(#clip7800)" style="stroke:#000000; stroke-width:4; stroke-opacity:1; fill:none" points="
  113.754,1487.47 113.754,47.2441 
  "/>
<polyline clip-path="url(#clip7800)" style="stroke:#000000; stroke-width:4; stroke-opacity:1; fill:none" points="
  177.122,1487.47 177.122,1465.87 
  "/>
<polyline clip-path="url(#clip7800)" style="stroke:#000000; stroke-width:4; stroke-opacity:1; fill:none" points="
  529.167,1487.47 529.167,1465.87 
  "/>
<polyline clip-path="url(#clip7800)" style="stroke:#000000; stroke-width:4; stroke-opacity:1; fill:none" points="
  881.211,1487.47 881.211,1465.87 
  "/>
<polyline clip-path="url(#clip7800)" style="stroke:#000000; stroke-width:4; stroke-opacity:1; fill:none" points="
  1233.26,1487.47 1233.26,1465.87 
  "/>
<polyline clip-path="url(#clip7800)" style="stroke:#000000; stroke-width:4; stroke-opacity:1; fill:none" points="
  1585.3,1487.47 1585.3,1465.87 
  "/>
<polyline clip-path="url(#clip7800)" style="stroke:#000000; stroke-width:4; stroke-opacity:1; fill:none" points="
  1937.34,1487.47 1937.34,1465.87 
  "/>
<polyline clip-path="url(#clip7800)" style="stroke:#000000; stroke-width:4; stroke-opacity:1; fill:none" points="
  2289.39,1487.47 2289.39,1465.87 
  "/>
<polyline clip-path="url(#clip7800)" style="stroke:#000000; stroke-width:4; stroke-opacity:1; fill:none" points="
  113.754,1466.25 147.339,1466.25 
  "/>
<polyline clip-path="url(#clip7800)" style="stroke:#000000; stroke-width:4; stroke-opacity:1; fill:none" points="
  113.754,1129.14 147.339,1129.14 
  "/>
<polyline clip-path="url(#clip7800)" style="stroke:#000000; stroke-width:4; stroke-opacity:1; fill:none" points="
  113.754,792.034 147.339,792.034 
  "/>
<polyline clip-path="url(#clip7800)" style="stroke:#000000; stroke-width:4; stroke-opacity:1; fill:none" points="
  113.754,454.925 147.339,454.925 
  "/>
<polyline clip-path="url(#clip7800)" style="stroke:#000000; stroke-width:4; stroke-opacity:1; fill:none" points="
  113.754,117.816 147.339,117.816 
  "/>
<g clip-path="url(#clip7800)">
<text style="fill:#000000; fill-opacity:1; font-family:Arial,Helvetica Neue,Helvetica,sans-serif; font-size:48px; text-anchor:middle;" transform="rotate(0, 177.122, 1541.47)" x="177.122" y="1541.47">-15</text>
</g>
<g clip-path="url(#clip7800)">
<text style="fill:#000000; fill-opacity:1; font-family:Arial,Helvetica Neue,Helvetica,sans-serif; font-size:48px; text-anchor:middle;" transform="rotate(0, 529.167, 1541.47)" x="529.167" y="1541.47">-10</text>
</g>
<g clip-path="url(#clip7800)">
<text style="fill:#000000; fill-opacity:1; font-family:Arial,Helvetica Neue,Helvetica,sans-serif; font-size:48px; text-anchor:middle;" transform="rotate(0, 881.211, 1541.47)" x="881.211" y="1541.47">-5</text>
</g>
<g clip-path="url(#clip7800)">
<text style="fill:#000000; fill-opacity:1; font-family:Arial,Helvetica Neue,Helvetica,sans-serif; font-size:48px; text-anchor:middle;" transform="rotate(0, 1233.26, 1541.47)" x="1233.26" y="1541.47">0</text>
</g>
<g clip-path="url(#clip7800)">
<text style="fill:#000000; fill-opacity:1; font-family:Arial,Helvetica Neue,Helvetica,sans-serif; font-size:48px; text-anchor:middle;" transform="rotate(0, 1585.3, 1541.47)" x="1585.3" y="1541.47">5</text>
</g>
<g clip-path="url(#clip7800)">
<text style="fill:#000000; fill-opacity:1; font-family:Arial,Helvetica Neue,Helvetica,sans-serif; font-size:48px; text-anchor:middle;" transform="rotate(0, 1937.34, 1541.47)" x="1937.34" y="1541.47">10</text>
</g>
<g clip-path="url(#clip7800)">
<text style="fill:#000000; fill-opacity:1; font-family:Arial,Helvetica Neue,Helvetica,sans-serif; font-size:48px; text-anchor:middle;" transform="rotate(0, 2289.39, 1541.47)" x="2289.39" y="1541.47">15</text>
</g>
<g clip-path="url(#clip7800)">
<text style="fill:#000000; fill-opacity:1; font-family:Arial,Helvetica Neue,Helvetica,sans-serif; font-size:48px; text-anchor:end;" transform="rotate(0, 89.7545, 1483.75)" x="89.7545" y="1483.75">0</text>
</g>
<g clip-path="url(#clip7800)">
<text style="fill:#000000; fill-opacity:1; font-family:Arial,Helvetica Neue,Helvetica,sans-serif; font-size:48px; text-anchor:end;" transform="rotate(0, 89.7545, 1146.64)" x="89.7545" y="1146.64">1</text>
</g>
<g clip-path="url(#clip7800)">
<text style="fill:#000000; fill-opacity:1; font-family:Arial,Helvetica Neue,Helvetica,sans-serif; font-size:48px; text-anchor:end;" transform="rotate(0, 89.7545, 809.534)" x="89.7545" y="809.534">2</text>
</g>
<g clip-path="url(#clip7800)">
<text style="fill:#000000; fill-opacity:1; font-family:Arial,Helvetica Neue,Helvetica,sans-serif; font-size:48px; text-anchor:end;" transform="rotate(0, 89.7545, 472.425)" x="89.7545" y="472.425">3</text>
</g>
<g clip-path="url(#clip7800)">
<text style="fill:#000000; fill-opacity:1; font-family:Arial,Helvetica Neue,Helvetica,sans-serif; font-size:48px; text-anchor:end;" transform="rotate(0, 89.7545, 135.316)" x="89.7545" y="135.316">4</text>
</g>
<polyline clip-path="url(#clip7802)" style="stroke:#009af9; stroke-width:8; stroke-opacity:1; fill:none" points="
  177.122,88.0053 179.237,89.7615 181.351,91.579 183.466,93.4598 185.58,95.4032 187.694,97.4124 189.809,99.4871 191.923,101.63 194.037,103.84 196.152,106.121 
  198.266,108.472 200.381,110.897 202.495,113.393 204.609,115.966 206.724,118.613 208.838,121.339 210.953,124.142 213.067,127.026 215.181,129.99 217.296,133.037 
  219.41,136.167 221.524,139.382 223.639,142.683 225.753,146.072 227.868,149.549 229.982,153.115 232.096,156.772 234.211,160.521 236.325,164.364 238.439,168.301 
  240.554,172.333 242.668,176.463 244.783,180.69 246.897,185.016 249.011,189.441 251.126,193.968 253.24,198.596 255.354,203.328 257.469,208.163 259.583,213.103 
  261.698,218.149 263.812,223.301 265.926,228.56 268.041,233.927 270.155,239.403 272.27,244.988 274.384,250.682 276.498,256.486 278.613,262.402 280.727,268.429 
  282.841,274.567 284.956,280.816 287.07,287.177 289.185,293.651 291.299,300.236 293.413,306.933 295.528,313.743 297.642,320.664 299.756,327.696 301.871,334.84 
  303.985,342.094 306.1,349.458 308.214,356.931 310.328,364.513 312.443,372.203 314.557,380 316.672,387.903 318.786,395.91 320.9,404.021 323.015,412.233 
  325.129,420.547 327.243,428.959 329.358,437.469 331.472,446.074 333.587,454.773 335.701,463.563 337.815,472.444 339.93,481.411 342.044,490.463 344.158,499.598 
  346.273,508.813 348.387,518.104 350.502,527.47 352.616,536.908 354.73,546.414 356.845,555.986 358.959,565.62 361.073,575.312 363.188,585.061 365.302,594.861 
  367.417,604.71 369.531,614.604 371.645,624.539 373.76,634.511 375.874,644.518 377.989,654.553 380.103,664.615 382.217,674.698 384.332,684.798 386.446,694.913 
  388.56,705.036 390.675,715.165 392.789,725.294 394.904,735.419 397.018,745.538 399.132,755.645 401.247,765.735 403.361,775.806 405.475,785.852 407.59,795.869 
  409.704,805.854 411.819,815.801 413.933,825.708 416.047,835.57 418.162,845.383 420.276,855.143 422.39,864.846 424.505,874.489 426.619,884.068 428.734,893.579 
  430.848,903.019 432.962,912.384 435.077,921.672 437.191,930.879 439.306,940.001 441.42,949.037 443.534,957.983 445.649,966.836 447.763,975.594 449.877,984.254 
  451.992,992.814 454.106,1001.27 456.221,1009.63 458.335,1017.87 460.449,1026.02 462.564,1034.05 464.678,1041.97 466.792,1049.77 468.907,1057.47 471.021,1065.04 
  473.136,1072.51 475.25,1079.85 477.364,1087.08 479.479,1094.19 481.593,1101.19 483.708,1108.06 485.822,1114.82 487.936,1121.45 490.051,1127.97 492.165,1134.37 
  494.279,1140.65 496.394,1146.82 498.508,1152.86 500.623,1158.79 502.737,1164.6 504.851,1170.3 506.966,1175.88 509.08,1181.34 511.194,1186.7 513.309,1191.94 
  515.423,1197.07 517.538,1202.09 519.652,1207.01 521.766,1211.81 523.881,1216.51 525.995,1221.11 528.109,1225.6 530.224,1229.99 532.338,1234.28 534.453,1238.48 
  536.567,1242.57 538.681,1246.57 540.796,1250.48 542.91,1254.29 545.025,1258.02 547.139,1261.66 549.253,1265.2 551.368,1268.67 553.482,1272.05 555.596,1275.34 
  557.711,1278.56 559.825,1281.7 561.94,1284.76 564.054,1287.74 566.168,1290.65 568.283,1293.49 570.397,1296.26 572.511,1298.96 574.626,1301.59 576.74,1304.16 
  578.855,1306.66 580.969,1309.1 583.083,1311.48 585.198,1313.8 587.312,1316.06 589.427,1318.26 591.541,1320.41 593.655,1322.5 595.77,1324.54 597.884,1326.53 
  599.998,1328.47 602.113,1330.36 604.227,1332.21 606.342,1334 608.456,1335.75 610.57,1337.46 612.685,1339.13 614.799,1340.75 616.913,1342.34 619.028,1343.88 
  621.142,1345.39 623.257,1346.86 625.371,1348.3 627.485,1349.69 629.6,1351.06 631.714,1352.39 633.828,1353.69 635.943,1354.96 638.057,1356.2 640.172,1357.41 
  642.286,1358.59 644.4,1359.74 646.515,1360.86 648.629,1361.96 650.744,1363.04 652.858,1364.08 654.972,1365.11 657.087,1366.11 659.201,1367.09 661.315,1368.04 
  663.43,1368.98 665.544,1369.89 667.659,1370.78 669.773,1371.66 671.887,1372.51 674.002,1373.35 676.116,1374.17 678.23,1374.97 680.345,1375.75 682.459,1376.52 
  684.574,1377.27 686.688,1378.01 688.802,1378.73 690.917,1379.43 693.031,1380.13 695.146,1380.8 697.26,1381.47 699.374,1382.12 701.489,1382.76 703.603,1383.38 
  705.717,1384 707.832,1384.6 709.946,1385.19 712.061,1385.77 714.175,1386.34 716.289,1386.9 718.404,1387.44 720.518,1387.98 722.632,1388.51 724.747,1389.03 
  726.861,1389.54 728.976,1390.04 731.09,1390.53 733.204,1391.01 735.319,1391.48 737.433,1391.95 739.547,1392.4 741.662,1392.85 743.776,1393.3 745.891,1393.73 
  748.005,1394.16 750.119,1394.58 752.234,1394.99 754.348,1395.39 756.463,1395.79 758.577,1396.18 760.691,1396.57 762.806,1396.95 764.92,1397.32 767.034,1397.69 
  769.149,1398.05 771.263,1398.4 773.378,1398.75 775.492,1399.1 777.606,1399.44 779.721,1399.77 781.835,1400.09 783.949,1400.42 786.064,1400.73 788.178,1401.04 
  790.293,1401.35 792.407,1401.65 794.521,1401.95 796.636,1402.24 798.75,1402.53 800.864,1402.81 802.979,1403.09 805.093,1403.37 807.208,1403.64 809.322,1403.9 
  811.436,1404.16 813.551,1404.42 815.665,1404.68 817.78,1404.93 819.894,1405.17 822.008,1405.42 824.123,1405.66 826.237,1405.89 828.351,1406.13 830.466,1406.36 
  832.58,1406.58 834.695,1406.81 836.809,1407.03 838.923,1407.25 841.038,1407.46 843.152,1407.67 845.266,1407.88 847.381,1408.09 849.495,1408.3 851.61,1408.5 
  853.724,1408.7 855.838,1408.9 857.953,1409.1 860.067,1409.29 862.182,1409.49 864.296,1409.68 866.41,1409.87 868.525,1410.06 870.639,1410.25 872.753,1410.43 
  874.868,1410.62 876.982,1410.8 879.097,1410.99 881.211,1411.17 883.325,1411.35 885.44,1411.53 887.554,1411.72 889.668,1411.9 891.783,1412.08 893.897,1412.26 
  896.012,1412.44 898.126,1412.63 900.24,1412.81 902.355,1412.99 904.469,1413.18 906.583,1413.36 908.698,1413.55 910.812,1413.74 912.927,1413.93 915.041,1414.12 
  917.155,1414.31 919.27,1414.5 921.384,1414.7 923.499,1414.89 925.613,1415.09 927.727,1415.3 929.842,1415.5 931.956,1415.71 934.07,1415.92 936.185,1416.13 
  938.299,1416.34 940.414,1416.56 942.528,1416.78 944.642,1417.01 946.757,1417.23 948.871,1417.47 950.985,1417.7 953.1,1417.94 955.214,1418.18 957.329,1418.42 
  959.443,1418.67 961.557,1418.92 963.672,1419.18 965.786,1419.44 967.901,1419.7 970.015,1419.97 972.129,1420.23 974.244,1420.51 976.358,1420.78 978.472,1421.06 
  980.587,1421.34 982.701,1421.63 984.816,1421.91 986.93,1422.2 989.044,1422.49 991.159,1422.78 993.273,1423.08 995.387,1423.37 997.502,1423.67 999.616,1423.97 
  1001.73,1424.26 1003.84,1424.56 1005.96,1424.86 1008.07,1425.16 1010.19,1425.45 1012.3,1425.75 1014.42,1426.04 1016.53,1426.34 1018.65,1426.63 1020.76,1426.92 
  1022.87,1427.2 1024.99,1427.48 1027.1,1427.76 1029.22,1428.04 1031.33,1428.31 1033.45,1428.58 1035.56,1428.85 1037.68,1429.11 1039.79,1429.36 1041.9,1429.61 
  1044.02,1429.86 1046.13,1430.1 1048.25,1430.34 1050.36,1430.57 1052.48,1430.8 1054.59,1431.02 1056.7,1431.24 1058.82,1431.45 1060.93,1431.65 1063.05,1431.85 
  1065.16,1432.05 1067.28,1432.24 1069.39,1432.42 1071.51,1432.6 1073.62,1432.78 1075.73,1432.95 1077.85,1433.12 1079.96,1433.28 1082.08,1433.44 1084.19,1433.6 
  1086.31,1433.75 1088.42,1433.9 1090.53,1434.05 1092.65,1434.19 1094.76,1434.34 1096.88,1434.48 1098.99,1434.62 1101.11,1434.76 1103.22,1434.9 1105.34,1435.04 
  1107.45,1435.18 1109.56,1435.32 1111.68,1435.46 1113.79,1435.6 1115.91,1435.74 1118.02,1435.89 1120.14,1436.03 1122.25,1436.18 1124.36,1436.32 1126.48,1436.46 
  1128.59,1436.6 1130.71,1436.73 1132.82,1436.86 1134.94,1436.98 1137.05,1437.08 1139.17,1437.18 1141.28,1437.25 1143.39,1437.3 1145.51,1437.32 1147.62,1437.31 
  1149.74,1437.26 1151.85,1437.17 1153.97,1437.04 1156.08,1436.85 1158.19,1436.61 1160.31,1436.31 1162.42,1435.94 1164.54,1435.5 1166.65,1434.98 1168.77,1434.39 
  1170.88,1433.71 1173,1432.95 1175.11,1432.11 1177.22,1431.17 1179.34,1430.15 1181.45,1429.04 1183.57,1427.85 1185.68,1426.57 1187.8,1425.21 1189.91,1423.78 
  1192.02,1422.28 1194.14,1420.71 1196.25,1419.09 1198.37,1417.42 1200.48,1415.71 1202.6,1413.97 1204.71,1412.21 1206.83,1410.44 1208.94,1408.66 1211.05,1406.9 
  1213.17,1405.15 1215.28,1403.44 1217.4,1401.76 1219.51,1400.13 1221.63,1398.55 1223.74,1397.04 1225.85,1395.6 1227.97,1394.24 1230.08,1392.96 1232.2,1391.79 
  1234.31,1390.71 1236.43,1389.74 1238.54,1388.89 1240.66,1388.16 1242.77,1387.56 1244.88,1387.08 1247,1386.74 1249.11,1386.53 1251.23,1386.47 1253.34,1386.54 
  1255.46,1386.75 1257.57,1387.1 1259.68,1387.57 1261.8,1388.18 1263.91,1388.9 1266.03,1389.73 1268.14,1390.66 1270.26,1391.69 1272.37,1392.79 1274.49,1393.96 
  1276.6,1395.19 1278.71,1396.46 1280.83,1397.76 1282.94,1399.09 1285.06,1400.42 1287.17,1401.76 1289.29,1403.09 1291.4,1404.41 1293.52,1405.71 1295.63,1406.98 
  1297.74,1408.22 1299.86,1409.44 1301.97,1410.61 1304.09,1411.75 1306.2,1412.85 1308.32,1413.92 1310.43,1414.95 1312.54,1415.94 1314.66,1416.9 1316.77,1417.82 
  1318.89,1418.71 1321,1419.57 1323.12,1420.4 1325.23,1421.19 1327.35,1421.96 1329.46,1422.71 1331.57,1423.42 1333.69,1424.12 1335.8,1424.79 1337.92,1425.44 
  1340.03,1426.06 1342.15,1426.67 1344.26,1427.25 1346.37,1427.81 1348.49,1428.36 1350.6,1428.89 1352.72,1429.4 1354.83,1429.89 1356.95,1430.36 1359.06,1430.82 
  1361.18,1431.26 1363.29,1431.68 1365.4,1432.09 1367.52,1432.48 1369.63,1432.86 1371.75,1433.22 1373.86,1433.56 1375.98,1433.89 1378.09,1434.21 1380.2,1434.51 
  1382.32,1434.79 1384.43,1435.06 1386.55,1435.32 1388.66,1435.56 1390.78,1435.78 1392.89,1436 1395.01,1436.19 1397.12,1436.38 1399.23,1436.55 1401.35,1436.7 
  1403.46,1436.84 1405.58,1436.97 1407.69,1437.09 1409.81,1437.19 1411.92,1437.28 1414.03,1437.35 1416.15,1437.42 1418.26,1437.47 1420.38,1437.5 1422.49,1437.53 
  1424.61,1437.54 1426.72,1437.55 1428.84,1437.54 1430.95,1437.51 1433.06,1437.48 1435.18,1437.44 1437.29,1437.39 1439.41,1437.32 1441.52,1437.25 1443.64,1437.17 
  1445.75,1437.08 1447.86,1436.98 1449.98,1436.87 1452.09,1436.75 1454.21,1436.62 1456.32,1436.49 1458.44,1436.35 1460.55,1436.2 1462.67,1436.04 1464.78,1435.88 
  1466.89,1435.71 1469.01,1435.54 1471.12,1435.36 1473.24,1435.17 1475.35,1434.98 1477.47,1434.78 1479.58,1434.58 1481.69,1434.38 1483.81,1434.17 1485.92,1433.95 
  1488.04,1433.73 1490.15,1433.51 1492.27,1433.29 1494.38,1433.06 1496.5,1432.83 1498.61,1432.59 1500.72,1432.35 1502.84,1432.11 1504.95,1431.87 1507.07,1431.62 
  1509.18,1431.37 1511.3,1431.12 1513.41,1430.87 1515.52,1430.61 1517.64,1430.35 1519.75,1430.09 1521.87,1429.83 1523.98,1429.57 1526.1,1429.3 1528.21,1429.03 
  1530.33,1428.76 1532.44,1428.49 1534.55,1428.22 1536.67,1427.94 1538.78,1427.66 1540.9,1427.38 1543.01,1427.1 1545.13,1426.81 1547.24,1426.53 1549.35,1426.24 
  1551.47,1425.94 1553.58,1425.65 1555.7,1425.35 1557.81,1425.05 1559.93,1424.75 1562.04,1424.44 1564.16,1424.13 1566.27,1423.82 1568.38,1423.5 1570.5,1423.18 
  1572.61,1422.86 1574.73,1422.53 1576.84,1422.2 1578.96,1421.86 1581.07,1421.53 1583.19,1421.18 1585.3,1420.83 1587.41,1420.48 1589.53,1420.13 1591.64,1419.77 
  1593.76,1419.4 1595.87,1419.03 1597.99,1418.65 1600.1,1418.27 1602.21,1417.89 1604.33,1417.5 1606.44,1417.11 1608.56,1416.71 1610.67,1416.3 1612.79,1415.89 
  1614.9,1415.48 1617.02,1415.06 1619.13,1414.63 1621.24,1414.2 1623.36,1413.76 1625.47,1413.32 1627.59,1412.88 1629.7,1412.43 1631.82,1411.97 1633.93,1411.51 
  1636.04,1411.05 1638.16,1410.58 1640.27,1410.11 1642.39,1409.63 1644.5,1409.15 1646.62,1408.67 1648.73,1408.18 1650.85,1407.69 1652.96,1407.2 1655.07,1406.7 
  1657.19,1406.2 1659.3,1405.7 1661.42,1405.19 1663.53,1404.69 1665.65,1404.18 1667.76,1403.67 1669.87,1403.16 1671.99,1402.65 1674.1,1402.14 1676.22,1401.63 
  1678.33,1401.12 1680.45,1400.61 1682.56,1400.1 1684.68,1399.59 1686.79,1399.08 1688.9,1398.58 1691.02,1398.08 1693.13,1397.57 1695.25,1397.08 1697.36,1396.58 
  1699.48,1396.09 1701.59,1395.6 1703.7,1395.11 1705.82,1394.63 1707.93,1394.16 1710.05,1393.68 1712.16,1393.21 1714.28,1392.75 1716.39,1392.29 1718.51,1391.84 
  1720.62,1391.39 1722.73,1390.95 1724.85,1390.52 1726.96,1390.09 1729.08,1389.67 1731.19,1389.25 1733.31,1388.84 1735.42,1388.43 1737.53,1388.04 1739.65,1387.64 
  1741.76,1387.26 1743.88,1386.88 1745.99,1386.51 1748.11,1386.15 1750.22,1385.79 1752.34,1385.44 1754.45,1385.09 1756.56,1384.76 1758.68,1384.43 1760.79,1384.1 
  1762.91,1383.78 1765.02,1383.47 1767.14,1383.17 1769.25,1382.87 1771.36,1382.58 1773.48,1382.29 1775.59,1382.01 1777.71,1381.74 1779.82,1381.47 1781.94,1381.21 
  1784.05,1380.95 1786.17,1380.7 1788.28,1380.46 1790.39,1380.22 1792.51,1379.98 1794.62,1379.75 1796.74,1379.52 1798.85,1379.3 1800.97,1379.09 1803.08,1378.87 
  1805.19,1378.67 1807.31,1378.46 1809.42,1378.26 1811.54,1378.07 1813.65,1377.87 1815.77,1377.68 1817.88,1377.5 1820,1377.31 1822.11,1377.13 1824.22,1376.96 
  1826.34,1376.78 1828.45,1376.61 1830.57,1376.44 1832.68,1376.28 1834.8,1376.11 1836.91,1375.95 1839.03,1375.79 1841.14,1375.63 1843.25,1375.47 1845.37,1375.32 
  1847.48,1375.17 1849.6,1375.01 1851.71,1374.86 1853.83,1374.71 1855.94,1374.57 1858.05,1374.42 1860.17,1374.27 1862.28,1374.13 1864.4,1373.98 1866.51,1373.84 
  1868.63,1373.7 1870.74,1373.55 1872.86,1373.41 1874.97,1373.27 1877.08,1373.13 1879.2,1372.99 1881.31,1372.85 1883.43,1372.71 1885.54,1372.58 1887.66,1372.44 
  1889.77,1372.3 1891.88,1372.16 1894,1372.02 1896.11,1371.89 1898.23,1371.75 1900.34,1371.61 1902.46,1371.48 1904.57,1371.34 1906.69,1371.21 1908.8,1371.07 
  1910.91,1370.93 1913.03,1370.8 1915.14,1370.66 1917.26,1370.53 1919.37,1370.39 1921.49,1370.26 1923.6,1370.13 1925.71,1369.99 1927.83,1369.86 1929.94,1369.73 
  1932.06,1369.6 1934.17,1369.46 1936.29,1369.33 1938.4,1369.2 1940.52,1369.07 1942.63,1368.94 1944.74,1368.81 1946.86,1368.69 1948.97,1368.56 1951.09,1368.43 
  1953.2,1368.31 1955.32,1368.18 1957.43,1368.06 1959.54,1367.93 1961.66,1367.81 1963.77,1367.69 1965.89,1367.57 1968,1367.45 1970.12,1367.33 1972.23,1367.22 
  1974.35,1367.1 1976.46,1366.98 1978.57,1366.87 1980.69,1366.76 1982.8,1366.65 1984.92,1366.54 1987.03,1366.43 1989.15,1366.32 1991.26,1366.22 1993.37,1366.12 
  1995.49,1366.01 1997.6,1365.91 1999.72,1365.81 2001.83,1365.72 2003.95,1365.62 2006.06,1365.53 2008.18,1365.43 2010.29,1365.34 2012.4,1365.25 2014.52,1365.17 
  2016.63,1365.08 2018.75,1365 2020.86,1364.91 2022.98,1364.83 2025.09,1364.76 2027.2,1364.68 2029.32,1364.6 2031.43,1364.53 2033.55,1364.46 2035.66,1364.39 
  2037.78,1364.32 2039.89,1364.26 2042.01,1364.19 2044.12,1364.13 2046.23,1364.07 2048.35,1364.01 2050.46,1363.95 2052.58,1363.9 2054.69,1363.85 2056.81,1363.79 
  2058.92,1363.75 2061.03,1363.7 2063.15,1363.65 2065.26,1363.61 2067.38,1363.57 2069.49,1363.52 2071.61,1363.49 2073.72,1363.45 2075.84,1363.41 2077.95,1363.38 
  2080.06,1363.35 2082.18,1363.32 2084.29,1363.29 2086.41,1363.26 2088.52,1363.23 2090.64,1363.21 2092.75,1363.19 2094.86,1363.17 2096.98,1363.15 2099.09,1363.13 
  2101.21,1363.11 2103.32,1363.1 2105.44,1363.08 2107.55,1363.07 2109.67,1363.06 2111.78,1363.05 2113.89,1363.04 2116.01,1363.03 2118.12,1363.03 2120.24,1363.02 
  2122.35,1363.02 2124.47,1363.02 2126.58,1363.02 2128.7,1363.02 2130.81,1363.02 2132.92,1363.02 2135.04,1363.02 2137.15,1363.03 2139.27,1363.03 2141.38,1363.04 
  2143.5,1363.05 2145.61,1363.05 2147.72,1363.06 2149.84,1363.07 2151.95,1363.09 2154.07,1363.1 2156.18,1363.11 2158.3,1363.12 2160.41,1363.14 2162.53,1363.15 
  2164.64,1363.17 2166.75,1363.19 2168.87,1363.2 2170.98,1363.22 2173.1,1363.24 2175.21,1363.26 2177.33,1363.28 2179.44,1363.3 2181.55,1363.32 2183.67,1363.35 
  2185.78,1363.37 2187.9,1363.39 2190.01,1363.41 2192.13,1363.44 2194.24,1363.46 2196.36,1363.49 2198.47,1363.51 2200.58,1363.54 2202.7,1363.57 2204.81,1363.59 
  2206.93,1363.62 2209.04,1363.65 2211.16,1363.68 2213.27,1363.7 2215.38,1363.73 2217.5,1363.76 2219.61,1363.79 2221.73,1363.82 2223.84,1363.85 2225.96,1363.88 
  2228.07,1363.91 2230.19,1363.94 2232.3,1363.97 2234.41,1364 2236.53,1364.03 2238.64,1364.06 2240.76,1364.1 2242.87,1364.13 2244.99,1364.16 2247.1,1364.19 
  2249.21,1364.22 2251.33,1364.25 2253.44,1364.29 2255.56,1364.32 2257.67,1364.35 2259.79,1364.38 2261.9,1364.42 2264.02,1364.45 2266.13,1364.48 2268.24,1364.51 
  2270.36,1364.55 2272.47,1364.58 2274.59,1364.61 2276.7,1364.65 2278.82,1364.68 2280.93,1364.71 2283.04,1364.74 2285.16,1364.78 2287.27,1364.81 2289.39,1364.84 
  
  "/>
<polyline clip-path="url(#clip7802)" style="stroke:#e26f46; stroke-width:8; stroke-opacity:1; fill:none" points="
  177.122,1442.82 179.237,1442.95 181.351,1443.07 183.466,1443.19 185.58,1443.32 187.694,1443.43 189.809,1443.55 191.923,1443.67 194.037,1443.78 196.152,1443.89 
  198.266,1444 200.381,1444.11 202.495,1444.22 204.609,1444.32 206.724,1444.42 208.838,1444.52 210.953,1444.62 213.067,1444.72 215.181,1444.81 217.296,1444.9 
  219.41,1444.99 221.524,1445.08 223.639,1445.17 225.753,1445.25 227.868,1445.33 229.982,1445.41 232.096,1445.49 234.211,1445.57 236.325,1445.64 238.439,1445.71 
  240.554,1445.78 242.668,1445.85 244.783,1445.91 246.897,1445.97 249.011,1446.03 251.126,1446.09 253.24,1446.15 255.354,1446.2 257.469,1446.25 259.583,1446.3 
  261.698,1446.34 263.812,1446.39 265.926,1446.43 268.041,1446.47 270.155,1446.5 272.27,1446.53 274.384,1446.56 276.498,1446.59 278.613,1446.62 280.727,1446.64 
  282.841,1446.66 284.956,1446.68 287.07,1446.69 289.185,1446.7 291.299,1446.71 293.413,1446.71 295.528,1446.71 297.642,1446.71 299.756,1446.71 301.871,1446.7 
  303.985,1446.69 306.1,1446.67 308.214,1446.66 310.328,1446.64 312.443,1446.61 314.557,1446.58 316.672,1446.55 318.786,1446.51 320.9,1446.48 323.015,1446.43 
  325.129,1446.39 327.243,1446.33 329.358,1446.28 331.472,1446.22 333.587,1446.16 335.701,1446.09 337.815,1446.02 339.93,1445.94 342.044,1445.86 344.158,1445.78 
  346.273,1445.69 348.387,1445.59 350.502,1445.49 352.616,1445.39 354.73,1445.28 356.845,1445.16 358.959,1445.04 361.073,1444.92 363.188,1444.78 365.302,1444.65 
  367.417,1444.51 369.531,1444.36 371.645,1444.2 373.76,1444.04 375.874,1443.87 377.989,1443.7 380.103,1443.52 382.217,1443.34 384.332,1443.14 386.446,1442.94 
  388.56,1442.74 390.675,1442.52 392.789,1442.3 394.904,1442.07 397.018,1441.83 399.132,1441.59 401.247,1441.34 403.361,1441.08 405.475,1440.81 407.59,1440.53 
  409.704,1440.24 411.819,1439.95 413.933,1439.64 416.047,1439.33 418.162,1439.01 420.276,1438.68 422.39,1438.34 424.505,1437.99 426.619,1437.63 428.734,1437.25 
  430.848,1436.87 432.962,1436.48 435.077,1436.08 437.191,1435.67 439.306,1435.24 441.42,1434.81 443.534,1434.36 445.649,1433.9 447.763,1433.44 449.877,1432.95 
  451.992,1432.46 454.106,1431.96 456.221,1431.44 458.335,1430.91 460.449,1430.37 462.564,1429.82 464.678,1429.26 466.792,1428.68 468.907,1428.09 471.021,1427.48 
  473.136,1426.87 475.25,1426.24 477.364,1425.6 479.479,1424.94 481.593,1424.28 483.708,1423.6 485.822,1422.9 487.936,1422.2 490.051,1421.48 492.165,1420.75 
  494.279,1420.01 496.394,1419.25 498.508,1418.48 500.623,1417.7 502.737,1416.91 504.851,1416.1 506.966,1415.29 509.08,1414.46 511.194,1413.62 513.309,1412.77 
  515.423,1411.91 517.538,1411.03 519.652,1410.15 521.766,1409.26 523.881,1408.35 525.995,1407.44 528.109,1406.52 530.224,1405.59 532.338,1404.65 534.453,1403.7 
  536.567,1402.74 538.681,1401.78 540.796,1400.81 542.91,1399.83 545.025,1398.85 547.139,1397.86 549.253,1396.86 551.368,1395.86 553.482,1394.86 555.596,1393.85 
  557.711,1392.84 559.825,1391.83 561.94,1390.81 564.054,1389.79 566.168,1388.77 568.283,1387.75 570.397,1386.73 572.511,1385.71 574.626,1384.69 576.74,1383.67 
  578.855,1382.65 580.969,1381.63 583.083,1380.61 585.198,1379.6 587.312,1378.59 589.427,1377.59 591.541,1376.58 593.655,1375.59 595.77,1374.59 597.884,1373.61 
  599.998,1372.62 602.113,1371.65 604.227,1370.68 606.342,1369.71 608.456,1368.76 610.57,1367.81 612.685,1366.87 614.799,1365.93 616.913,1365 619.028,1364.09 
  621.142,1363.18 623.257,1362.28 625.371,1361.38 627.485,1360.5 629.6,1359.63 631.714,1358.76 633.828,1357.91 635.943,1357.06 638.057,1356.23 640.172,1355.4 
  642.286,1354.59 644.4,1353.79 646.515,1352.99 648.629,1352.21 650.744,1351.43 652.858,1350.67 654.972,1349.92 657.087,1349.17 659.201,1348.44 661.315,1347.72 
  663.43,1347.01 665.544,1346.31 667.659,1345.63 669.773,1344.95 671.887,1344.28 674.002,1343.63 676.116,1342.99 678.23,1342.36 680.345,1341.74 682.459,1341.13 
  684.574,1340.53 686.688,1339.95 688.802,1339.37 690.917,1338.81 693.031,1338.27 695.146,1337.73 697.26,1337.21 699.374,1336.7 701.489,1336.2 703.603,1335.72 
  705.717,1335.25 707.832,1334.8 709.946,1334.36 712.061,1333.94 714.175,1333.53 716.289,1333.13 718.404,1332.76 720.518,1332.4 722.632,1332.05 724.747,1331.73 
  726.861,1331.42 728.976,1331.13 731.09,1330.86 733.204,1330.61 735.319,1330.38 737.433,1330.17 739.547,1329.98 741.662,1329.81 743.776,1329.66 745.891,1329.54 
  748.005,1329.44 750.119,1329.36 752.234,1329.31 754.348,1329.28 756.463,1329.28 758.577,1329.31 760.691,1329.36 762.806,1329.44 764.92,1329.54 767.034,1329.68 
  769.149,1329.84 771.263,1330.03 773.378,1330.25 775.492,1330.5 777.606,1330.78 779.721,1331.09 781.835,1331.43 783.949,1331.8 786.064,1332.21 788.178,1332.64 
  790.293,1333.11 792.407,1333.6 794.521,1334.13 796.636,1334.69 798.75,1335.28 800.864,1335.89 802.979,1336.55 805.093,1337.23 807.208,1337.94 809.322,1338.68 
  811.436,1339.45 813.551,1340.24 815.665,1341.07 817.78,1341.92 819.894,1342.8 822.008,1343.71 824.123,1344.64 826.237,1345.6 828.351,1346.58 830.466,1347.58 
  832.58,1348.6 834.695,1349.65 836.809,1350.72 838.923,1351.8 841.038,1352.9 843.152,1354.02 845.266,1355.15 847.381,1356.3 849.495,1357.46 851.61,1358.64 
  853.724,1359.82 855.838,1361.01 857.953,1362.21 860.067,1363.42 862.182,1364.64 864.296,1365.85 866.41,1367.07 868.525,1368.29 870.639,1369.51 872.753,1370.73 
  874.868,1371.95 876.982,1373.17 879.097,1374.37 881.211,1375.58 883.325,1376.77 885.44,1377.96 887.554,1379.13 889.668,1380.3 891.783,1381.45 893.897,1382.59 
  896.012,1383.71 898.126,1384.82 900.24,1385.91 902.355,1386.98 904.469,1388.04 906.583,1389.07 908.698,1390.08 910.812,1391.07 912.927,1392.04 915.041,1392.98 
  917.155,1393.9 919.27,1394.79 921.384,1395.66 923.499,1396.5 925.613,1397.31 927.727,1398.09 929.842,1398.84 931.956,1399.56 934.07,1400.25 936.185,1400.91 
  938.299,1401.54 940.414,1402.14 942.528,1402.7 944.642,1403.22 946.757,1403.72 948.871,1404.18 950.985,1404.6 953.1,1404.98 955.214,1405.34 957.329,1405.65 
  959.443,1405.93 961.557,1406.17 963.672,1406.37 965.786,1406.54 967.901,1406.66 970.015,1406.75 972.129,1406.81 974.244,1406.82 976.358,1406.8 978.472,1406.73 
  980.587,1406.64 982.701,1406.5 984.816,1406.33 986.93,1406.12 989.044,1405.88 991.159,1405.6 993.273,1405.29 995.387,1404.94 997.502,1404.57 999.616,1404.16 
  1001.73,1403.73 1003.84,1403.27 1005.96,1402.79 1008.07,1402.28 1010.19,1401.75 1012.3,1401.21 1014.42,1400.65 1016.53,1400.07 1018.65,1399.49 1020.76,1398.9 
  1022.87,1398.31 1024.99,1397.72 1027.1,1397.13 1029.22,1396.55 1031.33,1395.98 1033.45,1395.42 1035.56,1394.88 1037.68,1394.36 1039.79,1393.86 1041.9,1393.39 
  1044.02,1392.95 1046.13,1392.55 1048.25,1392.18 1050.36,1391.85 1052.48,1391.57 1054.59,1391.32 1056.7,1391.13 1058.82,1390.98 1060.93,1390.88 1063.05,1390.82 
  1065.16,1390.82 1067.28,1390.88 1069.39,1390.98 1071.51,1391.13 1073.62,1391.34 1075.73,1391.59 1077.85,1391.9 1079.96,1392.25 1082.08,1392.65 1084.19,1393.1 
  1086.31,1393.59 1088.42,1394.12 1090.53,1394.7 1092.65,1395.3 1094.76,1395.95 1096.88,1396.62 1098.99,1397.33 1101.11,1398.06 1103.22,1398.82 1105.34,1399.6 
  1107.45,1400.4 1109.56,1401.21 1111.68,1402.03 1113.79,1402.87 1115.91,1403.71 1118.02,1404.55 1120.14,1405.4 1122.25,1406.24 1124.36,1407.07 1126.48,1407.9 
  1128.59,1408.71 1130.71,1409.51 1132.82,1410.28 1134.94,1411.03 1137.05,1411.76 1139.17,1412.45 1141.28,1413.1 1143.39,1413.72 1145.51,1414.29 1147.62,1414.82 
  1149.74,1415.29 1151.85,1415.7 1153.97,1416.06 1156.08,1416.34 1158.19,1416.55 1160.31,1416.69 1162.42,1416.74 1164.54,1416.71 1166.65,1416.58 1168.77,1416.37 
  1170.88,1416.06 1173,1415.65 1175.11,1415.14 1177.22,1414.53 1179.34,1413.83 1181.45,1413.04 1183.57,1412.16 1185.68,1411.2 1187.8,1410.18 1189.91,1409.11 
  1192.02,1407.99 1194.14,1406.85 1196.25,1405.69 1198.37,1404.55 1200.48,1403.42 1202.6,1402.34 1204.71,1401.3 1206.83,1400.34 1208.94,1399.45 1211.05,1398.65 
  1213.17,1397.93 1215.28,1397.32 1217.4,1396.79 1219.51,1396.37 1221.63,1396.03 1223.74,1395.77 1225.85,1395.6 1227.97,1395.49 1230.08,1395.45 1232.2,1395.46 
  1234.31,1395.52 1236.43,1395.61 1238.54,1395.73 1240.66,1395.86 1242.77,1396.02 1244.88,1396.18 1247,1396.35 1249.11,1396.51 1251.23,1396.67 1253.34,1396.83 
  1255.46,1396.98 1257.57,1397.13 1259.68,1397.28 1261.8,1397.42 1263.91,1397.57 1266.03,1397.73 1268.14,1397.9 1270.26,1398.09 1272.37,1398.3 1274.49,1398.54 
  1276.6,1398.82 1278.71,1399.14 1280.83,1399.51 1282.94,1399.93 1285.06,1400.41 1287.17,1400.95 1289.29,1401.56 1291.4,1402.22 1293.52,1402.95 1295.63,1403.75 
  1297.74,1404.6 1299.86,1405.51 1301.97,1406.47 1304.09,1407.48 1306.2,1408.52 1308.32,1409.6 1310.43,1410.7 1312.54,1411.81 1314.66,1412.94 1316.77,1414.06 
  1318.89,1415.18 1321,1416.29 1323.12,1417.37 1325.23,1418.43 1327.35,1419.45 1329.46,1420.44 1331.57,1421.38 1333.69,1422.28 1335.8,1423.13 1337.92,1423.93 
  1340.03,1424.67 1342.15,1425.35 1344.26,1425.98 1346.37,1426.55 1348.49,1427.06 1350.6,1427.52 1352.72,1427.91 1354.83,1428.24 1356.95,1428.52 1359.06,1428.74 
  1361.18,1428.9 1363.29,1429 1365.4,1429.05 1367.52,1429.05 1369.63,1428.99 1371.75,1428.88 1373.86,1428.72 1375.98,1428.51 1378.09,1428.25 1380.2,1427.95 
  1382.32,1427.6 1384.43,1427.21 1386.55,1426.77 1388.66,1426.3 1390.78,1425.78 1392.89,1425.24 1395.01,1424.66 1397.12,1424.04 1399.23,1423.4 1401.35,1422.73 
  1403.46,1422.03 1405.58,1421.32 1407.69,1420.58 1409.81,1419.82 1411.92,1419.06 1414.03,1418.27 1416.15,1417.48 1418.26,1416.68 1420.38,1415.88 1422.49,1415.07 
  1424.61,1414.27 1426.72,1413.46 1428.84,1412.66 1430.95,1411.87 1433.06,1411.09 1435.18,1410.31 1437.29,1409.55 1439.41,1408.81 1441.52,1408.08 1443.64,1407.36 
  1445.75,1406.67 1447.86,1405.99 1449.98,1405.33 1452.09,1404.69 1454.21,1404.08 1456.32,1403.49 1458.44,1402.92 1460.55,1402.37 1462.67,1401.84 1464.78,1401.34 
  1466.89,1400.86 1469.01,1400.4 1471.12,1399.97 1473.24,1399.55 1475.35,1399.16 1477.47,1398.79 1479.58,1398.44 1481.69,1398.11 1483.81,1397.79 1485.92,1397.5 
  1488.04,1397.23 1490.15,1396.97 1492.27,1396.72 1494.38,1396.5 1496.5,1396.29 1498.61,1396.09 1500.72,1395.9 1502.84,1395.73 1504.95,1395.57 1507.07,1395.42 
  1509.18,1395.28 1511.3,1395.15 1513.41,1395.03 1515.52,1394.92 1517.64,1394.81 1519.75,1394.71 1521.87,1394.62 1523.98,1394.53 1526.1,1394.45 1528.21,1394.37 
  1530.33,1394.29 1532.44,1394.21 1534.55,1394.14 1536.67,1394.07 1538.78,1394 1540.9,1393.93 1543.01,1393.86 1545.13,1393.78 1547.24,1393.71 1549.35,1393.64 
  1551.47,1393.56 1553.58,1393.48 1555.7,1393.4 1557.81,1393.31 1559.93,1393.22 1562.04,1393.12 1564.16,1393.03 1566.27,1392.92 1568.38,1392.81 1570.5,1392.7 
  1572.61,1392.58 1574.73,1392.45 1576.84,1392.32 1578.96,1392.18 1581.07,1392.04 1583.19,1391.89 1585.3,1391.73 1587.41,1391.56 1589.53,1391.39 1591.64,1391.21 
  1593.76,1391.03 1595.87,1390.83 1597.99,1390.63 1600.1,1390.42 1602.21,1390.2 1604.33,1389.98 1606.44,1389.75 1608.56,1389.51 1610.67,1389.26 1612.79,1389.01 
  1614.9,1388.75 1617.02,1388.48 1619.13,1388.21 1621.24,1387.93 1623.36,1387.64 1625.47,1387.35 1627.59,1387.05 1629.7,1386.75 1631.82,1386.44 1633.93,1386.12 
  1636.04,1385.81 1638.16,1385.48 1640.27,1385.15 1642.39,1384.82 1644.5,1384.49 1646.62,1384.15 1648.73,1383.81 1650.85,1383.47 1652.96,1383.13 1655.07,1382.79 
  1657.19,1382.44 1659.3,1382.1 1661.42,1381.75 1663.53,1381.41 1665.65,1381.07 1667.76,1380.73 1669.87,1380.39 1671.99,1380.06 1674.1,1379.73 1676.22,1379.41 
  1678.33,1379.08 1680.45,1378.77 1682.56,1378.46 1684.68,1378.15 1686.79,1377.86 1688.9,1377.57 1691.02,1377.29 1693.13,1377.01 1695.25,1376.75 1697.36,1376.49 
  1699.48,1376.24 1701.59,1376.01 1703.7,1375.78 1705.82,1375.57 1707.93,1375.36 1710.05,1375.17 1712.16,1374.99 1714.28,1374.82 1716.39,1374.67 1718.51,1374.52 
  1720.62,1374.39 1722.73,1374.27 1724.85,1374.17 1726.96,1374.08 1729.08,1374 1731.19,1373.94 1733.31,1373.89 1735.42,1373.86 1737.53,1373.84 1739.65,1373.83 
  1741.76,1373.84 1743.88,1373.86 1745.99,1373.9 1748.11,1373.95 1750.22,1374.01 1752.34,1374.09 1754.45,1374.18 1756.56,1374.29 1758.68,1374.41 1760.79,1374.54 
  1762.91,1374.69 1765.02,1374.85 1767.14,1375.02 1769.25,1375.21 1771.36,1375.4 1773.48,1375.62 1775.59,1375.84 1777.71,1376.07 1779.82,1376.32 1781.94,1376.58 
  1784.05,1376.85 1786.17,1377.13 1788.28,1377.42 1790.39,1377.73 1792.51,1378.04 1794.62,1378.36 1796.74,1378.69 1798.85,1379.04 1800.97,1379.39 1803.08,1379.75 
  1805.19,1380.11 1807.31,1380.49 1809.42,1380.87 1811.54,1381.27 1813.65,1381.66 1815.77,1382.07 1817.88,1382.48 1820,1382.9 1822.11,1383.33 1824.22,1383.76 
  1826.34,1384.2 1828.45,1384.64 1830.57,1385.09 1832.68,1385.54 1834.8,1386 1836.91,1386.46 1839.03,1386.92 1841.14,1387.39 1843.25,1387.86 1845.37,1388.34 
  1847.48,1388.82 1849.6,1389.3 1851.71,1389.78 1853.83,1390.27 1855.94,1390.76 1858.05,1391.25 1860.17,1391.74 1862.28,1392.23 1864.4,1392.72 1866.51,1393.22 
  1868.63,1393.71 1870.74,1394.21 1872.86,1394.71 1874.97,1395.2 1877.08,1395.7 1879.2,1396.19 1881.31,1396.69 1883.43,1397.18 1885.54,1397.67 1887.66,1398.17 
  1889.77,1398.66 1891.88,1399.15 1894,1399.64 1896.11,1400.12 1898.23,1400.61 1900.34,1401.09 1902.46,1401.57 1904.57,1402.05 1906.69,1402.52 1908.8,1403 
  1910.91,1403.47 1913.03,1403.93 1915.14,1404.4 1917.26,1404.86 1919.37,1405.32 1921.49,1405.78 1923.6,1406.23 1925.71,1406.68 1927.83,1407.12 1929.94,1407.56 
  1932.06,1408 1934.17,1408.44 1936.29,1408.87 1938.4,1409.3 1940.52,1409.72 1942.63,1410.14 1944.74,1410.55 1946.86,1410.96 1948.97,1411.37 1951.09,1411.77 
  1953.2,1412.17 1955.32,1412.57 1957.43,1412.96 1959.54,1413.34 1961.66,1413.73 1963.77,1414.1 1965.89,1414.48 1968,1414.84 1970.12,1415.21 1972.23,1415.57 
  1974.35,1415.92 1976.46,1416.27 1978.57,1416.62 1980.69,1416.96 1982.8,1417.3 1984.92,1417.63 1987.03,1417.96 1989.15,1418.29 1991.26,1418.61 1993.37,1418.92 
  1995.49,1419.24 1997.6,1419.54 1999.72,1419.85 2001.83,1420.14 2003.95,1420.44 2006.06,1420.73 2008.18,1421.02 2010.29,1421.3 2012.4,1421.58 2014.52,1421.85 
  2016.63,1422.12 2018.75,1422.39 2020.86,1422.65 2022.98,1422.9 2025.09,1423.16 2027.2,1423.41 2029.32,1423.65 2031.43,1423.9 2033.55,1424.14 2035.66,1424.37 
  2037.78,1424.6 2039.89,1424.83 2042.01,1425.05 2044.12,1425.27 2046.23,1425.49 2048.35,1425.71 2050.46,1425.92 2052.58,1426.12 2054.69,1426.33 2056.81,1426.53 
  2058.92,1426.72 2061.03,1426.92 2063.15,1427.11 2065.26,1427.3 2067.38,1427.48 2069.49,1427.66 2071.61,1427.84 2073.72,1428.02 2075.84,1428.19 2077.95,1428.36 
  2080.06,1428.53 2082.18,1428.69 2084.29,1428.85 2086.41,1429.01 2088.52,1429.17 2090.64,1429.32 2092.75,1429.48 2094.86,1429.62 2096.98,1429.77 2099.09,1429.92 
  2101.21,1430.06 2103.32,1430.2 2105.44,1430.33 2107.55,1430.47 2109.67,1430.6 2111.78,1430.73 2113.89,1430.86 2116.01,1430.99 2118.12,1431.11 2120.24,1431.23 
  2122.35,1431.36 2124.47,1431.47 2126.58,1431.59 2128.7,1431.7 2130.81,1431.82 2132.92,1431.93 2135.04,1432.04 2137.15,1432.15 2139.27,1432.25 2141.38,1432.36 
  2143.5,1432.46 2145.61,1432.56 2147.72,1432.66 2149.84,1432.76 2151.95,1432.85 2154.07,1432.95 2156.18,1433.04 2158.3,1433.13 2160.41,1433.22 2162.53,1433.31 
  2164.64,1433.4 2166.75,1433.48 2168.87,1433.57 2170.98,1433.65 2173.1,1433.74 2175.21,1433.82 2177.33,1433.9 2179.44,1433.97 2181.55,1434.05 2183.67,1434.13 
  2185.78,1434.2 2187.9,1434.28 2190.01,1434.35 2192.13,1434.42 2194.24,1434.49 2196.36,1434.56 2198.47,1434.63 2200.58,1434.7 2202.7,1434.77 2204.81,1434.83 
  2206.93,1434.9 2209.04,1434.96 2211.16,1435.02 2213.27,1435.09 2215.38,1435.15 2217.5,1435.21 2219.61,1435.27 2221.73,1435.32 2223.84,1435.38 2225.96,1435.44 
  2228.07,1435.5 2230.19,1435.55 2232.3,1435.61 2234.41,1435.66 2236.53,1435.71 2238.64,1435.77 2240.76,1435.82 2242.87,1435.87 2244.99,1435.92 2247.1,1435.97 
  2249.21,1436.02 2251.33,1436.07 2253.44,1436.11 2255.56,1436.16 2257.67,1436.21 2259.79,1436.25 2261.9,1436.3 2264.02,1436.34 2266.13,1436.39 2268.24,1436.43 
  2270.36,1436.47 2272.47,1436.52 2274.59,1436.56 2276.7,1436.6 2278.82,1436.64 2280.93,1436.68 2283.04,1436.72 2285.16,1436.76 2287.27,1436.8 2289.39,1436.84 
  
  "/>
<polyline clip-path="url(#clip7802)" style="stroke:#3da44d; stroke-width:8; stroke-opacity:1; fill:none" points="
  177.122,931.325 179.237,933.217 181.351,935.123 183.466,937.042 185.58,938.975 187.694,940.921 189.809,942.88 191.923,944.854 194.037,946.842 196.152,948.845 
  198.266,950.862 200.381,952.894 202.495,954.94 204.609,957.003 206.724,959.08 208.838,961.174 210.953,963.283 213.067,965.408 215.181,967.55 217.296,969.708 
  219.41,971.882 221.524,974.074 223.639,976.283 225.753,978.509 227.868,980.752 229.982,983.013 232.096,985.292 234.211,987.589 236.325,989.904 238.439,992.237 
  240.554,994.589 242.668,996.959 244.783,999.349 246.897,1001.76 249.011,1004.18 251.126,1006.63 253.24,1009.1 255.354,1011.58 257.469,1014.09 259.583,1016.61 
  261.698,1019.16 263.812,1021.72 265.926,1024.31 268.041,1026.91 270.155,1029.53 272.27,1032.18 274.384,1034.84 276.498,1037.53 278.613,1040.23 280.727,1042.96 
  282.841,1045.7 284.956,1048.47 287.07,1051.25 289.185,1054.06 291.299,1056.88 293.413,1059.73 295.528,1062.59 297.642,1065.47 299.756,1068.38 301.871,1071.3 
  303.985,1074.24 306.1,1077.2 308.214,1080.18 310.328,1083.17 312.443,1086.19 314.557,1089.22 316.672,1092.27 318.786,1095.33 320.9,1098.42 323.015,1101.52 
  325.129,1104.63 327.243,1107.76 329.358,1110.91 331.472,1114.07 333.587,1117.24 335.701,1120.43 337.815,1123.63 339.93,1126.84 342.044,1130.07 344.158,1133.3 
  346.273,1136.55 348.387,1139.8 350.502,1143.07 352.616,1146.35 354.73,1149.63 356.845,1152.92 358.959,1156.21 361.073,1159.52 363.188,1162.82 365.302,1166.13 
  367.417,1169.45 369.531,1172.76 371.645,1176.08 373.76,1179.4 375.874,1182.72 377.989,1186.03 380.103,1189.35 382.217,1192.66 384.332,1195.97 386.446,1199.27 
  388.56,1202.57 390.675,1205.86 392.789,1209.15 394.904,1212.42 397.018,1215.69 399.132,1218.94 401.247,1222.18 403.361,1225.42 405.475,1228.63 407.59,1231.84 
  409.704,1235.02 411.819,1238.19 413.933,1241.35 416.047,1244.48 418.162,1247.6 420.276,1250.7 422.39,1253.78 424.505,1256.83 426.619,1259.86 428.734,1262.87 
  430.848,1265.86 432.962,1268.82 435.077,1271.75 437.191,1274.66 439.306,1277.54 441.42,1280.39 443.534,1283.21 445.649,1286.01 447.763,1288.77 449.877,1291.51 
  451.992,1294.21 454.106,1296.88 456.221,1299.52 458.335,1302.13 460.449,1304.71 462.564,1307.25 464.678,1309.75 466.792,1312.23 468.907,1314.67 471.021,1317.07 
  473.136,1319.44 475.25,1321.78 477.364,1324.08 479.479,1326.34 481.593,1328.57 483.708,1330.76 485.822,1332.92 487.936,1335.04 490.051,1337.12 492.165,1339.17 
  494.279,1341.18 496.394,1343.16 498.508,1345.1 500.623,1347.01 502.737,1348.88 504.851,1350.71 506.966,1352.51 509.08,1354.28 511.194,1356.01 513.309,1357.7 
  515.423,1359.37 517.538,1360.99 519.652,1362.59 521.766,1364.15 523.881,1365.67 525.995,1367.17 528.109,1368.63 530.224,1370.06 532.338,1371.45 534.453,1372.82 
  536.567,1374.16 538.681,1375.46 540.796,1376.73 542.91,1377.98 545.025,1379.19 547.139,1380.38 549.253,1381.53 551.368,1382.66 553.482,1383.76 555.596,1384.84 
  557.711,1385.88 559.825,1386.9 561.94,1387.89 564.054,1388.86 566.168,1389.8 568.283,1390.72 570.397,1391.61 572.511,1392.48 574.626,1393.33 576.74,1394.15 
  578.855,1394.94 580.969,1395.72 583.083,1396.47 585.198,1397.2 587.312,1397.91 589.427,1398.6 591.541,1399.27 593.655,1399.92 595.77,1400.54 597.884,1401.15 
  599.998,1401.74 602.113,1402.31 604.227,1402.86 606.342,1403.39 608.456,1403.9 610.57,1404.39 612.685,1404.87 614.799,1405.33 616.913,1405.78 619.028,1406.2 
  621.142,1406.61 623.257,1407 625.371,1407.38 627.485,1407.74 629.6,1408.09 631.714,1408.42 633.828,1408.74 635.943,1409.04 638.057,1409.32 640.172,1409.59 
  642.286,1409.85 644.4,1410.09 646.515,1410.32 648.629,1410.53 650.744,1410.73 652.858,1410.92 654.972,1411.09 657.087,1411.25 659.201,1411.4 661.315,1411.53 
  663.43,1411.66 665.544,1411.76 667.659,1411.86 669.773,1411.94 671.887,1412.01 674.002,1412.07 676.116,1412.11 678.23,1412.15 680.345,1412.17 682.459,1412.17 
  684.574,1412.17 686.688,1412.15 688.802,1412.13 690.917,1412.09 693.031,1412.03 695.146,1411.97 697.26,1411.89 699.374,1411.81 701.489,1411.71 703.603,1411.6 
  705.717,1411.47 707.832,1411.34 709.946,1411.19 712.061,1411.03 714.175,1410.86 716.289,1410.68 718.404,1410.49 720.518,1410.28 722.632,1410.07 724.747,1409.84 
  726.861,1409.6 728.976,1409.34 731.09,1409.08 733.204,1408.8 735.319,1408.52 737.433,1408.22 739.547,1407.91 741.662,1407.58 743.776,1407.25 745.891,1406.9 
  748.005,1406.54 750.119,1406.17 752.234,1405.79 754.348,1405.39 756.463,1404.98 758.577,1404.56 760.691,1404.13 762.806,1403.69 764.92,1403.23 767.034,1402.76 
  769.149,1402.28 771.263,1401.79 773.378,1401.28 775.492,1400.76 777.606,1400.23 779.721,1399.68 781.835,1399.12 783.949,1398.55 786.064,1397.97 788.178,1397.37 
  790.293,1396.76 792.407,1396.13 794.521,1395.49 796.636,1394.84 798.75,1394.17 800.864,1393.49 802.979,1392.8 805.093,1392.09 807.208,1391.36 809.322,1390.62 
  811.436,1389.87 813.551,1389.1 815.665,1388.32 817.78,1387.52 819.894,1386.71 822.008,1385.87 824.123,1385.03 826.237,1384.16 828.351,1383.29 830.466,1382.39 
  832.58,1381.48 834.695,1380.55 836.809,1379.6 838.923,1378.63 841.038,1377.65 843.152,1376.65 845.266,1375.63 847.381,1374.59 849.495,1373.53 851.61,1372.45 
  853.724,1371.35 855.838,1370.24 857.953,1369.1 860.067,1367.94 862.182,1366.76 864.296,1365.56 866.41,1364.34 868.525,1363.1 870.639,1361.83 872.753,1360.55 
  874.868,1359.24 876.982,1357.9 879.097,1356.55 881.211,1355.17 883.325,1353.77 885.44,1352.34 887.554,1350.89 889.668,1349.41 891.783,1347.91 893.897,1346.39 
  896.012,1344.84 898.126,1343.26 900.24,1341.67 902.355,1340.04 904.469,1338.39 906.583,1336.71 908.698,1335.01 910.812,1333.29 912.927,1331.53 915.041,1329.75 
  917.155,1327.95 919.27,1326.12 921.384,1324.27 923.499,1322.39 925.613,1320.49 927.727,1318.56 929.842,1316.61 931.956,1314.63 934.07,1312.63 936.185,1310.61 
  938.299,1308.56 940.414,1306.49 942.528,1304.4 944.642,1302.29 946.757,1300.16 948.871,1298 950.985,1295.83 953.1,1293.64 955.214,1291.43 957.329,1289.21 
  959.443,1286.96 961.557,1284.7 963.672,1282.42 965.786,1280.13 967.901,1277.83 970.015,1275.5 972.129,1273.17 974.244,1270.82 976.358,1268.46 978.472,1266.09 
  980.587,1263.7 982.701,1261.31 984.816,1258.9 986.93,1256.48 989.044,1254.04 991.159,1251.6 993.273,1249.14 995.387,1246.67 997.502,1244.18 999.616,1241.69 
  1001.73,1239.17 1003.84,1236.65 1005.96,1234.1 1008.07,1231.54 1010.19,1228.96 1012.3,1226.36 1014.42,1223.73 1016.53,1221.09 1018.65,1218.42 1020.76,1215.73 
  1022.87,1213.01 1024.99,1210.26 1027.1,1207.49 1029.22,1204.68 1031.33,1201.84 1033.45,1198.97 1035.56,1196.07 1037.68,1193.13 1039.79,1190.16 1041.9,1187.16 
  1044.02,1184.12 1046.13,1181.05 1048.25,1177.94 1050.36,1174.81 1052.48,1171.65 1054.59,1168.46 1056.7,1165.25 1058.82,1162.03 1060.93,1158.8 1063.05,1155.56 
  1065.16,1152.33 1067.28,1149.1 1069.39,1145.91 1071.51,1142.75 1073.62,1139.64 1075.73,1136.59 1077.85,1133.63 1079.96,1130.77 1082.08,1128.04 1084.19,1125.46 
  1086.31,1123.05 1088.42,1120.86 1090.53,1118.9 1092.65,1117.22 1094.76,1115.86 1096.88,1114.85 1098.99,1114.23 1101.11,1114.06 1103.22,1114.37 1105.34,1115.21 
  1107.45,1116.63 1109.56,1118.66 1111.68,1121.35 1113.79,1124.72 1115.91,1128.82 1118.02,1133.66 1120.14,1139.25 1122.25,1145.59 1124.36,1152.67 1126.48,1160.45 
  1128.59,1168.91 1130.71,1177.98 1132.82,1187.6 1134.94,1197.68 1137.05,1208.12 1139.17,1218.84 1141.28,1229.73 1143.39,1240.67 1145.51,1251.56 1147.62,1262.31 
  1149.74,1272.82 1151.85,1283.01 1153.97,1292.82 1156.08,1302.18 1158.19,1311.05 1160.31,1319.41 1162.42,1327.23 1164.54,1334.52 1166.65,1341.28 1168.77,1347.51 
  1170.88,1353.23 1173,1358.47 1175.11,1363.25 1177.22,1367.59 1179.34,1371.53 1181.45,1375.08 1183.57,1378.28 1185.68,1381.15 1187.8,1383.71 1189.91,1385.98 
  1192.02,1387.99 1194.14,1389.75 1196.25,1391.28 1198.37,1392.6 1200.48,1393.72 1202.6,1394.66 1204.71,1395.43 1206.83,1396.04 1208.94,1396.51 1211.05,1396.85 
  1213.17,1397.08 1215.28,1397.2 1217.4,1397.22 1219.51,1397.17 1221.63,1397.04 1223.74,1396.86 1225.85,1396.63 1227.97,1396.36 1230.08,1396.07 1232.2,1395.77 
  1234.31,1395.46 1236.43,1395.16 1238.54,1394.88 1240.66,1394.62 1242.77,1394.4 1244.88,1394.22 1247,1394.08 1249.11,1393.99 1251.23,1393.96 1253.34,1393.98 
  1255.46,1394.06 1257.57,1394.2 1259.68,1394.4 1261.8,1394.65 1263.91,1394.96 1266.03,1395.31 1268.14,1395.7 1270.26,1396.13 1272.37,1396.59 1274.49,1397.07 
  1276.6,1397.56 1278.71,1398.06 1280.83,1398.57 1282.94,1399.07 1285.06,1399.56 1287.17,1400.03 1289.29,1400.47 1291.4,1400.89 1293.52,1401.28 1295.63,1401.63 
  1297.74,1401.95 1299.86,1402.22 1301.97,1402.46 1304.09,1402.65 1306.2,1402.8 1308.32,1402.91 1310.43,1402.98 1312.54,1403 1314.66,1402.99 1316.77,1402.94 
  1318.89,1402.85 1321,1402.73 1323.12,1402.58 1325.23,1402.39 1327.35,1402.18 1329.46,1401.94 1331.57,1401.68 1333.69,1401.4 1335.8,1401.1 1337.92,1400.79 
  1340.03,1400.46 1342.15,1400.12 1344.26,1399.77 1346.37,1399.41 1348.49,1399.05 1350.6,1398.68 1352.72,1398.31 1354.83,1397.94 1356.95,1397.56 1359.06,1397.19 
  1361.18,1396.83 1363.29,1396.46 1365.4,1396.1 1367.52,1395.75 1369.63,1395.4 1371.75,1395.06 1373.86,1394.72 1375.98,1394.39 1378.09,1394.06 1380.2,1393.74 
  1382.32,1393.43 1384.43,1393.12 1386.55,1392.82 1388.66,1392.52 1390.78,1392.22 1392.89,1391.94 1395.01,1391.65 1397.12,1391.36 1399.23,1391.08 1401.35,1390.8 
  1403.46,1390.52 1405.58,1390.24 1407.69,1389.97 1409.81,1389.69 1411.92,1389.4 1414.03,1389.12 1416.15,1388.84 1418.26,1388.55 1420.38,1388.25 1422.49,1387.96 
  1424.61,1387.66 1426.72,1387.35 1428.84,1387.04 1430.95,1386.73 1433.06,1386.41 1435.18,1386.08 1437.29,1385.75 1439.41,1385.41 1441.52,1385.06 1443.64,1384.71 
  1445.75,1384.36 1447.86,1383.99 1449.98,1383.62 1452.09,1383.24 1454.21,1382.86 1456.32,1382.47 1458.44,1382.08 1460.55,1381.67 1462.67,1381.26 1464.78,1380.85 
  1466.89,1380.43 1469.01,1380 1471.12,1379.57 1473.24,1379.13 1475.35,1378.69 1477.47,1378.24 1479.58,1377.78 1481.69,1377.32 1483.81,1376.86 1485.92,1376.39 
  1488.04,1375.92 1490.15,1375.44 1492.27,1374.96 1494.38,1374.47 1496.5,1373.98 1498.61,1373.49 1500.72,1372.99 1502.84,1372.49 1504.95,1371.99 1507.07,1371.48 
  1509.18,1370.97 1511.3,1370.46 1513.41,1369.95 1515.52,1369.43 1517.64,1368.91 1519.75,1368.39 1521.87,1367.87 1523.98,1367.35 1526.1,1366.83 1528.21,1366.3 
  1530.33,1365.77 1532.44,1365.25 1534.55,1364.72 1536.67,1364.19 1538.78,1363.66 1540.9,1363.13 1543.01,1362.6 1545.13,1362.07 1547.24,1361.54 1549.35,1361.01 
  1551.47,1360.49 1553.58,1359.96 1555.7,1359.43 1557.81,1358.91 1559.93,1358.38 1562.04,1357.86 1564.16,1357.34 1566.27,1356.82 1568.38,1356.3 1570.5,1355.78 
  1572.61,1355.27 1574.73,1354.76 1576.84,1354.25 1578.96,1353.74 1581.07,1353.24 1583.19,1352.74 1585.3,1352.24 1587.41,1351.74 1589.53,1351.25 1591.64,1350.76 
  1593.76,1350.28 1595.87,1349.79 1597.99,1349.32 1600.1,1348.84 1602.21,1348.37 1604.33,1347.9 1606.44,1347.44 1608.56,1346.98 1610.67,1346.53 1612.79,1346.08 
  1614.9,1345.64 1617.02,1345.2 1619.13,1344.76 1621.24,1344.33 1623.36,1343.91 1625.47,1343.49 1627.59,1343.08 1629.7,1342.67 1631.82,1342.27 1633.93,1341.87 
  1636.04,1341.48 1638.16,1341.1 1640.27,1340.72 1642.39,1340.35 1644.5,1339.98 1646.62,1339.62 1648.73,1339.27 1650.85,1338.92 1652.96,1338.58 1655.07,1338.25 
  1657.19,1337.92 1659.3,1337.6 1661.42,1337.29 1663.53,1336.99 1665.65,1336.69 1667.76,1336.4 1669.87,1336.12 1671.99,1335.84 1674.1,1335.58 1676.22,1335.32 
  1678.33,1335.07 1680.45,1334.82 1682.56,1334.59 1684.68,1334.36 1686.79,1334.14 1688.9,1333.93 1691.02,1333.73 1693.13,1333.54 1695.25,1333.36 1697.36,1333.18 
  1699.48,1333.02 1701.59,1332.86 1703.7,1332.72 1705.82,1332.58 1707.93,1332.45 1710.05,1332.33 1712.16,1332.22 1714.28,1332.12 1716.39,1332.03 1718.51,1331.95 
  1720.62,1331.89 1722.73,1331.83 1724.85,1331.78 1726.96,1331.74 1729.08,1331.71 1731.19,1331.69 1733.31,1331.69 1735.42,1331.69 1737.53,1331.71 1739.65,1331.73 
  1741.76,1331.77 1743.88,1331.82 1745.99,1331.88 1748.11,1331.95 1750.22,1332.03 1752.34,1332.13 1754.45,1332.23 1756.56,1332.35 1758.68,1332.48 1760.79,1332.62 
  1762.91,1332.77 1765.02,1332.93 1767.14,1333.11 1769.25,1333.29 1771.36,1333.49 1773.48,1333.7 1775.59,1333.93 1777.71,1334.16 1779.82,1334.41 1781.94,1334.66 
  1784.05,1334.93 1786.17,1335.22 1788.28,1335.51 1790.39,1335.81 1792.51,1336.13 1794.62,1336.46 1796.74,1336.8 1798.85,1337.15 1800.97,1337.52 1803.08,1337.89 
  1805.19,1338.28 1807.31,1338.68 1809.42,1339.08 1811.54,1339.5 1813.65,1339.93 1815.77,1340.37 1817.88,1340.83 1820,1341.29 1822.11,1341.76 1824.22,1342.24 
  1826.34,1342.73 1828.45,1343.23 1830.57,1343.75 1832.68,1344.27 1834.8,1344.8 1836.91,1345.33 1839.03,1345.88 1841.14,1346.44 1843.25,1347 1845.37,1347.57 
  1847.48,1348.15 1849.6,1348.74 1851.71,1349.33 1853.83,1349.93 1855.94,1350.54 1858.05,1351.15 1860.17,1351.77 1862.28,1352.4 1864.4,1353.03 1866.51,1353.66 
  1868.63,1354.31 1870.74,1354.95 1872.86,1355.6 1874.97,1356.25 1877.08,1356.91 1879.2,1357.57 1881.31,1358.23 1883.43,1358.9 1885.54,1359.57 1887.66,1360.24 
  1889.77,1360.91 1891.88,1361.58 1894,1362.26 1896.11,1362.93 1898.23,1363.61 1900.34,1364.28 1902.46,1364.96 1904.57,1365.63 1906.69,1366.31 1908.8,1366.98 
  1910.91,1367.65 1913.03,1368.33 1915.14,1368.99 1917.26,1369.66 1919.37,1370.32 1921.49,1370.99 1923.6,1371.65 1925.71,1372.3 1927.83,1372.95 1929.94,1373.6 
  1932.06,1374.25 1934.17,1374.89 1936.29,1375.52 1938.4,1376.16 1940.52,1376.78 1942.63,1377.41 1944.74,1378.02 1946.86,1378.63 1948.97,1379.24 1951.09,1379.84 
  1953.2,1380.44 1955.32,1381.03 1957.43,1381.61 1959.54,1382.19 1961.66,1382.76 1963.77,1383.33 1965.89,1383.89 1968,1384.44 1970.12,1384.99 1972.23,1385.53 
  1974.35,1386.06 1976.46,1386.58 1978.57,1387.1 1980.69,1387.62 1982.8,1388.12 1984.92,1388.62 1987.03,1389.11 1989.15,1389.6 1991.26,1390.07 1993.37,1390.54 
  1995.49,1391.01 1997.6,1391.46 1999.72,1391.91 2001.83,1392.35 2003.95,1392.79 2006.06,1393.22 2008.18,1393.64 2010.29,1394.05 2012.4,1394.46 2014.52,1394.86 
  2016.63,1395.25 2018.75,1395.63 2020.86,1396.01 2022.98,1396.39 2025.09,1396.75 2027.2,1397.11 2029.32,1397.46 2031.43,1397.81 2033.55,1398.15 2035.66,1398.48 
  2037.78,1398.81 2039.89,1399.13 2042.01,1399.44 2044.12,1399.75 2046.23,1400.05 2048.35,1400.34 2050.46,1400.63 2052.58,1400.92 2054.69,1401.2 2056.81,1401.47 
  2058.92,1401.73 2061.03,1401.99 2063.15,1402.25 2065.26,1402.5 2067.38,1402.74 2069.49,1402.98 2071.61,1403.22 2073.72,1403.44 2075.84,1403.67 2077.95,1403.89 
  2080.06,1404.1 2082.18,1404.31 2084.29,1404.51 2086.41,1404.71 2088.52,1404.91 2090.64,1405.1 2092.75,1405.28 2094.86,1405.47 2096.98,1405.64 2099.09,1405.82 
  2101.21,1405.99 2103.32,1406.15 2105.44,1406.31 2107.55,1406.47 2109.67,1406.62 2111.78,1406.77 2113.89,1406.92 2116.01,1407.06 2118.12,1407.2 2120.24,1407.33 
  2122.35,1407.47 2124.47,1407.59 2126.58,1407.72 2128.7,1407.84 2130.81,1407.96 2132.92,1408.08 2135.04,1408.19 2137.15,1408.3 2139.27,1408.41 2141.38,1408.51 
  2143.5,1408.61 2145.61,1408.71 2147.72,1408.81 2149.84,1408.9 2151.95,1408.99 2154.07,1409.08 2156.18,1409.16 2158.3,1409.25 2160.41,1409.33 2162.53,1409.41 
  2164.64,1409.48 2166.75,1409.56 2168.87,1409.63 2170.98,1409.7 2173.1,1409.77 2175.21,1409.84 2177.33,1409.9 2179.44,1409.96 2181.55,1410.02 2183.67,1410.08 
  2185.78,1410.14 2187.9,1410.19 2190.01,1410.25 2192.13,1410.3 2194.24,1410.35 2196.36,1410.4 2198.47,1410.44 2200.58,1410.49 2202.7,1410.53 2204.81,1410.58 
  2206.93,1410.62 2209.04,1410.66 2211.16,1410.7 2213.27,1410.73 2215.38,1410.77 2217.5,1410.8 2219.61,1410.84 2221.73,1410.87 2223.84,1410.9 2225.96,1410.93 
  2228.07,1410.96 2230.19,1410.99 2232.3,1411.02 2234.41,1411.04 2236.53,1411.07 2238.64,1411.09 2240.76,1411.11 2242.87,1411.13 2244.99,1411.16 2247.1,1411.18 
  2249.21,1411.2 2251.33,1411.21 2253.44,1411.23 2255.56,1411.25 2257.67,1411.26 2259.79,1411.28 2261.9,1411.3 2264.02,1411.31 2266.13,1411.32 2268.24,1411.34 
  2270.36,1411.35 2272.47,1411.36 2274.59,1411.37 2276.7,1411.38 2278.82,1411.39 2280.93,1411.4 2283.04,1411.41 2285.16,1411.42 2287.27,1411.42 2289.39,1411.43 
  
  "/>
<polyline clip-path="url(#clip7802)" style="stroke:#c271d2; stroke-width:8; stroke-opacity:1; fill:none" points="
  177.122,1388.61 179.237,1388.9 181.351,1389.19 183.466,1389.47 185.58,1389.76 187.694,1390.04 189.809,1390.32 191.923,1390.59 194.037,1390.87 196.152,1391.14 
  198.266,1391.41 200.381,1391.67 202.495,1391.94 204.609,1392.2 206.724,1392.46 208.838,1392.71 210.953,1392.96 213.067,1393.22 215.181,1393.46 217.296,1393.71 
  219.41,1393.95 221.524,1394.19 223.639,1394.43 225.753,1394.66 227.868,1394.89 229.982,1395.12 232.096,1395.35 234.211,1395.57 236.325,1395.79 238.439,1396.01 
  240.554,1396.22 242.668,1396.43 244.783,1396.64 246.897,1396.85 249.011,1397.05 251.126,1397.25 253.24,1397.44 255.354,1397.64 257.469,1397.82 259.583,1398.01 
  261.698,1398.19 263.812,1398.37 265.926,1398.55 268.041,1398.72 270.155,1398.89 272.27,1399.05 274.384,1399.22 276.498,1399.37 278.613,1399.53 280.727,1399.68 
  282.841,1399.83 284.956,1399.97 287.07,1400.11 289.185,1400.25 291.299,1400.38 293.413,1400.51 295.528,1400.63 297.642,1400.75 299.756,1400.87 301.871,1400.98 
  303.985,1401.09 306.1,1401.2 308.214,1401.3 310.328,1401.39 312.443,1401.49 314.557,1401.57 316.672,1401.66 318.786,1401.74 320.9,1401.81 323.015,1401.88 
  325.129,1401.95 327.243,1402.01 329.358,1402.07 331.472,1402.12 333.587,1402.17 335.701,1402.22 337.815,1402.26 339.93,1402.29 342.044,1402.32 344.158,1402.34 
  346.273,1402.36 348.387,1402.38 350.502,1402.39 352.616,1402.4 354.73,1402.4 356.845,1402.39 358.959,1402.38 361.073,1402.37 363.188,1402.35 365.302,1402.33 
  367.417,1402.3 369.531,1402.26 371.645,1402.22 373.76,1402.18 375.874,1402.13 377.989,1402.07 380.103,1402.01 382.217,1401.95 384.332,1401.88 386.446,1401.8 
  388.56,1401.72 390.675,1401.63 392.789,1401.54 394.904,1401.44 397.018,1401.34 399.132,1401.23 401.247,1401.12 403.361,1401 405.475,1400.87 407.59,1400.74 
  409.704,1400.61 411.819,1400.47 413.933,1400.32 416.047,1400.17 418.162,1400.02 420.276,1399.86 422.39,1399.69 424.505,1399.52 426.619,1399.35 428.734,1399.17 
  430.848,1398.98 432.962,1398.79 435.077,1398.59 437.191,1398.39 439.306,1398.19 441.42,1397.98 443.534,1397.77 445.649,1397.55 447.763,1397.33 449.877,1397.1 
  451.992,1396.87 454.106,1396.63 456.221,1396.39 458.335,1396.15 460.449,1395.9 462.564,1395.65 464.678,1395.4 466.792,1395.14 468.907,1394.88 471.021,1394.62 
  473.136,1394.35 475.25,1394.08 477.364,1393.81 479.479,1393.54 481.593,1393.26 483.708,1392.98 485.822,1392.7 487.936,1392.42 490.051,1392.14 492.165,1391.85 
  494.279,1391.56 496.394,1391.28 498.508,1390.99 500.623,1390.7 502.737,1390.41 504.851,1390.12 506.966,1389.83 509.08,1389.54 511.194,1389.25 513.309,1388.96 
  515.423,1388.67 517.538,1388.38 519.652,1388.1 521.766,1387.81 523.881,1387.53 525.995,1387.25 528.109,1386.97 530.224,1386.7 532.338,1386.42 534.453,1386.15 
  536.567,1385.88 538.681,1385.62 540.796,1385.36 542.91,1385.1 545.025,1384.85 547.139,1384.6 549.253,1384.35 551.368,1384.11 553.482,1383.87 555.596,1383.64 
  557.711,1383.42 559.825,1383.2 561.94,1382.98 564.054,1382.77 566.168,1382.57 568.283,1382.37 570.397,1382.18 572.511,1382 574.626,1381.82 576.74,1381.65 
  578.855,1381.48 580.969,1381.33 583.083,1381.18 585.198,1381.04 587.312,1380.9 589.427,1380.77 591.541,1380.65 593.655,1380.54 595.77,1380.44 597.884,1380.34 
  599.998,1380.26 602.113,1380.18 604.227,1380.11 606.342,1380.04 608.456,1379.99 610.57,1379.95 612.685,1379.91 614.799,1379.88 616.913,1379.86 619.028,1379.85 
  621.142,1379.85 623.257,1379.86 625.371,1379.88 627.485,1379.9 629.6,1379.93 631.714,1379.98 633.828,1380.03 635.943,1380.09 638.057,1380.16 640.172,1380.23 
  642.286,1380.32 644.4,1380.41 646.515,1380.51 648.629,1380.62 650.744,1380.74 652.858,1380.87 654.972,1381 657.087,1381.14 659.201,1381.29 661.315,1381.45 
  663.43,1381.61 665.544,1381.79 667.659,1381.96 669.773,1382.15 671.887,1382.34 674.002,1382.54 676.116,1382.74 678.23,1382.95 680.345,1383.16 682.459,1383.39 
  684.574,1383.61 686.688,1383.84 688.802,1384.08 690.917,1384.32 693.031,1384.56 695.146,1384.8 697.26,1385.06 699.374,1385.31 701.489,1385.56 703.603,1385.82 
  705.717,1386.08 707.832,1386.34 709.946,1386.61 712.061,1386.87 714.175,1387.14 716.289,1387.4 718.404,1387.67 720.518,1387.93 722.632,1388.2 724.747,1388.46 
  726.861,1388.72 728.976,1388.98 731.09,1389.24 733.204,1389.49 735.319,1389.74 737.433,1389.99 739.547,1390.24 741.662,1390.48 743.776,1390.71 745.891,1390.94 
  748.005,1391.17 750.119,1391.39 752.234,1391.6 754.348,1391.81 756.463,1392.01 758.577,1392.2 760.691,1392.38 762.806,1392.56 764.92,1392.73 767.034,1392.89 
  769.149,1393.04 771.263,1393.18 773.378,1393.32 775.492,1393.44 777.606,1393.55 779.721,1393.65 781.835,1393.74 783.949,1393.82 786.064,1393.89 788.178,1393.95 
  790.293,1393.99 792.407,1394.02 794.521,1394.04 796.636,1394.05 798.75,1394.04 800.864,1394.02 802.979,1393.99 805.093,1393.94 807.208,1393.88 809.322,1393.81 
  811.436,1393.72 813.551,1393.62 815.665,1393.5 817.78,1393.36 819.894,1393.22 822.008,1393.05 824.123,1392.87 826.237,1392.68 828.351,1392.47 830.466,1392.24 
  832.58,1392 834.695,1391.74 836.809,1391.47 838.923,1391.18 841.038,1390.88 843.152,1390.56 845.266,1390.22 847.381,1389.87 849.495,1389.5 851.61,1389.11 
  853.724,1388.72 855.838,1388.3 857.953,1387.87 860.067,1387.43 862.182,1386.97 864.296,1386.5 866.41,1386.01 868.525,1385.51 870.639,1384.99 872.753,1384.47 
  874.868,1383.93 876.982,1383.38 879.097,1382.82 881.211,1382.25 883.325,1381.67 885.44,1381.08 887.554,1380.48 889.668,1379.88 891.783,1379.27 893.897,1378.66 
  896.012,1378.05 898.126,1377.43 900.24,1376.81 902.355,1376.2 904.469,1375.58 906.583,1374.98 908.698,1374.37 910.812,1373.78 912.927,1373.2 915.041,1372.63 
  917.155,1372.07 919.27,1371.53 921.384,1371 923.499,1370.5 925.613,1370.02 927.727,1369.57 929.842,1369.15 931.956,1368.75 934.07,1368.39 936.185,1368.07 
  938.299,1367.78 940.414,1367.53 942.528,1367.33 944.642,1367.17 946.757,1367.06 948.871,1366.99 950.985,1366.98 953.1,1367.02 955.214,1367.12 957.329,1367.27 
  959.443,1367.48 961.557,1367.74 963.672,1368.07 965.786,1368.45 967.901,1368.89 970.015,1369.39 972.129,1369.95 974.244,1370.57 976.358,1371.24 978.472,1371.96 
  980.587,1372.74 982.701,1373.56 984.816,1374.44 986.93,1375.36 989.044,1376.32 991.159,1377.32 993.273,1378.35 995.387,1379.41 997.502,1380.5 999.616,1381.62 
  1001.73,1382.75 1003.84,1383.9 1005.96,1385.06 1008.07,1386.22 1010.19,1387.39 1012.3,1388.56 1014.42,1389.72 1016.53,1390.87 1018.65,1392.01 1020.76,1393.13 
  1022.87,1394.24 1024.99,1395.32 1027.1,1396.38 1029.22,1397.41 1031.33,1398.41 1033.45,1399.38 1035.56,1400.31 1037.68,1401.21 1039.79,1402.07 1041.9,1402.9 
  1044.02,1403.68 1046.13,1404.43 1048.25,1405.13 1050.36,1405.79 1052.48,1406.41 1054.59,1406.99 1056.7,1407.53 1058.82,1408.02 1060.93,1408.47 1063.05,1408.88 
  1065.16,1409.25 1067.28,1409.57 1069.39,1409.85 1071.51,1410.09 1073.62,1410.29 1075.73,1410.45 1077.85,1410.57 1079.96,1410.64 1082.08,1410.68 1084.19,1410.67 
  1086.31,1410.62 1088.42,1410.53 1090.53,1410.4 1092.65,1410.23 1094.76,1410.02 1096.88,1409.76 1098.99,1409.46 1101.11,1409.11 1103.22,1408.72 1105.34,1408.29 
  1107.45,1407.8 1109.56,1407.27 1111.68,1406.69 1113.79,1406.05 1115.91,1405.36 1118.02,1404.62 1120.14,1403.82 1122.25,1402.96 1124.36,1402.04 1126.48,1401.07 
  1128.59,1400.03 1130.71,1398.93 1132.82,1397.77 1134.94,1396.56 1137.05,1395.28 1139.17,1393.95 1141.28,1392.58 1143.39,1391.16 1145.51,1389.7 1147.62,1388.21 
  1149.74,1386.7 1151.85,1385.17 1153.97,1383.64 1156.08,1382.12 1158.19,1380.62 1160.31,1379.14 1162.42,1377.7 1164.54,1376.31 1166.65,1374.97 1168.77,1373.69 
  1170.88,1372.48 1173,1371.34 1175.11,1370.27 1177.22,1369.27 1179.34,1368.35 1181.45,1367.49 1183.57,1366.71 1185.68,1366 1187.8,1365.35 1189.91,1364.77 
  1192.02,1364.24 1194.14,1363.78 1196.25,1363.37 1198.37,1363.01 1200.48,1362.71 1202.6,1362.45 1204.71,1362.25 1206.83,1362.1 1208.94,1362 1211.05,1361.96 
  1213.17,1361.96 1215.28,1362.02 1217.4,1362.13 1219.51,1362.29 1221.63,1362.51 1223.74,1362.78 1225.85,1363.11 1227.97,1363.5 1230.08,1363.95 1232.2,1364.45 
  1234.31,1365.01 1236.43,1365.63 1238.54,1366.31 1240.66,1367.04 1242.77,1367.82 1244.88,1368.65 1247,1369.52 1249.11,1370.44 1251.23,1371.4 1253.34,1372.4 
  1255.46,1373.42 1257.57,1374.46 1259.68,1375.52 1261.8,1376.59 1263.91,1377.66 1266.03,1378.72 1268.14,1379.77 1270.26,1380.8 1272.37,1381.8 1274.49,1382.77 
  1276.6,1383.69 1278.71,1384.57 1280.83,1385.39 1282.94,1386.14 1285.06,1386.83 1287.17,1387.45 1289.29,1387.99 1291.4,1388.45 1293.52,1388.82 1295.63,1389.11 
  1297.74,1389.31 1299.86,1389.42 1301.97,1389.44 1304.09,1389.37 1306.2,1389.21 1308.32,1388.95 1310.43,1388.59 1312.54,1388.15 1314.66,1387.61 1316.77,1386.98 
  1318.89,1386.26 1321,1385.45 1323.12,1384.55 1325.23,1383.56 1327.35,1382.48 1329.46,1381.31 1331.57,1380.06 1333.69,1378.72 1335.8,1377.3 1337.92,1375.8 
  1340.03,1374.21 1342.15,1372.54 1344.26,1370.8 1346.37,1368.97 1348.49,1367.08 1350.6,1365.1 1352.72,1363.05 1354.83,1360.93 1356.95,1358.75 1359.06,1356.49 
  1361.18,1354.17 1363.29,1351.79 1365.4,1349.34 1367.52,1346.84 1369.63,1344.29 1371.75,1341.69 1373.86,1339.04 1375.98,1336.35 1378.09,1333.62 1380.2,1330.86 
  1382.32,1328.07 1384.43,1325.26 1386.55,1322.43 1388.66,1319.59 1390.78,1316.75 1392.89,1313.91 1395.01,1311.08 1397.12,1308.26 1399.23,1305.46 1401.35,1302.69 
  1403.46,1299.96 1405.58,1297.27 1407.69,1294.62 1409.81,1292.03 1411.92,1289.5 1414.03,1287.04 1416.15,1284.64 1418.26,1282.33 1420.38,1280.1 1422.49,1277.95 
  1424.61,1275.89 1426.72,1273.93 1428.84,1272.07 1430.95,1270.31 1433.06,1268.65 1435.18,1267.1 1437.29,1265.65 1439.41,1264.32 1441.52,1263.09 1443.64,1261.96 
  1445.75,1260.95 1447.86,1260.05 1449.98,1259.25 1452.09,1258.56 1454.21,1257.98 1456.32,1257.5 1458.44,1257.12 1460.55,1256.84 1462.67,1256.66 1464.78,1256.57 
  1466.89,1256.58 1469.01,1256.68 1471.12,1256.86 1473.24,1257.14 1475.35,1257.49 1477.47,1257.92 1479.58,1258.44 1481.69,1259.02 1483.81,1259.69 1485.92,1260.42 
  1488.04,1261.21 1490.15,1262.08 1492.27,1263 1494.38,1263.99 1496.5,1265.03 1498.61,1266.14 1500.72,1267.29 1502.84,1268.5 1504.95,1269.76 1507.07,1271.07 
  1509.18,1272.42 1511.3,1273.82 1513.41,1275.27 1515.52,1276.75 1517.64,1278.28 1519.75,1279.85 1521.87,1281.45 1523.98,1283.1 1526.1,1284.77 1528.21,1286.49 
  1530.33,1288.23 1532.44,1290.01 1534.55,1291.82 1536.67,1293.65 1538.78,1295.52 1540.9,1297.41 1543.01,1299.33 1545.13,1301.28 1547.24,1303.25 1549.35,1305.24 
  1551.47,1307.25 1553.58,1309.29 1555.7,1311.34 1557.81,1313.41 1559.93,1315.5 1562.04,1317.6 1564.16,1319.72 1566.27,1321.85 1568.38,1323.99 1570.5,1326.14 
  1572.61,1328.3 1574.73,1330.46 1576.84,1332.64 1578.96,1334.81 1581.07,1336.99 1583.19,1339.17 1585.3,1341.35 1587.41,1343.53 1589.53,1345.71 1591.64,1347.88 
  1593.76,1350.04 1595.87,1352.19 1597.99,1354.34 1600.1,1356.47 1602.21,1358.59 1604.33,1360.7 1606.44,1362.79 1608.56,1364.86 1610.67,1366.92 1612.79,1368.95 
  1614.9,1370.97 1617.02,1372.96 1619.13,1374.93 1621.24,1376.87 1623.36,1378.78 1625.47,1380.67 1627.59,1382.53 1629.7,1384.36 1631.82,1386.16 1633.93,1387.93 
  1636.04,1389.67 1638.16,1391.38 1640.27,1393.05 1642.39,1394.69 1644.5,1396.3 1646.62,1397.87 1648.73,1399.41 1650.85,1400.91 1652.96,1402.38 1655.07,1403.81 
  1657.19,1405.21 1659.3,1406.57 1661.42,1407.9 1663.53,1409.19 1665.65,1410.45 1667.76,1411.67 1669.87,1412.86 1671.99,1414.02 1674.1,1415.14 1676.22,1416.23 
  1678.33,1417.28 1680.45,1418.3 1682.56,1419.29 1684.68,1420.25 1686.79,1421.18 1688.9,1422.08 1691.02,1422.95 1693.13,1423.78 1695.25,1424.59 1697.36,1425.37 
  1699.48,1426.13 1701.59,1426.86 1703.7,1427.56 1705.82,1428.23 1707.93,1428.88 1710.05,1429.51 1712.16,1430.11 1714.28,1430.69 1716.39,1431.24 1718.51,1431.78 
  1720.62,1432.29 1722.73,1432.78 1724.85,1433.25 1726.96,1433.7 1729.08,1434.14 1731.19,1434.55 1733.31,1434.94 1735.42,1435.32 1737.53,1435.68 1739.65,1436.02 
  1741.76,1436.35 1743.88,1436.66 1745.99,1436.96 1748.11,1437.24 1750.22,1437.5 1752.34,1437.76 1754.45,1437.99 1756.56,1438.22 1758.68,1438.43 1760.79,1438.63 
  1762.91,1438.81 1765.02,1438.99 1767.14,1439.15 1769.25,1439.3 1771.36,1439.44 1773.48,1439.57 1775.59,1439.69 1777.71,1439.79 1779.82,1439.89 1781.94,1439.98 
  1784.05,1440.05 1786.17,1440.12 1788.28,1440.18 1790.39,1440.23 1792.51,1440.27 1794.62,1440.3 1796.74,1440.32 1798.85,1440.33 1800.97,1440.34 1803.08,1440.33 
  1805.19,1440.32 1807.31,1440.3 1809.42,1440.27 1811.54,1440.24 1813.65,1440.19 1815.77,1440.14 1817.88,1440.09 1820,1440.02 1822.11,1439.95 1824.22,1439.87 
  1826.34,1439.78 1828.45,1439.68 1830.57,1439.58 1832.68,1439.47 1834.8,1439.36 1836.91,1439.23 1839.03,1439.1 1841.14,1438.97 1843.25,1438.82 1845.37,1438.67 
  1847.48,1438.52 1849.6,1438.35 1851.71,1438.18 1853.83,1438.01 1855.94,1437.83 1858.05,1437.64 1860.17,1437.44 1862.28,1437.24 1864.4,1437.03 1866.51,1436.81 
  1868.63,1436.59 1870.74,1436.36 1872.86,1436.13 1874.97,1435.89 1877.08,1435.64 1879.2,1435.39 1881.31,1435.13 1883.43,1434.86 1885.54,1434.59 1887.66,1434.31 
  1889.77,1434.03 1891.88,1433.73 1894,1433.44 1896.11,1433.14 1898.23,1432.83 1900.34,1432.51 1902.46,1432.19 1904.57,1431.87 1906.69,1431.53 1908.8,1431.2 
  1910.91,1430.85 1913.03,1430.5 1915.14,1430.15 1917.26,1429.79 1919.37,1429.42 1921.49,1429.05 1923.6,1428.68 1925.71,1428.3 1927.83,1427.91 1929.94,1427.52 
  1932.06,1427.12 1934.17,1426.72 1936.29,1426.32 1938.4,1425.9 1940.52,1425.49 1942.63,1425.07 1944.74,1424.65 1946.86,1424.22 1948.97,1423.78 1951.09,1423.35 
  1953.2,1422.91 1955.32,1422.46 1957.43,1422.01 1959.54,1421.56 1961.66,1421.11 1963.77,1420.65 1965.89,1420.19 1968,1419.72 1970.12,1419.26 1972.23,1418.79 
  1974.35,1418.31 1976.46,1417.84 1978.57,1417.36 1980.69,1416.88 1982.8,1416.4 1984.92,1415.92 1987.03,1415.43 1989.15,1414.95 1991.26,1414.46 1993.37,1413.97 
  1995.49,1413.48 1997.6,1412.99 1999.72,1412.5 2001.83,1412 2003.95,1411.51 2006.06,1411.02 2008.18,1410.52 2010.29,1410.03 2012.4,1409.54 2014.52,1409.04 
  2016.63,1408.55 2018.75,1408.06 2020.86,1407.57 2022.98,1407.08 2025.09,1406.59 2027.2,1406.1 2029.32,1405.61 2031.43,1405.13 2033.55,1404.64 2035.66,1404.16 
  2037.78,1403.68 2039.89,1403.2 2042.01,1402.73 2044.12,1402.25 2046.23,1401.78 2048.35,1401.31 2050.46,1400.84 2052.58,1400.38 2054.69,1399.92 2056.81,1399.46 
  2058.92,1399 2061.03,1398.55 2063.15,1398.1 2065.26,1397.65 2067.38,1397.21 2069.49,1396.77 2071.61,1396.33 2073.72,1395.9 2075.84,1395.47 2077.95,1395.04 
  2080.06,1394.62 2082.18,1394.2 2084.29,1393.78 2086.41,1393.37 2088.52,1392.96 2090.64,1392.56 2092.75,1392.16 2094.86,1391.76 2096.98,1391.37 2099.09,1390.98 
  2101.21,1390.59 2103.32,1390.21 2105.44,1389.83 2107.55,1389.46 2109.67,1389.09 2111.78,1388.73 2113.89,1388.37 2116.01,1388.01 2118.12,1387.66 2120.24,1387.31 
  2122.35,1386.97 2124.47,1386.63 2126.58,1386.29 2128.7,1385.96 2130.81,1385.63 2132.92,1385.31 2135.04,1384.99 2137.15,1384.67 2139.27,1384.36 2141.38,1384.05 
  2143.5,1383.75 2145.61,1383.45 2147.72,1383.15 2149.84,1382.86 2151.95,1382.57 2154.07,1382.29 2156.18,1382.01 2158.3,1381.73 2160.41,1381.46 2162.53,1381.19 
  2164.64,1380.92 2166.75,1380.66 2168.87,1380.4 2170.98,1380.15 2173.1,1379.9 2175.21,1379.65 2177.33,1379.41 2179.44,1379.17 2181.55,1378.93 2183.67,1378.7 
  2185.78,1378.47 2187.9,1378.24 2190.01,1378.01 2192.13,1377.79 2194.24,1377.58 2196.36,1377.36 2198.47,1377.15 2200.58,1376.94 2202.7,1376.74 2204.81,1376.54 
  2206.93,1376.34 2209.04,1376.14 2211.16,1375.95 2213.27,1375.76 2215.38,1375.57 2217.5,1375.39 2219.61,1375.21 2221.73,1375.03 2223.84,1374.85 2225.96,1374.68 
  2228.07,1374.51 2230.19,1374.34 2232.3,1374.17 2234.41,1374.01 2236.53,1373.85 2238.64,1373.69 2240.76,1373.53 2242.87,1373.38 2244.99,1373.23 2247.1,1373.08 
  2249.21,1372.93 2251.33,1372.79 2253.44,1372.64 2255.56,1372.5 2257.67,1372.36 2259.79,1372.23 2261.9,1372.09 2264.02,1371.96 2266.13,1371.83 2268.24,1371.7 
  2270.36,1371.58 2272.47,1371.45 2274.59,1371.33 2276.7,1371.21 2278.82,1371.09 2280.93,1370.97 2283.04,1370.86 2285.16,1370.74 2287.27,1370.63 2289.39,1370.52 
  
  "/>
<polyline clip-path="url(#clip7802)" style="stroke:#ac8d18; stroke-width:8; stroke-opacity:1; fill:none" points="
  177.122,1375.84 179.237,1375.82 181.351,1375.8 183.466,1375.78 185.58,1375.77 187.694,1375.75 189.809,1375.73 191.923,1375.71 194.037,1375.69 196.152,1375.68 
  198.266,1375.66 200.381,1375.64 202.495,1375.63 204.609,1375.61 206.724,1375.59 208.838,1375.58 210.953,1375.56 213.067,1375.55 215.181,1375.53 217.296,1375.52 
  219.41,1375.5 221.524,1375.49 223.639,1375.48 225.753,1375.46 227.868,1375.45 229.982,1375.44 232.096,1375.43 234.211,1375.41 236.325,1375.4 238.439,1375.39 
  240.554,1375.38 242.668,1375.37 244.783,1375.36 246.897,1375.35 249.011,1375.35 251.126,1375.34 253.24,1375.33 255.354,1375.32 257.469,1375.32 259.583,1375.31 
  261.698,1375.3 263.812,1375.3 265.926,1375.29 268.041,1375.29 270.155,1375.29 272.27,1375.28 274.384,1375.28 276.498,1375.28 278.613,1375.28 280.727,1375.28 
  282.841,1375.28 284.956,1375.28 287.07,1375.28 289.185,1375.28 291.299,1375.29 293.413,1375.29 295.528,1375.29 297.642,1375.3 299.756,1375.3 301.871,1375.31 
  303.985,1375.32 306.1,1375.33 308.214,1375.33 310.328,1375.34 312.443,1375.35 314.557,1375.36 316.672,1375.38 318.786,1375.39 320.9,1375.4 323.015,1375.42 
  325.129,1375.43 327.243,1375.45 329.358,1375.46 331.472,1375.48 333.587,1375.5 335.701,1375.52 337.815,1375.54 339.93,1375.56 342.044,1375.58 344.158,1375.61 
  346.273,1375.63 348.387,1375.66 350.502,1375.68 352.616,1375.71 354.73,1375.74 356.845,1375.77 358.959,1375.8 361.073,1375.83 363.188,1375.86 365.302,1375.89 
  367.417,1375.93 369.531,1375.96 371.645,1376 373.76,1376.04 375.874,1376.08 377.989,1376.12 380.103,1376.16 382.217,1376.2 384.332,1376.24 386.446,1376.29 
  388.56,1376.33 390.675,1376.38 392.789,1376.42 394.904,1376.47 397.018,1376.52 399.132,1376.57 401.247,1376.62 403.361,1376.68 405.475,1376.73 407.59,1376.79 
  409.704,1376.84 411.819,1376.9 413.933,1376.96 416.047,1377.02 418.162,1377.08 420.276,1377.14 422.39,1377.2 424.505,1377.27 426.619,1377.33 428.734,1377.4 
  430.848,1377.47 432.962,1377.54 435.077,1377.6 437.191,1377.68 439.306,1377.75 441.42,1377.82 443.534,1377.89 445.649,1377.97 447.763,1378.04 449.877,1378.12 
  451.992,1378.2 454.106,1378.28 456.221,1378.36 458.335,1378.44 460.449,1378.52 462.564,1378.6 464.678,1378.69 466.792,1378.77 468.907,1378.86 471.021,1378.94 
  473.136,1379.03 475.25,1379.12 477.364,1379.21 479.479,1379.3 481.593,1379.39 483.708,1379.48 485.822,1379.57 487.936,1379.67 490.051,1379.76 492.165,1379.86 
  494.279,1379.95 496.394,1380.05 498.508,1380.15 500.623,1380.25 502.737,1380.35 504.851,1380.45 506.966,1380.55 509.08,1380.65 511.194,1380.75 513.309,1380.86 
  515.423,1380.96 517.538,1381.07 519.652,1381.17 521.766,1381.28 523.881,1381.39 525.995,1381.49 528.109,1381.6 530.224,1381.71 532.338,1381.82 534.453,1381.94 
  536.567,1382.05 538.681,1382.16 540.796,1382.28 542.91,1382.39 545.025,1382.51 547.139,1382.63 549.253,1382.74 551.368,1382.86 553.482,1382.98 555.596,1383.1 
  557.711,1383.23 559.825,1383.35 561.94,1383.47 564.054,1383.6 566.168,1383.72 568.283,1383.85 570.397,1383.98 572.511,1384.11 574.626,1384.24 576.74,1384.37 
  578.855,1384.51 580.969,1384.64 583.083,1384.78 585.198,1384.91 587.312,1385.05 589.427,1385.19 591.541,1385.33 593.655,1385.48 595.77,1385.62 597.884,1385.77 
  599.998,1385.91 602.113,1386.06 604.227,1386.21 606.342,1386.37 608.456,1386.52 610.57,1386.67 612.685,1386.83 614.799,1386.99 616.913,1387.15 619.028,1387.31 
  621.142,1387.48 623.257,1387.65 625.371,1387.81 627.485,1387.99 629.6,1388.16 631.714,1388.33 633.828,1388.51 635.943,1388.69 638.057,1388.87 640.172,1389.05 
  642.286,1389.24 644.4,1389.42 646.515,1389.61 648.629,1389.81 650.744,1390 652.858,1390.2 654.972,1390.39 657.087,1390.59 659.201,1390.8 661.315,1391 
  663.43,1391.21 665.544,1391.42 667.659,1391.63 669.773,1391.85 671.887,1392.06 674.002,1392.28 676.116,1392.5 678.23,1392.73 680.345,1392.95 682.459,1393.18 
  684.574,1393.41 686.688,1393.64 688.802,1393.88 690.917,1394.11 693.031,1394.35 695.146,1394.59 697.26,1394.84 699.374,1395.08 701.489,1395.33 703.603,1395.58 
  705.717,1395.83 707.832,1396.08 709.946,1396.33 712.061,1396.59 714.175,1396.84 716.289,1397.1 718.404,1397.36 720.518,1397.62 722.632,1397.88 724.747,1398.15 
  726.861,1398.41 728.976,1398.68 731.09,1398.94 733.204,1399.21 735.319,1399.48 737.433,1399.75 739.547,1400.02 741.662,1400.29 743.776,1400.56 745.891,1400.83 
  748.005,1401.1 750.119,1401.37 752.234,1401.64 754.348,1401.92 756.463,1402.19 758.577,1402.46 760.691,1402.73 762.806,1403 764.92,1403.27 767.034,1403.54 
  769.149,1403.81 771.263,1404.08 773.378,1404.35 775.492,1404.62 777.606,1404.88 779.721,1405.15 781.835,1405.41 783.949,1405.67 786.064,1405.94 788.178,1406.2 
  790.293,1406.46 792.407,1406.71 794.521,1406.97 796.636,1407.22 798.75,1407.48 800.864,1407.73 802.979,1407.98 805.093,1408.22 807.208,1408.47 809.322,1408.71 
  811.436,1408.95 813.551,1409.19 815.665,1409.43 817.78,1409.66 819.894,1409.9 822.008,1410.13 824.123,1410.36 826.237,1410.58 828.351,1410.8 830.466,1411.02 
  832.58,1411.24 834.695,1411.46 836.809,1411.67 838.923,1411.88 841.038,1412.09 843.152,1412.29 845.266,1412.49 847.381,1412.69 849.495,1412.88 851.61,1413.08 
  853.724,1413.27 855.838,1413.45 857.953,1413.63 860.067,1413.81 862.182,1413.99 864.296,1414.16 866.41,1414.33 868.525,1414.49 870.639,1414.65 872.753,1414.81 
  874.868,1414.96 876.982,1415.11 879.097,1415.25 881.211,1415.39 883.325,1415.52 885.44,1415.65 887.554,1415.78 889.668,1415.9 891.783,1416.02 893.897,1416.13 
  896.012,1416.23 898.126,1416.33 900.24,1416.42 902.355,1416.51 904.469,1416.59 906.583,1416.67 908.698,1416.74 910.812,1416.8 912.927,1416.86 915.041,1416.9 
  917.155,1416.95 919.27,1416.98 921.384,1417 923.499,1417.02 925.613,1417.03 927.727,1417.03 929.842,1417.02 931.956,1417.01 934.07,1416.98 936.185,1416.94 
  938.299,1416.9 940.414,1416.84 942.528,1416.77 944.642,1416.69 946.757,1416.6 948.871,1416.5 950.985,1416.39 953.1,1416.26 955.214,1416.12 957.329,1415.97 
  959.443,1415.81 961.557,1415.63 963.672,1415.44 965.786,1415.24 967.901,1415.02 970.015,1414.79 972.129,1414.55 974.244,1414.29 976.358,1414.01 978.472,1413.72 
  980.587,1413.42 982.701,1413.1 984.816,1412.77 986.93,1412.42 989.044,1412.06 991.159,1411.69 993.273,1411.3 995.387,1410.89 997.502,1410.48 999.616,1410.05 
  1001.73,1409.61 1003.84,1409.15 1005.96,1408.69 1008.07,1408.21 1010.19,1407.73 1012.3,1407.23 1014.42,1406.73 1016.53,1406.22 1018.65,1405.7 1020.76,1405.18 
  1022.87,1404.65 1024.99,1404.11 1027.1,1403.58 1029.22,1403.04 1031.33,1402.5 1033.45,1401.96 1035.56,1401.42 1037.68,1400.89 1039.79,1400.35 1041.9,1399.83 
  1044.02,1399.3 1046.13,1398.79 1048.25,1398.28 1050.36,1397.78 1052.48,1397.29 1054.59,1396.81 1056.7,1396.35 1058.82,1395.89 1060.93,1395.45 1063.05,1395.03 
  1065.16,1394.62 1067.28,1394.22 1069.39,1393.85 1071.51,1393.49 1073.62,1393.15 1075.73,1392.83 1077.85,1392.54 1079.96,1392.26 1082.08,1392.01 1084.19,1391.78 
  1086.31,1391.58 1088.42,1391.4 1090.53,1391.25 1092.65,1391.13 1094.76,1391.04 1096.88,1390.98 1098.99,1390.96 1101.11,1390.97 1103.22,1391.01 1105.34,1391.1 
  1107.45,1391.22 1109.56,1391.39 1111.68,1391.6 1113.79,1391.85 1115.91,1392.15 1118.02,1392.49 1120.14,1392.88 1122.25,1393.32 1124.36,1393.81 1126.48,1394.34 
  1128.59,1394.92 1130.71,1395.55 1132.82,1396.21 1134.94,1396.92 1137.05,1397.65 1139.17,1398.42 1141.28,1399.21 1143.39,1400.02 1145.51,1400.84 1147.62,1401.66 
  1149.74,1402.48 1151.85,1403.3 1153.97,1404.09 1156.08,1404.87 1158.19,1405.62 1160.31,1406.33 1162.42,1407.01 1164.54,1407.65 1166.65,1408.24 1168.77,1408.79 
  1170.88,1409.29 1173,1409.73 1175.11,1410.13 1177.22,1410.48 1179.34,1410.78 1181.45,1411.03 1183.57,1411.24 1185.68,1411.39 1187.8,1411.5 1189.91,1411.57 
  1192.02,1411.59 1194.14,1411.56 1196.25,1411.49 1198.37,1411.38 1200.48,1411.22 1202.6,1411.02 1204.71,1410.78 1206.83,1410.49 1208.94,1410.15 1211.05,1409.78 
  1213.17,1409.35 1215.28,1408.88 1217.4,1408.37 1219.51,1407.8 1221.63,1407.19 1223.74,1406.52 1225.85,1405.81 1227.97,1405.04 1230.08,1404.22 1232.2,1403.34 
  1234.31,1402.4 1236.43,1401.41 1238.54,1400.35 1240.66,1399.23 1242.77,1398.05 1244.88,1396.8 1247,1395.49 1249.11,1394.11 1251.23,1392.66 1253.34,1391.15 
  1255.46,1389.57 1257.57,1387.92 1259.68,1386.22 1261.8,1384.46 1263.91,1382.64 1266.03,1380.78 1268.14,1378.88 1270.26,1376.95 1272.37,1374.99 1274.49,1373.03 
  1276.6,1371.06 1278.71,1369.1 1280.83,1367.18 1282.94,1365.29 1285.06,1363.45 1287.17,1361.68 1289.29,1360 1291.4,1358.4 1293.52,1356.92 1295.63,1355.56 
  1297.74,1354.33 1299.86,1353.23 1301.97,1352.29 1304.09,1351.49 1306.2,1350.86 1308.32,1350.39 1310.43,1350.07 1312.54,1349.92 1314.66,1349.93 1316.77,1350.09 
  1318.89,1350.41 1321,1350.87 1323.12,1351.47 1325.23,1352.21 1327.35,1353.07 1329.46,1354.05 1331.57,1355.14 1333.69,1356.32 1335.8,1357.6 1337.92,1358.96 
  1340.03,1360.4 1342.15,1361.91 1344.26,1363.47 1346.37,1365.08 1348.49,1366.74 1350.6,1368.43 1352.72,1370.15 1354.83,1371.89 1356.95,1373.65 1359.06,1375.42 
  1361.18,1377.2 1363.29,1378.98 1365.4,1380.75 1367.52,1382.51 1369.63,1384.27 1371.75,1386 1373.86,1387.72 1375.98,1389.41 1378.09,1391.08 1380.2,1392.72 
  1382.32,1394.34 1384.43,1395.92 1386.55,1397.46 1388.66,1398.97 1390.78,1400.45 1392.89,1401.89 1395.01,1403.29 1397.12,1404.65 1399.23,1405.98 1401.35,1407.26 
  1403.46,1408.51 1405.58,1409.72 1407.69,1410.89 1409.81,1412.02 1411.92,1413.11 1414.03,1414.16 1416.15,1415.18 1418.26,1416.16 1420.38,1417.11 1422.49,1418.02 
  1424.61,1418.89 1426.72,1419.73 1428.84,1420.54 1430.95,1421.32 1433.06,1422.07 1435.18,1422.79 1437.29,1423.47 1439.41,1424.13 1441.52,1424.77 1443.64,1425.37 
  1445.75,1425.96 1447.86,1426.51 1449.98,1427.05 1452.09,1427.56 1454.21,1428.04 1456.32,1428.51 1458.44,1428.96 1460.55,1429.39 1462.67,1429.79 1464.78,1430.18 
  1466.89,1430.55 1469.01,1430.91 1471.12,1431.25 1473.24,1431.57 1475.35,1431.87 1477.47,1432.16 1479.58,1432.44 1481.69,1432.7 1483.81,1432.95 1485.92,1433.19 
  1488.04,1433.41 1490.15,1433.62 1492.27,1433.82 1494.38,1434.01 1496.5,1434.19 1498.61,1434.35 1500.72,1434.51 1502.84,1434.65 1504.95,1434.78 1507.07,1434.91 
  1509.18,1435.02 1511.3,1435.12 1513.41,1435.22 1515.52,1435.3 1517.64,1435.38 1519.75,1435.45 1521.87,1435.5 1523.98,1435.55 1526.1,1435.6 1528.21,1435.63 
  1530.33,1435.65 1532.44,1435.67 1534.55,1435.68 1536.67,1435.68 1538.78,1435.67 1540.9,1435.66 1543.01,1435.63 1545.13,1435.6 1547.24,1435.56 1549.35,1435.51 
  1551.47,1435.46 1553.58,1435.4 1555.7,1435.33 1557.81,1435.25 1559.93,1435.16 1562.04,1435.07 1564.16,1434.97 1566.27,1434.86 1568.38,1434.74 1570.5,1434.62 
  1572.61,1434.49 1574.73,1434.35 1576.84,1434.2 1578.96,1434.04 1581.07,1433.88 1583.19,1433.71 1585.3,1433.53 1587.41,1433.34 1589.53,1433.14 1591.64,1432.94 
  1593.76,1432.73 1595.87,1432.51 1597.99,1432.28 1600.1,1432.04 1602.21,1431.79 1604.33,1431.54 1606.44,1431.28 1608.56,1431.01 1610.67,1430.73 1612.79,1430.44 
  1614.9,1430.14 1617.02,1429.84 1619.13,1429.52 1621.24,1429.2 1623.36,1428.87 1625.47,1428.53 1627.59,1428.18 1629.7,1427.82 1631.82,1427.45 1633.93,1427.08 
  1636.04,1426.69 1638.16,1426.3 1640.27,1425.9 1642.39,1425.49 1644.5,1425.07 1646.62,1424.64 1648.73,1424.2 1650.85,1423.75 1652.96,1423.29 1655.07,1422.83 
  1657.19,1422.35 1659.3,1421.87 1661.42,1421.38 1663.53,1420.88 1665.65,1420.37 1667.76,1419.85 1669.87,1419.32 1671.99,1418.79 1674.1,1418.24 1676.22,1417.69 
  1678.33,1417.13 1680.45,1416.56 1682.56,1415.98 1684.68,1415.39 1686.79,1414.79 1688.9,1414.19 1691.02,1413.57 1693.13,1412.95 1695.25,1412.32 1697.36,1411.68 
  1699.48,1411.03 1701.59,1410.37 1703.7,1409.71 1705.82,1409.03 1707.93,1408.35 1710.05,1407.66 1712.16,1406.95 1714.28,1406.24 1716.39,1405.52 1718.51,1404.79 
  1720.62,1404.06 1722.73,1403.31 1724.85,1402.55 1726.96,1401.78 1729.08,1401.01 1731.19,1400.22 1733.31,1399.42 1735.42,1398.61 1737.53,1397.79 1739.65,1396.96 
  1741.76,1396.12 1743.88,1395.27 1745.99,1394.4 1748.11,1393.53 1750.22,1392.64 1752.34,1391.73 1754.45,1390.82 1756.56,1389.89 1758.68,1388.95 1760.79,1387.99 
  1762.91,1387.02 1765.02,1386.03 1767.14,1385.03 1769.25,1384.01 1771.36,1382.98 1773.48,1381.93 1775.59,1380.86 1777.71,1379.77 1779.82,1378.66 1781.94,1377.54 
  1784.05,1376.4 1786.17,1375.23 1788.28,1374.05 1790.39,1372.84 1792.51,1371.61 1794.62,1370.36 1796.74,1369.08 1798.85,1367.78 1800.97,1366.46 1803.08,1365.11 
  1805.19,1363.73 1807.31,1362.33 1809.42,1360.9 1811.54,1359.44 1813.65,1357.95 1815.77,1356.43 1817.88,1354.88 1820,1353.29 1822.11,1351.68 1824.22,1350.03 
  1826.34,1348.35 1828.45,1346.63 1830.57,1344.87 1832.68,1343.08 1834.8,1341.25 1836.91,1339.38 1839.03,1337.47 1841.14,1335.52 1843.25,1333.53 1845.37,1331.5 
  1847.48,1329.42 1849.6,1327.29 1851.71,1325.13 1853.83,1322.91 1855.94,1320.65 1858.05,1318.34 1860.17,1315.97 1862.28,1313.56 1864.4,1311.1 1866.51,1308.58 
  1868.63,1306.01 1870.74,1303.39 1872.86,1300.71 1874.97,1297.98 1877.08,1295.19 1879.2,1292.34 1881.31,1289.43 1883.43,1286.46 1885.54,1283.43 1887.66,1280.34 
  1889.77,1277.18 1891.88,1273.97 1894,1270.69 1896.11,1267.34 1898.23,1263.93 1900.34,1260.46 1902.46,1256.92 1904.57,1253.31 1906.69,1249.63 1908.8,1245.89 
  1910.91,1242.08 1913.03,1238.2 1915.14,1234.25 1917.26,1230.23 1919.37,1226.14 1921.49,1221.98 1923.6,1217.75 1925.71,1213.45 1927.83,1209.08 1929.94,1204.64 
  1932.06,1200.13 1934.17,1195.55 1936.29,1190.91 1938.4,1186.19 1940.52,1181.4 1942.63,1176.55 1944.74,1171.63 1946.86,1166.64 1948.97,1161.59 1951.09,1156.46 
  1953.2,1151.28 1955.32,1146.03 1957.43,1140.72 1959.54,1135.34 1961.66,1129.91 1963.77,1124.42 1965.89,1118.86 1968,1113.25 1970.12,1107.59 1972.23,1101.87 
  1974.35,1096.1 1976.46,1090.28 1978.57,1084.4 1980.69,1078.49 1982.8,1072.52 1984.92,1066.51 1987.03,1060.46 1989.15,1054.37 1991.26,1048.24 1993.37,1042.08 
  1995.49,1035.88 1997.6,1029.65 1999.72,1023.39 2001.83,1017.1 2003.95,1010.79 2006.06,1004.45 2008.18,998.093 2010.29,991.717 2012.4,985.326 2014.52,978.92 
  2016.63,972.503 2018.75,966.077 2020.86,959.644 2022.98,953.206 2025.09,946.766 2027.2,940.326 2029.32,933.889 2031.43,927.457 2033.55,921.031 2035.66,914.615 
  2037.78,908.21 2039.89,901.819 2042.01,895.443 2044.12,889.086 2046.23,882.748 2048.35,876.433 2050.46,870.142 2052.58,863.877 2054.69,857.64 2056.81,851.434 
  2058.92,845.259 2061.03,839.117 2063.15,833.011 2065.26,826.943 2067.38,820.913 2069.49,814.923 2071.61,808.975 2073.72,803.07 2075.84,797.211 2077.95,791.397 
  2080.06,785.63 2082.18,779.912 2084.29,774.245 2086.41,768.628 2088.52,763.063 2090.64,757.551 2092.75,752.094 2094.86,746.691 2096.98,741.344 2099.09,736.053 
  2101.21,730.82 2103.32,725.644 2105.44,720.527 2107.55,715.469 2109.67,710.471 2111.78,705.533 2113.89,700.655 2116.01,695.838 2118.12,691.082 2120.24,686.388 
  2122.35,681.755 2124.47,677.183 2126.58,672.674 2128.7,668.227 2130.81,663.841 2132.92,659.518 2135.04,655.256 2137.15,651.056 2139.27,646.918 2141.38,642.842 
  2143.5,638.827 2145.61,634.873 2147.72,630.98 2149.84,627.147 2151.95,623.375 2154.07,619.663 2156.18,616.01 2158.3,612.417 2160.41,608.883 2162.53,605.406 
  2164.64,601.989 2166.75,598.628 2168.87,595.324 2170.98,592.077 2173.1,588.886 2175.21,585.751 2177.33,582.67 2179.44,579.643 2181.55,576.67 2183.67,573.75 
  2185.78,570.884 2187.9,568.068 2190.01,565.304 2192.13,562.592 2194.24,559.928 2196.36,557.315 2198.47,554.75 2200.58,552.233 2202.7,549.765 2204.81,547.342 
  2206.93,544.966 2209.04,542.636 2211.16,540.35 2213.27,538.109 2215.38,535.911 2217.5,533.756 2219.61,531.644 2221.73,529.573 2223.84,527.543 2225.96,525.554 
  2228.07,523.604 2230.19,521.693 2232.3,519.821 2234.41,517.986 2236.53,516.188 2238.64,514.427 2240.76,512.702 2242.87,511.012 2244.99,509.357 2247.1,507.736 
  2249.21,506.148 2251.33,504.593 2253.44,503.07 2255.56,501.58 2257.67,500.12 2259.79,498.691 2261.9,497.291 2264.02,495.921 2266.13,494.58 2268.24,493.268 
  2270.36,491.983 2272.47,490.725 2274.59,489.494 2276.7,488.29 2278.82,487.111 2280.93,485.957 2283.04,484.828 2285.16,483.723 2287.27,482.642 2289.39,481.585 
  
  "/>
<polygon clip-path="url(#clip7800)" points="
1989.93,493.644 2280.76,493.644 2280.76,130.764 1989.93,130.764 
  " fill="#ffffff" fill-rule="evenodd" fill-opacity="1"/>
<polyline clip-path="url(#clip7800)" style="stroke:#000000; stroke-width:4; stroke-opacity:1; fill:none" points="
  1989.93,493.644 2280.76,493.644 2280.76,130.764 1989.93,130.764 1989.93,493.644 
  "/>
<polyline clip-path="url(#clip7800)" style="stroke:#009af9; stroke-width:8; stroke-opacity:1; fill:none" points="
  2013.93,191.244 2157.93,191.244 
  "/>
<g clip-path="url(#clip7800)">
<text style="fill:#000000; fill-opacity:1; font-family:Arial,Helvetica Neue,Helvetica,sans-serif; font-size:48px; text-anchor:start;" transform="rotate(0, 2181.93, 208.744)" x="2181.93" y="208.744">y1</text>
</g>
<polyline clip-path="url(#clip7800)" style="stroke:#e26f46; stroke-width:8; stroke-opacity:1; fill:none" points="
  2013.93,251.724 2157.93,251.724 
  "/>
<g clip-path="url(#clip7800)">
<text style="fill:#000000; fill-opacity:1; font-family:Arial,Helvetica Neue,Helvetica,sans-serif; font-size:48px; text-anchor:start;" transform="rotate(0, 2181.93, 269.224)" x="2181.93" y="269.224">y2</text>
</g>
<polyline clip-path="url(#clip7800)" style="stroke:#3da44d; stroke-width:8; stroke-opacity:1; fill:none" points="
  2013.93,312.204 2157.93,312.204 
  "/>
<g clip-path="url(#clip7800)">
<text style="fill:#000000; fill-opacity:1; font-family:Arial,Helvetica Neue,Helvetica,sans-serif; font-size:48px; text-anchor:start;" transform="rotate(0, 2181.93, 329.704)" x="2181.93" y="329.704">y3</text>
</g>
<polyline clip-path="url(#clip7800)" style="stroke:#c271d2; stroke-width:8; stroke-opacity:1; fill:none" points="
  2013.93,372.684 2157.93,372.684 
  "/>
<g clip-path="url(#clip7800)">
<text style="fill:#000000; fill-opacity:1; font-family:Arial,Helvetica Neue,Helvetica,sans-serif; font-size:48px; text-anchor:start;" transform="rotate(0, 2181.93, 390.184)" x="2181.93" y="390.184">y4</text>
</g>
<polyline clip-path="url(#clip7800)" style="stroke:#ac8d18; stroke-width:8; stroke-opacity:1; fill:none" points="
  2013.93,433.164 2157.93,433.164 
  "/>
<g clip-path="url(#clip7800)">
<text style="fill:#000000; fill-opacity:1; font-family:Arial,Helvetica Neue,Helvetica,sans-serif; font-size:48px; text-anchor:start;" transform="rotate(0, 2181.93, 450.664)" x="2181.93" y="450.664">y5</text>
</g>
</svg>
