<?xml version="1.0" encoding="utf-8"?>
<svg xmlns="http://www.w3.org/2000/svg" xmlns:xlink="http://www.w3.org/1999/xlink" width="600" height="400" viewBox="0 0 2400 1600">
<defs>
  <clipPath id="clip8200">
    <rect x="0" y="0" width="2400" height="1600"/>
  </clipPath>
</defs>
<polygon clip-path="url(#clip8200)" points="
0,1600 2400,1600 2400,0 0,0 
  " fill="#ffffff" fill-rule="evenodd" fill-opacity="1"/>
<defs>
  <clipPath id="clip8201">
    <rect x="480" y="0" width="1681" height="1600"/>
  </clipPath>
</defs>
<polygon clip-path="url(#clip8200)" points="
168.627,1487.47 2352.76,1487.47 2352.76,47.2441 168.627,47.2441 
  " fill="#ffffff" fill-rule="evenodd" fill-opacity="1"/>
<defs>
  <clipPath id="clip8202">
    <rect x="168" y="47" width="2185" height="1441"/>
  </clipPath>
</defs>
<polyline clip-path="url(#clip8202)" style="stroke:#000000; stroke-width:2; stroke-opacity:0.1; fill:none" points="
  230.442,1487.47 230.442,47.2441 
  "/>
<polyline clip-path="url(#clip8202)" style="stroke:#000000; stroke-width:2; stroke-opacity:0.1; fill:none" points="
  573.858,1487.47 573.858,47.2441 
  "/>
<polyline clip-path="url(#clip8202)" style="stroke:#000000; stroke-width:2; stroke-opacity:0.1; fill:none" points="
  917.275,1487.47 917.275,47.2441 
  "/>
<polyline clip-path="url(#clip8202)" style="stroke:#000000; stroke-width:2; stroke-opacity:0.1; fill:none" points="
  1260.69,1487.47 1260.69,47.2441 
  "/>
<polyline clip-path="url(#clip8202)" style="stroke:#000000; stroke-width:2; stroke-opacity:0.1; fill:none" points="
  1604.11,1487.47 1604.11,47.2441 
  "/>
<polyline clip-path="url(#clip8202)" style="stroke:#000000; stroke-width:2; stroke-opacity:0.1; fill:none" points="
  1947.52,1487.47 1947.52,47.2441 
  "/>
<polyline clip-path="url(#clip8202)" style="stroke:#000000; stroke-width:2; stroke-opacity:0.1; fill:none" points="
  2290.94,1487.47 2290.94,47.2441 
  "/>
<polyline clip-path="url(#clip8202)" style="stroke:#000000; stroke-width:2; stroke-opacity:0.1; fill:none" points="
  168.627,1433.59 2352.76,1433.59 
  "/>
<polyline clip-path="url(#clip8202)" style="stroke:#000000; stroke-width:2; stroke-opacity:0.1; fill:none" points="
  168.627,1100.06 2352.76,1100.06 
  "/>
<polyline clip-path="url(#clip8202)" style="stroke:#000000; stroke-width:2; stroke-opacity:0.1; fill:none" points="
  168.627,766.536 2352.76,766.536 
  "/>
<polyline clip-path="url(#clip8202)" style="stroke:#000000; stroke-width:2; stroke-opacity:0.1; fill:none" points="
  168.627,433.009 2352.76,433.009 
  "/>
<polyline clip-path="url(#clip8202)" style="stroke:#000000; stroke-width:2; stroke-opacity:0.1; fill:none" points="
  168.627,99.4817 2352.76,99.4817 
  "/>
<polyline clip-path="url(#clip8200)" style="stroke:#000000; stroke-width:4; stroke-opacity:1; fill:none" points="
  168.627,1487.47 2352.76,1487.47 
  "/>
<polyline clip-path="url(#clip8200)" style="stroke:#000000; stroke-width:4; stroke-opacity:1; fill:none" points="
  168.627,1487.47 168.627,47.2441 
  "/>
<polyline clip-path="url(#clip8200)" style="stroke:#000000; stroke-width:4; stroke-opacity:1; fill:none" points="
  230.442,1487.47 230.442,1465.87 
  "/>
<polyline clip-path="url(#clip8200)" style="stroke:#000000; stroke-width:4; stroke-opacity:1; fill:none" points="
  573.858,1487.47 573.858,1465.87 
  "/>
<polyline clip-path="url(#clip8200)" style="stroke:#000000; stroke-width:4; stroke-opacity:1; fill:none" points="
  917.275,1487.47 917.275,1465.87 
  "/>
<polyline clip-path="url(#clip8200)" style="stroke:#000000; stroke-width:4; stroke-opacity:1; fill:none" points="
  1260.69,1487.47 1260.69,1465.87 
  "/>
<polyline clip-path="url(#clip8200)" style="stroke:#000000; stroke-width:4; stroke-opacity:1; fill:none" points="
  1604.11,1487.47 1604.11,1465.87 
  "/>
<polyline clip-path="url(#clip8200)" style="stroke:#000000; stroke-width:4; stroke-opacity:1; fill:none" points="
  1947.52,1487.47 1947.52,1465.87 
  "/>
<polyline clip-path="url(#clip8200)" style="stroke:#000000; stroke-width:4; stroke-opacity:1; fill:none" points="
  2290.94,1487.47 2290.94,1465.87 
  "/>
<polyline clip-path="url(#clip8200)" style="stroke:#000000; stroke-width:4; stroke-opacity:1; fill:none" points="
  168.627,1433.59 201.389,1433.59 
  "/>
<polyline clip-path="url(#clip8200)" style="stroke:#000000; stroke-width:4; stroke-opacity:1; fill:none" points="
  168.627,1100.06 201.389,1100.06 
  "/>
<polyline clip-path="url(#clip8200)" style="stroke:#000000; stroke-width:4; stroke-opacity:1; fill:none" points="
  168.627,766.536 201.389,766.536 
  "/>
<polyline clip-path="url(#clip8200)" style="stroke:#000000; stroke-width:4; stroke-opacity:1; fill:none" points="
  168.627,433.009 201.389,433.009 
  "/>
<polyline clip-path="url(#clip8200)" style="stroke:#000000; stroke-width:4; stroke-opacity:1; fill:none" points="
  168.627,99.4817 201.389,99.4817 
  "/>
<g clip-path="url(#clip8200)">
<text style="fill:#000000; fill-opacity:1; font-family:Arial,Helvetica Neue,Helvetica,sans-serif; font-size:48px; text-anchor:middle;" transform="rotate(0, 230.442, 1541.47)" x="230.442" y="1541.47">-15</text>
</g>
<g clip-path="url(#clip8200)">
<text style="fill:#000000; fill-opacity:1; font-family:Arial,Helvetica Neue,Helvetica,sans-serif; font-size:48px; text-anchor:middle;" transform="rotate(0, 573.858, 1541.47)" x="573.858" y="1541.47">-10</text>
</g>
<g clip-path="url(#clip8200)">
<text style="fill:#000000; fill-opacity:1; font-family:Arial,Helvetica Neue,Helvetica,sans-serif; font-size:48px; text-anchor:middle;" transform="rotate(0, 917.275, 1541.47)" x="917.275" y="1541.47">-5</text>
</g>
<g clip-path="url(#clip8200)">
<text style="fill:#000000; fill-opacity:1; font-family:Arial,Helvetica Neue,Helvetica,sans-serif; font-size:48px; text-anchor:middle;" transform="rotate(0, 1260.69, 1541.47)" x="1260.69" y="1541.47">0</text>
</g>
<g clip-path="url(#clip8200)">
<text style="fill:#000000; fill-opacity:1; font-family:Arial,Helvetica Neue,Helvetica,sans-serif; font-size:48px; text-anchor:middle;" transform="rotate(0, 1604.11, 1541.47)" x="1604.11" y="1541.47">5</text>
</g>
<g clip-path="url(#clip8200)">
<text style="fill:#000000; fill-opacity:1; font-family:Arial,Helvetica Neue,Helvetica,sans-serif; font-size:48px; text-anchor:middle;" transform="rotate(0, 1947.52, 1541.47)" x="1947.52" y="1541.47">10</text>
</g>
<g clip-path="url(#clip8200)">
<text style="fill:#000000; fill-opacity:1; font-family:Arial,Helvetica Neue,Helvetica,sans-serif; font-size:48px; text-anchor:middle;" transform="rotate(0, 2290.94, 1541.47)" x="2290.94" y="1541.47">15</text>
</g>
<g clip-path="url(#clip8200)">
<text style="fill:#000000; fill-opacity:1; font-family:Arial,Helvetica Neue,Helvetica,sans-serif; font-size:48px; text-anchor:end;" transform="rotate(0, 144.627, 1451.09)" x="144.627" y="1451.09">-10</text>
</g>
<g clip-path="url(#clip8200)">
<text style="fill:#000000; fill-opacity:1; font-family:Arial,Helvetica Neue,Helvetica,sans-serif; font-size:48px; text-anchor:end;" transform="rotate(0, 144.627, 1117.56)" x="144.627" y="1117.56">-5</text>
</g>
<g clip-path="url(#clip8200)">
<text style="fill:#000000; fill-opacity:1; font-family:Arial,Helvetica Neue,Helvetica,sans-serif; font-size:48px; text-anchor:end;" transform="rotate(0, 144.627, 784.036)" x="144.627" y="784.036">0</text>
</g>
<g clip-path="url(#clip8200)">
<text style="fill:#000000; fill-opacity:1; font-family:Arial,Helvetica Neue,Helvetica,sans-serif; font-size:48px; text-anchor:end;" transform="rotate(0, 144.627, 450.509)" x="144.627" y="450.509">5</text>
</g>
<g clip-path="url(#clip8200)">
<text style="fill:#000000; fill-opacity:1; font-family:Arial,Helvetica Neue,Helvetica,sans-serif; font-size:48px; text-anchor:end;" transform="rotate(0, 144.627, 116.982)" x="144.627" y="116.982">10</text>
</g>
<polyline clip-path="url(#clip8202)" style="stroke:#009af9; stroke-width:8; stroke-opacity:1; fill:none" points="
  230.442,1237.52 232.504,1237.36 234.567,1237.19 236.63,1237.02 238.692,1236.84 240.755,1236.66 242.817,1236.47 244.88,1236.28 246.942,1236.08 249.005,1235.87 
  251.067,1235.67 253.13,1235.45 255.193,1235.23 257.255,1235 259.318,1234.77 261.38,1234.52 263.443,1234.28 265.505,1234.02 267.568,1233.76 269.631,1233.49 
  271.693,1233.22 273.756,1232.94 275.818,1232.65 277.881,1232.35 279.943,1232.05 282.006,1231.73 284.068,1231.41 286.131,1231.08 288.194,1230.75 290.256,1230.4 
  292.319,1230.05 294.381,1229.68 296.444,1229.31 298.506,1228.93 300.569,1228.54 302.632,1228.14 304.694,1227.72 306.757,1227.3 308.819,1226.87 310.882,1226.43 
  312.944,1225.98 315.007,1225.52 317.069,1225.05 319.132,1224.56 321.195,1224.07 323.257,1223.56 325.32,1223.04 327.382,1222.51 329.445,1221.97 331.507,1221.41 
  333.57,1220.84 335.633,1220.26 337.695,1219.67 339.758,1219.06 341.82,1218.44 343.883,1217.81 345.945,1217.16 348.008,1216.5 350.07,1215.83 352.133,1215.14 
  354.196,1214.43 356.258,1213.71 358.321,1212.98 360.383,1212.23 362.446,1211.46 364.508,1210.68 366.571,1209.89 368.633,1209.08 370.696,1208.25 372.759,1207.4 
  374.821,1206.54 376.884,1205.66 378.946,1204.77 381.009,1203.85 383.071,1202.92 385.134,1201.98 387.197,1201.01 389.259,1200.03 391.322,1199.03 393.384,1198.01 
  395.447,1196.97 397.509,1195.91 399.572,1194.84 401.634,1193.74 403.697,1192.63 405.76,1191.5 407.822,1190.34 409.885,1189.17 411.947,1187.98 414.01,1186.77 
  416.072,1185.54 418.135,1184.29 420.198,1183.02 422.26,1181.74 424.323,1180.43 426.385,1179.1 428.448,1177.75 430.51,1176.38 432.573,1174.99 434.635,1173.58 
  436.698,1172.15 438.761,1170.7 440.823,1169.23 442.886,1167.74 444.948,1166.23 447.011,1164.71 449.073,1163.16 451.136,1161.59 453.199,1160 455.261,1158.39 
  457.324,1156.77 459.386,1155.12 461.449,1153.46 463.511,1151.77 465.574,1150.07 467.636,1148.35 469.699,1146.61 471.762,1144.85 473.824,1143.08 475.887,1141.29 
  477.949,1139.48 480.012,1137.65 482.074,1135.81 484.137,1133.95 486.2,1132.07 488.262,1130.18 490.325,1128.28 492.387,1126.35 494.45,1124.42 496.512,1122.47 
  498.575,1120.5 500.637,1118.52 502.7,1116.53 504.763,1114.53 506.825,1112.51 508.888,1110.49 510.95,1108.45 513.013,1106.4 515.075,1104.34 517.138,1102.26 
  519.2,1100.18 521.263,1098.09 523.326,1096 525.388,1093.89 527.451,1091.77 529.513,1089.65 531.576,1087.52 533.638,1085.39 535.701,1083.25 537.764,1081.1 
  539.826,1078.95 541.889,1076.8 543.951,1074.64 546.014,1072.47 548.076,1070.31 550.139,1068.14 552.201,1065.97 554.264,1063.8 556.327,1061.62 558.389,1059.45 
  560.452,1057.27 562.514,1055.1 564.577,1052.92 566.639,1050.75 568.702,1048.57 570.765,1046.4 572.827,1044.23 574.89,1042.06 576.952,1039.89 579.015,1037.73 
  581.077,1035.57 583.14,1033.41 585.202,1031.26 587.265,1029.11 589.328,1026.96 591.39,1024.82 593.453,1022.68 595.515,1020.54 597.578,1018.41 599.64,1016.29 
  601.703,1014.16 603.766,1012.05 605.828,1009.94 607.891,1007.83 609.953,1005.73 612.016,1003.63 614.078,1001.54 616.141,999.451 618.203,997.369 620.266,995.291 
  622.329,993.218 624.391,991.149 626.454,989.085 628.516,987.026 630.579,984.97 632.641,982.918 634.704,980.871 636.767,978.826 638.829,976.785 640.892,974.748 
  642.954,972.713 645.017,970.681 647.079,968.651 649.142,966.624 651.204,964.598 653.267,962.574 655.33,960.551 657.392,958.529 659.455,956.507 661.517,954.486 
  663.58,952.464 665.642,950.443 667.705,948.42 669.767,946.396 671.83,944.371 673.893,942.343 675.955,940.314 678.018,938.281 680.08,936.246 682.143,934.208 
  684.205,932.165 686.268,930.119 688.331,928.068 690.393,926.012 692.456,923.951 694.518,921.884 696.581,919.812 698.643,917.733 700.706,915.648 702.768,913.556 
  704.831,911.457 706.894,909.351 708.956,907.236 711.019,905.114 713.081,902.984 715.144,900.846 717.206,898.699 719.269,896.543 721.332,894.378 723.394,892.204 
  725.457,890.021 727.519,887.829 729.582,885.627 731.644,883.415 733.707,881.195 735.769,878.964 737.832,876.725 739.895,874.475 741.957,872.216 744.02,869.948 
  746.082,867.671 748.145,865.384 750.207,863.089 752.27,860.784 754.333,858.472 756.395,856.15 758.458,853.821 760.52,851.484 762.583,849.139 764.645,846.787 
  766.708,844.427 768.77,842.062 770.833,839.69 772.896,837.313 774.958,834.93 777.021,832.542 779.083,830.15 781.146,827.754 783.208,825.354 785.271,822.951 
  787.334,820.546 789.396,818.139 791.459,815.73 793.521,813.321 795.584,810.911 797.646,808.501 799.709,806.092 801.771,803.685 803.834,801.279 805.897,798.875 
  807.959,796.475 810.022,794.078 812.084,791.685 814.147,789.297 816.209,786.914 818.272,784.537 820.334,782.165 822.397,779.8 824.46,777.443 826.522,775.093 
  828.585,772.751 830.647,770.417 832.71,768.093 834.772,765.777 836.835,763.471 838.898,761.176 840.96,758.89 843.023,756.615 845.085,754.351 847.148,752.099 
  849.21,749.857 851.273,747.627 853.335,745.409 855.398,743.203 857.461,741.009 859.523,738.827 861.586,736.658 863.648,734.5 865.711,732.355 867.773,730.222 
  869.836,728.101 871.899,725.993 873.961,723.896 876.024,721.811 878.086,719.738 880.149,717.677 882.211,715.627 884.274,713.588 886.336,711.56 888.399,709.543 
  890.462,707.536 892.524,705.538 894.587,703.55 896.649,701.572 898.712,699.602 900.774,697.64 902.837,695.685 904.9,693.738 906.962,691.798 909.025,689.864 
  911.087,687.935 913.15,686.011 915.212,684.091 917.275,682.175 919.337,680.262 921.4,678.351 923.463,676.441 925.525,674.532 927.588,672.623 929.65,670.714 
  931.713,668.802 933.775,666.888 935.838,664.97 937.901,663.048 939.963,661.121 942.026,659.187 944.088,657.246 946.151,655.297 948.213,653.339 950.276,651.371 
  952.338,649.392 954.401,647.401 956.464,645.396 958.526,643.378 960.589,641.344 962.651,639.293 964.714,637.226 966.776,635.14 968.839,633.034 970.901,630.908 
  972.964,628.761 975.027,626.591 977.089,624.397 979.152,622.18 981.214,619.937 983.277,617.668 985.339,615.372 987.402,613.048 989.465,610.696 991.527,608.315 
  993.59,605.904 995.652,603.463 997.715,600.991 999.777,598.488 1001.84,595.955 1003.9,593.39 1005.97,590.794 1008.03,588.166 1010.09,585.508 1012.15,582.819 
  1014.22,580.1 1016.28,577.352 1018.34,574.574 1020.4,571.769 1022.47,568.936 1024.53,566.078 1026.59,563.195 1028.65,560.289 1030.72,557.362 1032.78,554.414 
  1034.84,551.448 1036.9,548.466 1038.97,545.469 1041.03,542.46 1043.09,539.441 1045.15,536.413 1047.22,533.38 1049.28,530.342 1051.34,527.303 1053.4,524.265 
  1055.47,521.23 1057.53,518.2 1059.59,515.177 1061.65,512.163 1063.72,509.161 1065.78,506.171 1067.84,503.196 1069.9,500.238 1071.97,497.297 1074.03,494.375 
  1076.09,491.472 1078.15,488.591 1080.22,485.73 1082.28,482.892 1084.34,480.075 1086.4,477.279 1088.47,474.504 1090.53,471.749 1092.59,469.013 1094.66,466.295 
  1096.72,463.593 1098.78,460.905 1100.84,458.227 1102.91,455.558 1104.97,452.893 1107.03,450.23 1109.09,447.564 1111.16,444.889 1113.22,442.202 1115.28,439.496 
  1117.34,436.765 1119.41,434.003 1121.47,431.201 1123.53,428.353 1125.59,425.45 1127.66,422.482 1129.72,419.442 1131.78,416.318 1133.84,413.101 1135.91,409.781 
  1137.97,406.347 1140.03,402.787 1142.09,399.093 1144.16,395.255 1146.22,391.262 1148.28,387.107 1150.34,382.784 1152.41,378.287 1154.47,373.614 1156.53,368.766 
  1158.59,363.747 1160.66,358.563 1162.72,353.226 1164.78,347.752 1166.84,342.163 1168.91,336.483 1170.97,330.744 1173.03,324.981 1175.1,319.234 1177.16,313.547 
  1179.22,307.964 1181.28,302.535 1183.35,297.307 1185.41,292.328 1187.47,287.644 1189.53,283.295 1191.6,279.32 1193.66,275.75 1195.72,272.607 1197.78,269.909 
  1199.85,267.664 1201.91,265.871 1203.97,264.521 1206.03,263.598 1208.1,263.076 1210.16,262.924 1212.22,263.105 1214.28,263.577 1216.35,264.293 1218.41,265.208 
  1220.47,266.271 1222.53,267.435 1224.6,268.653 1226.66,269.881 1228.72,271.079 1230.78,272.211 1232.85,273.243 1234.91,274.151 1236.97,274.912 1239.03,275.51 
  1241.1,275.934 1243.16,276.175 1245.22,276.233 1247.28,276.108 1249.35,275.803 1251.41,275.327 1253.47,274.69 1255.53,273.901 1257.6,272.975 1259.66,271.926 
  1261.72,270.768 1263.79,269.516 1265.85,268.187 1267.91,266.794 1269.97,265.354 1272.04,263.88 1274.1,262.387 1276.16,260.888 1278.22,259.395 1280.29,257.92 
  1282.35,256.474 1284.41,255.066 1286.47,253.705 1288.54,252.398 1290.6,251.151 1292.66,249.97 1294.72,248.859 1296.79,247.821 1298.85,246.859 1300.91,245.973 
  1302.97,245.165 1305.04,244.434 1307.1,243.779 1309.16,243.199 1311.22,242.691 1313.29,242.254 1315.35,241.884 1317.41,241.578 1319.47,241.333 1321.54,241.145 
  1323.6,241.011 1325.66,240.927 1327.72,240.888 1329.79,240.892 1331.85,240.935 1333.91,241.011 1335.97,241.118 1338.04,241.25 1340.1,241.406 1342.16,241.579 
  1344.23,241.766 1346.29,241.963 1348.35,242.166 1350.41,242.371 1352.48,242.574 1354.54,242.771 1356.6,242.958 1358.66,243.132 1360.73,243.29 1362.79,243.428 
  1364.85,243.542 1366.91,243.631 1368.98,243.691 1371.04,243.72 1373.1,243.717 1375.16,243.678 1377.23,243.604 1379.29,243.492 1381.35,243.341 1383.41,243.152 
  1385.48,242.924 1387.54,242.656 1389.6,242.35 1391.66,242.005 1393.73,241.622 1395.79,241.203 1397.85,240.748 1399.91,240.26 1401.98,239.739 1404.04,239.188 
  1406.1,238.608 1408.16,238.002 1410.23,237.371 1412.29,236.718 1414.35,236.046 1416.41,235.355 1418.48,234.65 1420.54,233.931 1422.6,233.201 1424.67,232.463 
  1426.73,231.718 1428.79,230.969 1430.85,230.218 1432.92,229.467 1434.98,228.717 1437.04,227.97 1439.1,227.228 1441.17,226.492 1443.23,225.764 1445.29,225.044 
  1447.35,224.335 1449.42,223.637 1451.48,222.951 1453.54,222.278 1455.6,221.618 1457.67,220.973 1459.73,220.342 1461.79,219.726 1463.85,219.126 1465.92,218.541 
  1467.98,217.971 1470.04,217.418 1472.1,216.88 1474.17,216.358 1476.23,215.851 1478.29,215.36 1480.35,214.884 1482.42,214.422 1484.48,213.976 1486.54,213.543 
  1488.6,213.125 1490.67,212.72 1492.73,212.328 1494.79,211.949 1496.85,211.582 1498.92,211.226 1500.98,210.882 1503.04,210.549 1505.1,210.227 1507.17,209.914 
  1509.23,209.61 1511.29,209.316 1513.36,209.03 1515.42,208.751 1517.48,208.481 1519.54,208.217 1521.61,207.96 1523.67,207.708 1525.73,207.463 1527.79,207.222 
  1529.86,206.986 1531.92,206.754 1533.98,206.526 1536.04,206.301 1538.11,206.079 1540.17,205.86 1542.23,205.642 1544.29,205.427 1546.36,205.212 1548.42,204.999 
  1550.48,204.785 1552.54,204.572 1554.61,204.359 1556.67,204.145 1558.73,203.931 1560.79,203.715 1562.86,203.497 1564.92,203.277 1566.98,203.056 1569.04,202.831 
  1571.11,202.604 1573.17,202.374 1575.23,202.141 1577.29,201.903 1579.36,201.662 1581.42,201.417 1583.48,201.168 1585.54,200.914 1587.61,200.655 1589.67,200.391 
  1591.73,200.123 1593.8,199.849 1595.86,199.569 1597.92,199.284 1599.98,198.994 1602.05,198.697 1604.11,198.395 1606.17,198.086 1608.23,197.772 1610.3,197.451 
  1612.36,197.124 1614.42,196.791 1616.48,196.452 1618.55,196.106 1620.61,195.754 1622.67,195.396 1624.73,195.032 1626.8,194.662 1628.86,194.285 1630.92,193.903 
  1632.98,193.514 1635.05,193.12 1637.11,192.72 1639.17,192.315 1641.23,191.904 1643.3,191.488 1645.36,191.067 1647.42,190.641 1649.48,190.21 1651.55,189.774 
  1653.61,189.335 1655.67,188.891 1657.73,188.443 1659.8,187.992 1661.86,187.537 1663.92,187.078 1665.98,186.617 1668.05,186.153 1670.11,185.687 1672.17,185.219 
  1674.24,184.748 1676.3,184.276 1678.36,183.802 1680.42,183.327 1682.49,182.851 1684.55,182.375 1686.61,181.897 1688.67,181.42 1690.74,180.943 1692.8,180.466 
  1694.86,179.989 1696.92,179.513 1698.99,179.038 1701.05,178.564 1703.11,178.091 1705.17,177.619 1707.24,177.15 1709.3,176.682 1711.36,176.216 1713.42,175.752 
  1715.49,175.29 1717.55,174.83 1719.61,174.373 1721.67,173.918 1723.74,173.466 1725.8,173.017 1727.86,172.57 1729.92,172.126 1731.99,171.685 1734.05,171.247 
  1736.11,170.811 1738.17,170.378 1740.24,169.948 1742.3,169.521 1744.36,169.097 1746.42,168.675 1748.49,168.256 1750.55,167.84 1752.61,167.426 1754.67,167.014 
  1756.74,166.605 1758.8,166.198 1760.86,165.794 1762.93,165.391 1764.99,164.99 1767.05,164.591 1769.11,164.194 1771.18,163.798 1773.24,163.404 1775.3,163.011 
  1777.36,162.619 1779.43,162.228 1781.49,161.837 1783.55,161.448 1785.61,161.059 1787.68,160.67 1789.74,160.281 1791.8,159.893 1793.86,159.504 1795.93,159.115 
  1797.99,158.725 1800.05,158.335 1802.11,157.944 1804.18,157.552 1806.24,157.159 1808.3,156.764 1810.36,156.369 1812.43,155.971 1814.49,155.572 1816.55,155.171 
  1818.61,154.768 1820.68,154.363 1822.74,153.956 1824.8,153.546 1826.86,153.134 1828.93,152.719 1830.99,152.301 1833.05,151.881 1835.11,151.458 1837.18,151.031 
  1839.24,150.602 1841.3,150.169 1843.37,149.733 1845.43,149.294 1847.49,148.852 1849.55,148.406 1851.62,147.956 1853.68,147.503 1855.74,147.046 1857.8,146.586 
  1859.87,146.122 1861.93,145.654 1863.99,145.183 1866.05,144.708 1868.12,144.23 1870.18,143.748 1872.24,143.262 1874.3,142.773 1876.37,142.28 1878.43,141.783 
  1880.49,141.284 1882.55,140.78 1884.62,140.274 1886.68,139.764 1888.74,139.251 1890.8,138.735 1892.87,138.216 1894.93,137.694 1896.99,137.169 1899.05,136.641 
  1901.12,136.111 1903.18,135.578 1905.24,135.043 1907.3,134.505 1909.37,133.965 1911.43,133.424 1913.49,132.88 1915.55,132.335 1917.62,131.788 1919.68,131.24 
  1921.74,130.691 1923.8,130.14 1925.87,129.588 1927.93,129.036 1929.99,128.483 1932.06,127.929 1934.12,127.376 1936.18,126.822 1938.24,126.268 1940.31,125.714 
  1942.37,125.161 1944.43,124.608 1946.49,124.056 1948.56,123.505 1950.62,122.955 1952.68,122.406 1954.74,121.859 1956.81,121.313 1958.87,120.769 1960.93,120.227 
  1962.99,119.687 1965.06,119.149 1967.12,118.614 1969.18,118.082 1971.24,117.552 1973.31,117.025 1975.37,116.501 1977.43,115.98 1979.49,115.463 1981.56,114.949 
  1983.62,114.438 1985.68,113.932 1987.74,113.429 1989.81,112.931 1991.87,112.436 1993.93,111.946 1995.99,111.46 1998.06,110.979 2000.12,110.503 2002.18,110.031 
  2004.24,109.563 2006.31,109.101 2008.37,108.644 2010.43,108.192 2012.5,107.745 2014.56,107.303 2016.62,106.867 2018.68,106.435 2020.75,106.01 2022.81,105.59 
  2024.87,105.175 2026.93,104.766 2029,104.362 2031.06,103.965 2033.12,103.573 2035.18,103.186 2037.25,102.806 2039.31,102.431 2041.37,102.062 2043.43,101.699 
  2045.5,101.341 2047.56,100.99 2049.62,100.644 2051.68,100.304 2053.75,99.97 2055.81,99.6417 2057.87,99.3193 2059.93,99.0026 2062,98.6918 2064.06,98.3867 
  2066.12,98.0873 2068.18,97.7937 2070.25,97.5057 2072.31,97.2234 2074.37,96.9467 2076.43,96.6755 2078.5,96.4099 2080.56,96.1497 2082.62,95.8951 2084.68,95.6458 
  2086.75,95.4019 2088.81,95.1633 2090.87,94.9299 2092.94,94.7019 2095,94.4789 2097.06,94.261 2099.12,94.0482 2101.19,93.8404 2103.25,93.6375 2105.31,93.4394 
  2107.37,93.2462 2109.44,93.0577 2111.5,92.8739 2113.56,92.6948 2115.62,92.5202 2117.69,92.3501 2119.75,92.1844 2121.81,92.0232 2123.87,91.8662 2125.94,91.7134 
  2128,91.5649 2130.06,91.4204 2132.12,91.28 2134.19,91.1435 2136.25,91.011 2138.31,90.8823 2140.37,90.7575 2142.44,90.6363 2144.5,90.5188 2146.56,90.4049 
  2148.62,90.2945 2150.69,90.1876 2152.75,90.084 2154.81,89.9838 2156.87,89.8869 2158.94,89.7932 2161,89.7026 2163.06,89.6152 2165.12,89.5307 2167.19,89.4492 
  2169.25,89.3706 2171.31,89.2949 2173.37,89.2219 2175.44,89.1517 2177.5,89.0842 2179.56,89.0192 2181.63,88.9568 2183.69,88.897 2185.75,88.8395 2187.81,88.7846 
  2189.88,88.7319 2191.94,88.6815 2194,88.6333 2196.06,88.5874 2198.13,88.5436 2200.19,88.5019 2202.25,88.4622 2204.31,88.4246 2206.38,88.3888 2208.44,88.355 
  2210.5,88.323 2212.56,88.2928 2214.63,88.2644 2216.69,88.2377 2218.75,88.2127 2220.81,88.1894 2222.88,88.1676 2224.94,88.1474 2227,88.1287 2229.06,88.1114 
  2231.13,88.0957 2233.19,88.0813 2235.25,88.0683 2237.31,88.0566 2239.38,88.0462 2241.44,88.037 2243.5,88.0291 2245.56,88.0225 2247.63,88.0169 2249.69,88.0124 
  2251.75,88.0091 2253.81,88.0068 2255.88,88.0056 2257.94,88.0053 2260,88.006 2262.07,88.0078 2264.13,88.0104 2266.19,88.0139 2268.25,88.0182 2270.32,88.0234 
  2272.38,88.0294 2274.44,88.0362 2276.5,88.0438 2278.57,88.052 2280.63,88.0611 2282.69,88.0707 2284.75,88.0812 2286.82,88.0922 2288.88,88.1038 2290.94,88.1161 
  
  "/>
<polyline clip-path="url(#clip8202)" style="stroke:#e26f46; stroke-width:8; stroke-opacity:1; fill:none" points="
  230.442,882.694 232.504,882.762 234.567,882.831 236.63,882.9 238.692,882.97 240.755,883.04 242.817,883.111 244.88,883.182 246.942,883.253 249.005,883.325 
  251.067,883.397 253.13,883.47 255.193,883.544 257.255,883.618 259.318,883.692 261.38,883.767 263.443,883.843 265.505,883.919 267.568,883.995 269.631,884.072 
  271.693,884.15 273.756,884.228 275.818,884.307 277.881,884.387 279.943,884.467 282.006,884.548 284.068,884.629 286.131,884.711 288.194,884.794 290.256,884.877 
  292.319,884.962 294.381,885.046 296.444,885.132 298.506,885.218 300.569,885.305 302.632,885.393 304.694,885.481 306.757,885.57 308.819,885.66 310.882,885.751 
  312.944,885.843 315.007,885.935 317.069,886.029 319.132,886.123 321.195,886.218 323.257,886.314 325.32,886.41 327.382,886.508 329.445,886.607 331.507,886.706 
  333.57,886.807 335.633,886.908 337.695,887.011 339.758,887.114 341.82,887.218 343.883,887.324 345.945,887.43 348.008,887.537 350.07,887.646 352.133,887.756 
  354.196,887.866 356.258,887.978 358.321,888.091 360.383,888.204 362.446,888.319 364.508,888.436 366.571,888.553 368.633,888.671 370.696,888.791 372.759,888.912 
  374.821,889.034 376.884,889.157 378.946,889.281 381.009,889.407 383.071,889.533 385.134,889.661 387.197,889.79 389.259,889.921 391.322,890.052 393.384,890.185 
  395.447,890.319 397.509,890.455 399.572,890.591 401.634,890.729 403.697,890.868 405.76,891.009 407.822,891.15 409.885,891.293 411.947,891.437 414.01,891.582 
  416.072,891.729 418.135,891.876 420.198,892.025 422.26,892.175 424.323,892.327 426.385,892.479 428.448,892.633 430.51,892.788 432.573,892.944 434.635,893.101 
  436.698,893.259 438.761,893.418 440.823,893.578 442.886,893.739 444.948,893.902 447.011,894.065 449.073,894.229 451.136,894.394 453.199,894.56 455.261,894.727 
  457.324,894.895 459.386,895.063 461.449,895.232 463.511,895.402 465.574,895.572 467.636,895.743 469.699,895.915 471.762,896.087 473.824,896.259 475.887,896.432 
  477.949,896.606 480.012,896.779 482.074,896.953 484.137,897.127 486.2,897.301 488.262,897.475 490.325,897.649 492.387,897.822 494.45,897.996 496.512,898.17 
  498.575,898.343 500.637,898.515 502.7,898.687 504.763,898.859 506.825,899.03 508.888,899.2 510.95,899.369 513.013,899.538 515.075,899.705 517.138,899.871 
  519.2,900.036 521.263,900.2 523.326,900.362 525.388,900.523 527.451,900.682 529.513,900.84 531.576,900.996 533.638,901.149 535.701,901.301 537.764,901.451 
  539.826,901.598 541.889,901.743 543.951,901.885 546.014,902.025 548.076,902.162 550.139,902.297 552.201,902.428 554.264,902.557 556.327,902.682 558.389,902.803 
  560.452,902.922 562.514,903.037 564.577,903.148 566.639,903.255 568.702,903.358 570.765,903.458 572.827,903.553 574.89,903.644 576.952,903.73 579.015,903.812 
  581.077,903.889 583.14,903.961 585.202,904.028 587.265,904.09 589.328,904.147 591.39,904.198 593.453,904.244 595.515,904.284 597.578,904.318 599.64,904.347 
  601.703,904.369 603.766,904.385 605.828,904.395 607.891,904.398 609.953,904.395 612.016,904.384 614.078,904.367 616.141,904.343 618.203,904.312 620.266,904.273 
  622.329,904.227 624.391,904.174 626.454,904.112 628.516,904.043 630.579,903.966 632.641,903.88 634.704,903.787 636.767,903.684 638.829,903.574 640.892,903.454 
  642.954,903.326 645.017,903.189 647.079,903.042 649.142,902.887 651.204,902.722 653.267,902.548 655.33,902.364 657.392,902.17 659.455,901.967 661.517,901.753 
  663.58,901.53 665.642,901.296 667.705,901.052 669.767,900.798 671.83,900.533 673.893,900.258 675.955,899.972 678.018,899.675 680.08,899.367 682.143,899.048 
  684.205,898.719 686.268,898.378 688.331,898.027 690.393,897.664 692.456,897.289 694.518,896.904 696.581,896.507 698.643,896.099 700.706,895.68 702.768,895.249 
  704.831,894.807 706.894,894.354 708.956,893.889 711.019,893.414 713.081,892.926 715.144,892.428 717.206,891.919 719.269,891.398 721.332,890.867 723.394,890.324 
  725.457,889.771 727.519,889.207 729.582,888.633 731.644,888.049 733.707,887.454 735.769,886.849 737.832,886.234 739.895,885.61 741.957,884.976 744.02,884.333 
  746.082,883.681 748.145,883.02 750.207,882.35 752.27,881.673 754.333,880.987 756.395,880.294 758.458,879.594 760.52,878.886 762.583,878.172 764.645,877.452 
  766.708,876.725 768.77,875.993 770.833,875.256 772.896,874.514 774.958,873.768 777.021,873.017 779.083,872.263 781.146,871.506 783.208,870.746 785.271,869.984 
  787.334,869.22 789.396,868.454 791.459,867.688 793.521,866.921 795.584,866.154 797.646,865.387 799.709,864.621 801.771,863.856 803.834,863.094 805.897,862.333 
  807.959,861.575 810.022,860.82 812.084,860.069 814.147,859.321 816.209,858.579 818.272,857.84 820.334,857.108 822.397,856.38 824.46,855.659 826.522,854.945 
  828.585,854.237 830.647,853.536 832.71,852.843 834.772,852.158 836.835,851.481 838.898,850.813 840.96,850.153 843.023,849.503 845.085,848.862 847.148,848.23 
  849.21,847.609 851.273,846.998 853.335,846.397 855.398,845.807 857.461,845.227 859.523,844.658 861.586,844.1 863.648,843.554 865.711,843.019 867.773,842.495 
  869.836,841.982 871.899,841.481 873.961,840.991 876.024,840.513 878.086,840.046 880.149,839.591 882.211,839.147 884.274,838.715 886.336,838.294 888.399,837.884 
  890.462,837.485 892.524,837.097 894.587,836.72 896.649,836.354 898.712,835.998 900.774,835.652 902.837,835.316 904.9,834.99 906.962,834.673 909.025,834.365 
  911.087,834.067 913.15,833.776 915.212,833.494 917.275,833.22 919.337,832.953 921.4,832.694 923.463,832.441 925.525,832.194 927.588,831.953 929.65,831.717 
  931.713,831.486 933.775,831.26 935.838,831.037 937.901,830.817 939.963,830.6 942.026,830.385 944.088,830.172 946.151,829.96 948.213,829.748 950.276,829.535 
  952.338,829.322 954.401,829.107 956.464,828.889 958.526,828.669 960.589,828.445 962.651,828.217 964.714,827.984 966.776,827.745 968.839,827.5 970.901,827.247 
  972.964,826.987 975.027,826.718 977.089,826.44 979.152,826.152 981.214,825.854 983.277,825.545 985.339,825.224 987.402,824.891 989.465,824.544 991.527,824.185 
  993.59,823.811 995.652,823.423 997.715,823.021 999.777,822.603 1001.84,822.17 1003.9,821.721 1005.97,821.257 1008.03,820.776 1010.09,820.279 1012.15,819.767 
  1014.22,819.238 1016.28,818.693 1018.34,818.133 1020.4,817.557 1022.47,816.967 1024.53,816.362 1026.59,815.743 1028.65,815.11 1030.72,814.465 1032.78,813.808 
  1034.84,813.14 1036.9,812.461 1038.97,811.774 1041.03,811.078 1043.09,810.374 1045.15,809.665 1047.22,808.951 1049.28,808.232 1051.34,807.511 1053.4,806.789 
  1055.47,806.066 1057.53,805.345 1059.59,804.625 1061.65,803.909 1063.72,803.197 1065.78,802.491 1067.84,801.792 1069.9,801.101 1071.97,800.419 1074.03,799.747 
  1076.09,799.085 1078.15,798.435 1080.22,797.798 1082.28,797.174 1084.34,796.564 1086.4,795.968 1088.47,795.388 1090.53,794.822 1092.59,794.273 1094.66,793.74 
  1096.72,793.224 1098.78,792.724 1100.84,792.241 1102.91,791.776 1104.97,791.327 1107.03,790.895 1109.09,790.481 1111.16,790.083 1113.22,789.702 1115.28,789.338 
  1117.34,788.991 1119.41,788.659 1121.47,788.344 1123.53,788.044 1125.59,787.76 1127.66,787.491 1129.72,787.236 1131.78,786.996 1133.84,786.77 1135.91,786.557 
  1137.97,786.357 1140.03,786.17 1142.09,785.995 1144.16,785.83 1146.22,785.676 1148.28,785.531 1150.34,785.395 1152.41,785.266 1154.47,785.143 1156.53,785.025 
  1158.59,784.909 1160.66,784.794 1162.72,784.678 1164.78,784.558 1166.84,784.431 1168.91,784.296 1170.97,784.148 1173.03,783.985 1175.1,783.803 1177.16,783.598 
  1179.22,783.368 1181.28,783.109 1183.35,782.818 1185.41,782.492 1187.47,782.129 1189.53,781.726 1191.6,781.283 1193.66,780.8 1195.72,780.275 1197.78,779.711 
  1199.85,779.108 1201.91,778.47 1203.97,777.799 1206.03,777.101 1208.1,776.379 1210.16,775.638 1212.22,774.886 1214.28,774.126 1216.35,773.367 1218.41,772.613 
  1220.47,771.87 1222.53,771.145 1224.6,770.442 1226.66,769.766 1228.72,769.122 1230.78,768.513 1232.85,767.941 1234.91,767.41 1236.97,766.92 1239.03,766.472 
  1241.1,766.067 1243.16,765.703 1245.22,765.381 1247.28,765.098 1249.35,764.853 1251.41,764.644 1253.47,764.469 1255.53,764.325 1257.6,764.21 1259.66,764.12 
  1261.72,764.054 1263.79,764.009 1265.85,763.981 1267.91,763.969 1269.97,763.97 1272.04,763.98 1274.1,763.999 1276.16,764.023 1278.22,764.05 1280.29,764.077 
  1282.35,764.104 1284.41,764.126 1286.47,764.143 1288.54,764.151 1290.6,764.149 1292.66,764.135 1294.72,764.107 1296.79,764.063 1298.85,764 1300.91,763.917 
  1302.97,763.813 1305.04,763.685 1307.1,763.531 1309.16,763.352 1311.22,763.145 1313.29,762.909 1315.35,762.645 1317.41,762.351 1319.47,762.027 1321.54,761.673 
  1323.6,761.29 1325.66,760.878 1327.72,760.438 1329.79,759.972 1331.85,759.48 1333.91,758.964 1335.97,758.425 1338.04,757.866 1340.1,757.289 1342.16,756.695 
  1344.23,756.088 1346.29,755.469 1348.35,754.84 1350.41,754.204 1352.48,753.563 1354.54,752.92 1356.6,752.277 1358.66,751.635 1360.73,750.997 1362.79,750.365 
  1364.85,749.741 1366.91,749.126 1368.98,748.522 1371.04,747.931 1373.1,747.353 1375.16,746.789 1377.23,746.241 1379.29,745.71 1381.35,745.195 1383.41,744.698 
  1385.48,744.218 1387.54,743.755 1389.6,743.311 1391.66,742.883 1393.73,742.472 1395.79,742.078 1397.85,741.7 1399.91,741.338 1401.98,740.989 1404.04,740.654 
  1406.1,740.332 1408.16,740.022 1410.23,739.722 1412.29,739.432 1414.35,739.15 1416.41,738.875 1418.48,738.607 1420.54,738.343 1422.6,738.084 1424.67,737.827 
  1426.73,737.572 1428.79,737.318 1430.85,737.063 1432.92,736.807 1434.98,736.549 1437.04,736.288 1439.1,736.023 1441.17,735.753 1443.23,735.478 1445.29,735.197 
  1447.35,734.91 1449.42,734.616 1451.48,734.314 1453.54,734.005 1455.6,733.687 1457.67,733.361 1459.73,733.026 1461.79,732.683 1463.85,732.33 1465.92,731.969 
  1467.98,731.598 1470.04,731.218 1472.1,730.829 1474.17,730.431 1476.23,730.024 1478.29,729.608 1480.35,729.183 1482.42,728.75 1484.48,728.308 1486.54,727.858 
  1488.6,727.4 1490.67,726.934 1492.73,726.46 1494.79,725.979 1496.85,725.49 1498.92,724.995 1500.98,724.493 1503.04,723.985 1505.1,723.47 1507.17,722.95 
  1509.23,722.423 1511.29,721.892 1513.36,721.355 1515.42,720.813 1517.48,720.267 1519.54,719.716 1521.61,719.161 1523.67,718.603 1525.73,718.04 1527.79,717.474 
  1529.86,716.905 1531.92,716.333 1533.98,715.758 1536.04,715.181 1538.11,714.601 1540.17,714.02 1542.23,713.436 1544.29,712.851 1546.36,712.265 1548.42,711.677 
  1550.48,711.088 1552.54,710.498 1554.61,709.908 1556.67,709.317 1558.73,708.726 1560.79,708.135 1562.86,707.543 1564.92,706.952 1566.98,706.362 1569.04,705.772 
  1571.11,705.182 1573.17,704.594 1575.23,704.006 1577.29,703.419 1579.36,702.834 1581.42,702.25 1583.48,701.668 1585.54,701.087 1587.61,700.508 1589.67,699.931 
  1591.73,699.355 1593.8,698.782 1595.86,698.211 1597.92,697.642 1599.98,697.075 1602.05,696.511 1604.11,695.949 1606.17,695.39 1608.23,694.834 1610.3,694.28 
  1612.36,693.728 1614.42,693.18 1616.48,692.634 1618.55,692.092 1620.61,691.552 1622.67,691.015 1624.73,690.481 1626.8,689.95 1628.86,689.422 1630.92,688.897 
  1632.98,688.375 1635.05,687.856 1637.11,687.34 1639.17,686.827 1641.23,686.317 1643.3,685.81 1645.36,685.306 1647.42,684.805 1649.48,684.306 1651.55,683.811 
  1653.61,683.319 1655.67,682.829 1657.73,682.342 1659.8,681.858 1661.86,681.376 1663.92,680.897 1665.98,680.421 1668.05,679.947 1670.11,679.476 1672.17,679.007 
  1674.24,678.541 1676.3,678.077 1678.36,677.615 1680.42,677.155 1682.49,676.697 1684.55,676.242 1686.61,675.788 1688.67,675.337 1690.74,674.887 1692.8,674.439 
  1694.86,673.993 1696.92,673.548 1698.99,673.105 1701.05,672.664 1703.11,672.224 1705.17,671.786 1707.24,671.349 1709.3,670.914 1711.36,670.48 1713.42,670.047 
  1715.49,669.615 1717.55,669.184 1719.61,668.755 1721.67,668.326 1723.74,667.899 1725.8,667.473 1727.86,667.047 1729.92,666.623 1731.99,666.199 1734.05,665.776 
  1736.11,665.354 1738.17,664.933 1740.24,664.513 1742.3,664.093 1744.36,663.675 1746.42,663.257 1748.49,662.839 1750.55,662.423 1752.61,662.007 1754.67,661.591 
  1756.74,661.177 1758.8,660.763 1760.86,660.349 1762.93,659.937 1764.99,659.525 1767.05,659.113 1769.11,658.703 1771.18,658.293 1773.24,657.883 1775.3,657.474 
  1777.36,657.066 1779.43,656.659 1781.49,656.252 1783.55,655.846 1785.61,655.441 1787.68,655.036 1789.74,654.632 1791.8,654.229 1793.86,653.826 1795.93,653.425 
  1797.99,653.024 1800.05,652.624 1802.11,652.224 1804.18,651.826 1806.24,651.428 1808.3,651.031 1810.36,650.635 1812.43,650.239 1814.49,649.845 1816.55,649.451 
  1818.61,649.059 1820.68,648.667 1822.74,648.276 1824.8,647.887 1826.86,647.498 1828.93,647.11 1830.99,646.723 1833.05,646.337 1835.11,645.952 1837.18,645.568 
  1839.24,645.185 1841.3,644.804 1843.37,644.423 1845.43,644.043 1847.49,643.665 1849.55,643.288 1851.62,642.912 1853.68,642.536 1855.74,642.163 1857.8,641.79 
  1859.87,641.418 1861.93,641.048 1863.99,640.679 1866.05,640.311 1868.12,639.945 1870.18,639.579 1872.24,639.215 1874.3,638.853 1876.37,638.491 1878.43,638.131 
  1880.49,637.772 1882.55,637.415 1884.62,637.059 1886.68,636.704 1888.74,636.351 1890.8,635.999 1892.87,635.649 1894.93,635.3 1896.99,634.952 1899.05,634.606 
  1901.12,634.262 1903.18,633.919 1905.24,633.577 1907.3,633.237 1909.37,632.898 1911.43,632.561 1913.49,632.226 1915.55,631.892 1917.62,631.56 1919.68,631.229 
  1921.74,630.9 1923.8,630.572 1925.87,630.246 1927.93,629.922 1929.99,629.6 1932.06,629.279 1934.12,628.96 1936.18,628.642 1938.24,628.326 1940.31,628.012 
  1942.37,627.7 1944.43,627.389 1946.49,627.08 1948.56,626.773 1950.62,626.468 1952.68,626.164 1954.74,625.863 1956.81,625.563 1958.87,625.264 1960.93,624.968 
  1962.99,624.674 1965.06,624.381 1967.12,624.09 1969.18,623.801 1971.24,623.514 1973.31,623.229 1975.37,622.945 1977.43,622.664 1979.49,622.384 1981.56,622.106 
  1983.62,621.831 1985.68,621.557 1987.74,621.285 1989.81,621.014 1991.87,620.746 1993.93,620.48 1995.99,620.215 1998.06,619.953 2000.12,619.692 2002.18,619.433 
  2004.24,619.177 2006.31,618.922 2008.37,618.669 2010.43,618.418 2012.5,618.169 2014.56,617.922 2016.62,617.676 2018.68,617.433 2020.75,617.192 2022.81,616.952 
  2024.87,616.714 2026.93,616.479 2029,616.245 2031.06,616.013 2033.12,615.783 2035.18,615.554 2037.25,615.328 2039.31,615.104 2041.37,614.881 2043.43,614.66 
  2045.5,614.441 2047.56,614.224 2049.62,614.009 2051.68,613.796 2053.75,613.584 2055.81,613.374 2057.87,613.166 2059.93,612.96 2062,612.756 2064.06,612.553 
  2066.12,612.352 2068.18,612.153 2070.25,611.956 2072.31,611.76 2074.37,611.566 2076.43,611.374 2078.5,611.183 2080.56,610.995 2082.62,610.808 2084.68,610.622 
  2086.75,610.438 2088.81,610.256 2090.87,610.076 2092.94,609.897 2095,609.719 2097.06,609.544 2099.12,609.37 2101.19,609.197 2103.25,609.026 2105.31,608.857 
  2107.37,608.689 2109.44,608.523 2111.5,608.358 2113.56,608.195 2115.62,608.033 2117.69,607.872 2119.75,607.714 2121.81,607.556 2123.87,607.4 2125.94,607.246 
  2128,607.093 2130.06,606.941 2132.12,606.791 2134.19,606.642 2136.25,606.494 2138.31,606.348 2140.37,606.203 2142.44,606.059 2144.5,605.917 2146.56,605.776 
  2148.62,605.637 2150.69,605.498 2152.75,605.361 2154.81,605.226 2156.87,605.091 2158.94,604.958 2161,604.826 2163.06,604.695 2165.12,604.565 2167.19,604.437 
  2169.25,604.31 2171.31,604.183 2173.37,604.059 2175.44,603.935 2177.5,603.812 2179.56,603.691 2181.63,603.57 2183.69,603.451 2185.75,603.333 2187.81,603.216 
  2189.88,603.1 2191.94,602.985 2194,602.871 2196.06,602.758 2198.13,602.646 2200.19,602.535 2202.25,602.425 2204.31,602.317 2206.38,602.209 2208.44,602.102 
  2210.5,601.996 2212.56,601.891 2214.63,601.787 2216.69,601.684 2218.75,601.582 2220.81,601.481 2222.88,601.381 2224.94,601.282 2227,601.183 2229.06,601.086 
  2231.13,600.989 2233.19,600.893 2235.25,600.799 2237.31,600.705 2239.38,600.611 2241.44,600.519 2243.5,600.428 2245.56,600.337 2247.63,600.247 2249.69,600.158 
  2251.75,600.07 2253.81,599.982 2255.88,599.896 2257.94,599.81 2260,599.725 2262.07,599.641 2264.13,599.557 2266.19,599.474 2268.25,599.392 2270.32,599.311 
  2272.38,599.23 2274.44,599.15 2276.5,599.071 2278.57,598.993 2280.63,598.915 2282.69,598.838 2284.75,598.761 2286.82,598.686 2288.88,598.611 2290.94,598.536 
  
  "/>
<polyline clip-path="url(#clip8202)" style="stroke:#3da44d; stroke-width:8; stroke-opacity:1; fill:none" points="
  230.442,624.997 232.504,624.66 234.567,624.321 236.63,623.978 238.692,623.631 240.755,623.281 242.817,622.928 244.88,622.571 246.942,622.211 249.005,621.847 
  251.067,621.479 253.13,621.107 255.193,620.731 257.255,620.352 259.318,619.968 261.38,619.58 263.443,619.188 265.505,618.792 267.568,618.391 269.631,617.986 
  271.693,617.576 273.756,617.161 275.818,616.742 277.881,616.318 279.943,615.889 282.006,615.455 284.068,615.016 286.131,614.572 288.194,614.122 290.256,613.667 
  292.319,613.207 294.381,612.741 296.444,612.269 298.506,611.792 300.569,611.309 302.632,610.819 304.694,610.324 306.757,609.822 308.819,609.314 310.882,608.8 
  312.944,608.279 315.007,607.751 317.069,607.217 319.132,606.676 321.195,606.127 323.257,605.572 325.32,605.01 327.382,604.44 329.445,603.862 331.507,603.277 
  333.57,602.685 335.633,602.084 337.695,601.476 339.758,600.86 341.82,600.235 343.883,599.602 345.945,598.961 348.008,598.311 350.07,597.652 352.133,596.985 
  354.196,596.309 356.258,595.624 358.321,594.929 360.383,594.226 362.446,593.513 364.508,592.79 366.571,592.058 368.633,591.316 370.696,590.565 372.759,589.803 
  374.821,589.031 376.884,588.25 378.946,587.458 381.009,586.655 383.071,585.842 385.134,585.019 387.197,584.185 389.259,583.34 391.322,582.484 393.384,581.617 
  395.447,580.739 397.509,579.851 399.572,578.951 401.634,578.039 403.697,577.117 405.76,576.183 407.822,575.237 409.885,574.28 411.947,573.312 414.01,572.332 
  416.072,571.34 418.135,570.337 420.198,569.322 422.26,568.295 424.323,567.257 426.385,566.207 428.448,565.145 430.51,564.071 432.573,562.986 434.635,561.889 
  436.698,560.78 438.761,559.66 440.823,558.528 442.886,557.385 444.948,556.23 447.011,555.064 449.073,553.886 451.136,552.697 453.199,551.497 455.261,550.286 
  457.324,549.064 459.386,547.832 461.449,546.588 463.511,545.334 465.574,544.07 467.636,542.795 469.699,541.51 471.762,540.216 473.824,538.911 475.887,537.598 
  477.949,536.274 480.012,534.942 482.074,533.601 484.137,532.251 486.2,530.892 488.262,529.526 490.325,528.151 492.387,526.769 494.45,525.38 496.512,523.983 
  498.575,522.579 500.637,521.169 502.7,519.753 504.763,518.33 506.825,516.902 508.888,515.469 510.95,514.031 513.013,512.588 515.075,511.14 517.138,509.689 
  519.2,508.234 521.263,506.776 523.326,505.314 525.388,503.85 527.451,502.384 529.513,500.916 531.576,499.447 533.638,497.976 535.701,496.505 537.764,495.033 
  539.826,493.561 541.889,492.089 543.951,490.618 546.014,489.148 548.076,487.679 550.139,486.213 552.201,484.748 554.264,483.286 556.327,481.826 558.389,480.37 
  560.452,478.917 562.514,477.468 564.577,476.023 566.639,474.583 568.702,473.148 570.765,471.718 572.827,470.293 574.89,468.874 576.952,467.461 579.015,466.055 
  581.077,464.655 583.14,463.262 585.202,461.876 587.265,460.498 589.328,459.128 591.39,457.765 593.453,456.411 595.515,455.065 597.578,453.728 599.64,452.399 
  601.703,451.08 603.766,449.77 605.828,448.469 607.891,447.178 609.953,445.897 612.016,444.626 614.078,443.365 616.141,442.113 618.203,440.873 620.266,439.643 
  622.329,438.423 624.391,437.214 626.454,436.016 628.516,434.828 630.579,433.652 632.641,432.486 634.704,431.331 636.767,430.188 638.829,429.056 640.892,427.934 
  642.954,426.824 645.017,425.725 647.079,424.638 649.142,423.561 651.204,422.496 653.267,421.442 655.33,420.399 657.392,419.367 659.455,418.346 661.517,417.337 
  663.58,416.338 665.642,415.35 667.705,414.373 669.767,413.408 671.83,412.452 673.893,411.508 675.955,410.574 678.018,409.651 680.08,408.739 682.143,407.836 
  684.205,406.944 686.268,406.063 688.331,405.191 690.393,404.33 692.456,403.479 694.518,402.637 696.581,401.805 698.643,400.983 700.706,400.171 702.768,399.368 
  704.831,398.574 706.894,397.79 708.956,397.015 711.019,396.249 713.081,395.491 715.144,394.743 717.206,394.004 719.269,393.273 721.332,392.55 723.394,391.836 
  725.457,391.131 727.519,390.434 729.582,389.745 731.644,389.064 733.707,388.391 735.769,387.725 737.832,387.068 739.895,386.418 741.957,385.776 744.02,385.142 
  746.082,384.515 748.145,383.895 750.207,383.283 752.27,382.677 754.333,382.079 756.395,381.489 758.458,380.905 760.52,380.328 762.583,379.758 764.645,379.195 
  766.708,378.638 768.77,378.089 770.833,377.546 772.896,377.01 774.958,376.48 777.021,375.957 779.083,375.44 781.146,374.93 783.208,374.427 785.271,373.929 
  787.334,373.439 789.396,372.954 791.459,372.476 793.521,372.004 795.584,371.539 797.646,371.079 799.709,370.626 801.771,370.179 803.834,369.739 805.897,369.304 
  807.959,368.876 810.022,368.454 812.084,368.038 814.147,367.628 816.209,367.225 818.272,366.827 820.334,366.436 822.397,366.05 824.46,365.671 826.522,365.298 
  828.585,364.931 830.647,364.57 832.71,364.214 834.772,363.865 836.835,363.522 838.898,363.185 840.96,362.854 843.023,362.529 845.085,362.21 847.148,361.897 
  849.21,361.589 851.273,361.288 853.335,360.992 855.398,360.702 857.461,360.418 859.523,360.14 861.586,359.867 863.648,359.6 865.711,359.339 867.773,359.084 
  869.836,358.834 871.899,358.589 873.961,358.35 876.024,358.116 878.086,357.888 880.149,357.665 882.211,357.447 884.274,357.235 886.336,357.027 888.399,356.825 
  890.462,356.628 892.524,356.435 894.587,356.247 896.649,356.064 898.712,355.886 900.774,355.712 902.837,355.543 904.9,355.377 906.962,355.217 909.025,355.06 
  911.087,354.907 913.15,354.758 915.212,354.613 917.275,354.471 919.337,354.333 921.4,354.198 923.463,354.066 925.525,353.938 927.588,353.812 929.65,353.689 
  931.713,353.568 933.775,353.45 935.838,353.334 937.901,353.219 939.963,353.107 942.026,352.996 944.088,352.886 946.151,352.778 948.213,352.671 950.276,352.564 
  952.338,352.458 954.401,352.352 956.464,352.246 958.526,352.14 960.589,352.034 962.651,351.927 964.714,351.819 966.776,351.709 968.839,351.599 970.901,351.487 
  972.964,351.373 975.027,351.257 977.089,351.138 979.152,351.018 981.214,350.894 983.277,350.767 985.339,350.637 987.402,350.504 989.465,350.368 991.527,350.227 
  993.59,350.083 995.652,349.934 997.715,349.782 999.777,349.625 1001.84,349.464 1003.9,349.299 1005.97,349.129 1008.03,348.954 1010.09,348.776 1012.15,348.593 
  1014.22,348.405 1016.28,348.214 1018.34,348.018 1020.4,347.819 1022.47,347.616 1024.53,347.409 1026.59,347.199 1028.65,346.987 1030.72,346.772 1032.78,346.555 
  1034.84,346.336 1036.9,346.116 1038.97,345.895 1041.03,345.673 1043.09,345.452 1045.15,345.232 1047.22,345.013 1049.28,344.796 1051.34,344.582 1053.4,344.371 
  1055.47,344.164 1057.53,343.962 1059.59,343.765 1061.65,343.574 1063.72,343.39 1065.78,343.214 1067.84,343.046 1069.9,342.887 1071.97,342.739 1074.03,342.602 
  1076.09,342.476 1078.15,342.364 1080.22,342.265 1082.28,342.181 1084.34,342.114 1086.4,342.063 1088.47,342.031 1090.53,342.018 1092.59,342.026 1094.66,342.057 
  1096.72,342.111 1098.78,342.192 1100.84,342.3 1102.91,342.438 1104.97,342.607 1107.03,342.811 1109.09,343.052 1111.16,343.332 1113.22,343.656 1115.28,344.025 
  1117.34,344.445 1119.41,344.918 1121.47,345.45 1123.53,346.044 1125.59,346.707 1127.66,347.442 1129.72,348.256 1131.78,349.156 1133.84,350.146 1135.91,351.233 
  1137.97,352.425 1140.03,353.728 1142.09,355.148 1144.16,356.693 1146.22,358.368 1148.28,360.18 1150.34,362.132 1152.41,364.23 1154.47,366.476 1156.53,368.871 
  1158.59,371.415 1160.66,374.105 1162.72,376.937 1164.78,379.902 1166.84,382.991 1168.91,386.19 1170.97,389.483 1173.03,392.852 1175.1,396.277 1177.16,399.733 
  1179.22,403.196 1181.28,406.64 1183.35,410.038 1185.41,413.366 1187.47,416.598 1189.53,419.711 1191.6,422.685 1193.66,425.501 1195.72,428.147 1197.78,430.61 
  1199.85,432.885 1201.91,434.969 1203.97,436.862 1206.03,438.571 1208.1,440.103 1210.16,441.467 1212.22,442.678 1214.28,443.75 1216.35,444.698 1218.41,445.54 
  1220.47,446.292 1222.53,446.97 1224.6,447.592 1226.66,448.17 1228.72,448.721 1230.78,449.255 1232.85,449.785 1234.91,450.32 1236.97,450.867 1239.03,451.434 
  1241.1,452.023 1243.16,452.64 1245.22,453.285 1247.28,453.959 1249.35,454.662 1251.41,455.39 1253.47,456.142 1255.53,456.914 1257.6,457.701 1259.66,458.498 
  1261.72,459.298 1263.79,460.097 1265.85,460.888 1267.91,461.663 1269.97,462.417 1272.04,463.144 1274.1,463.836 1276.16,464.488 1278.22,465.095 1280.29,465.653 
  1282.35,466.156 1284.41,466.603 1286.47,466.992 1288.54,467.322 1290.6,467.593 1292.66,467.806 1294.72,467.965 1296.79,468.073 1298.85,468.134 1300.91,468.156 
  1302.97,468.143 1305.04,468.103 1307.1,468.044 1309.16,467.972 1311.22,467.896 1313.29,467.823 1315.35,467.76 1317.41,467.713 1319.47,467.688 1321.54,467.69 
  1323.6,467.724 1325.66,467.793 1327.72,467.899 1329.79,468.045 1331.85,468.231 1333.91,468.457 1335.97,468.724 1338.04,469.03 1340.1,469.373 1342.16,469.753 
  1344.23,470.167 1346.29,470.613 1348.35,471.088 1350.41,471.59 1352.48,472.116 1354.54,472.663 1356.6,473.23 1358.66,473.814 1360.73,474.412 1362.79,475.022 
  1364.85,475.642 1366.91,476.271 1368.98,476.906 1371.04,477.546 1373.1,478.19 1375.16,478.836 1377.23,479.483 1379.29,480.13 1381.35,480.776 1383.41,481.42 
  1385.48,482.062 1387.54,482.701 1389.6,483.336 1391.66,483.968 1393.73,484.595 1395.79,485.218 1397.85,485.835 1399.91,486.448 1401.98,487.056 1404.04,487.658 
  1406.1,488.254 1408.16,488.846 1410.23,489.431 1412.29,490.012 1414.35,490.586 1416.41,491.155 1418.48,491.719 1420.54,492.277 1422.6,492.829 1424.67,493.377 
  1426.73,493.918 1428.79,494.455 1430.85,494.986 1432.92,495.513 1434.98,496.034 1437.04,496.55 1439.1,497.062 1441.17,497.569 1443.23,498.071 1445.29,498.569 
  1447.35,499.062 1449.42,499.551 1451.48,500.036 1453.54,500.517 1455.6,500.994 1457.67,501.467 1459.73,501.937 1461.79,502.403 1463.85,502.866 1465.92,503.325 
  1467.98,503.782 1470.04,504.235 1472.1,504.686 1474.17,505.134 1476.23,505.58 1478.29,506.023 1480.35,506.464 1482.42,506.903 1484.48,507.341 1486.54,507.776 
  1488.6,508.21 1490.67,508.643 1492.73,509.074 1494.79,509.505 1496.85,509.934 1498.92,510.362 1500.98,510.79 1503.04,511.218 1505.1,511.645 1507.17,512.072 
  1509.23,512.499 1511.29,512.926 1513.36,513.354 1515.42,513.782 1517.48,514.21 1519.54,514.64 1521.61,515.07 1523.67,515.501 1525.73,515.934 1527.79,516.368 
  1529.86,516.804 1531.92,517.241 1533.98,517.681 1536.04,518.122 1538.11,518.566 1540.17,519.012 1542.23,519.461 1544.29,519.912 1546.36,520.366 1548.42,520.823 
  1550.48,521.283 1552.54,521.747 1554.61,522.214 1556.67,522.684 1558.73,523.158 1560.79,523.636 1562.86,524.118 1564.92,524.605 1566.98,525.095 1569.04,525.59 
  1571.11,526.089 1573.17,526.593 1575.23,527.101 1577.29,527.614 1579.36,528.132 1581.42,528.656 1583.48,529.184 1585.54,529.717 1587.61,530.256 1589.67,530.799 
  1591.73,531.348 1593.8,531.903 1595.86,532.463 1597.92,533.028 1599.98,533.599 1602.05,534.175 1604.11,534.757 1606.17,535.344 1608.23,535.936 1610.3,536.534 
  1612.36,537.137 1614.42,537.745 1616.48,538.359 1618.55,538.977 1620.61,539.601 1622.67,540.23 1624.73,540.863 1626.8,541.501 1628.86,542.144 1630.92,542.791 
  1632.98,543.442 1635.05,544.097 1637.11,544.756 1639.17,545.419 1641.23,546.085 1643.3,546.754 1645.36,547.427 1647.42,548.102 1649.48,548.78 1651.55,549.46 
  1653.61,550.142 1655.67,550.826 1657.73,551.511 1659.8,552.197 1661.86,552.885 1663.92,553.573 1665.98,554.261 1668.05,554.95 1670.11,555.638 1672.17,556.325 
  1674.24,557.012 1676.3,557.697 1678.36,558.381 1680.42,559.063 1682.49,559.744 1684.55,560.421 1686.61,561.096 1688.67,561.768 1690.74,562.437 1692.8,563.102 
  1694.86,563.764 1696.92,564.421 1698.99,565.074 1701.05,565.723 1703.11,566.366 1705.17,567.004 1707.24,567.638 1709.3,568.265 1711.36,568.887 1713.42,569.503 
  1715.49,570.113 1717.55,570.716 1719.61,571.313 1721.67,571.904 1723.74,572.487 1725.8,573.064 1727.86,573.634 1729.92,574.196 1731.99,574.752 1734.05,575.3 
  1736.11,575.84 1738.17,576.373 1740.24,576.899 1742.3,577.417 1744.36,577.927 1746.42,578.43 1748.49,578.925 1750.55,579.412 1752.61,579.892 1754.67,580.364 
  1756.74,580.828 1758.8,581.285 1760.86,581.734 1762.93,582.176 1764.99,582.61 1767.05,583.037 1769.11,583.456 1771.18,583.868 1773.24,584.273 1775.3,584.67 
  1777.36,585.061 1779.43,585.444 1781.49,585.821 1783.55,586.19 1785.61,586.553 1787.68,586.909 1789.74,587.259 1791.8,587.603 1793.86,587.94 1795.93,588.271 
  1797.99,588.595 1800.05,588.914 1802.11,589.227 1804.18,589.534 1806.24,589.836 1808.3,590.132 1810.36,590.422 1812.43,590.708 1814.49,590.988 1816.55,591.263 
  1818.61,591.533 1820.68,591.798 1822.74,592.059 1824.8,592.315 1826.86,592.566 1828.93,592.814 1830.99,593.056 1833.05,593.295 1835.11,593.53 1837.18,593.76 
  1839.24,593.987 1841.3,594.21 1843.37,594.43 1845.43,594.645 1847.49,594.858 1849.55,595.067 1851.62,595.272 1853.68,595.475 1855.74,595.674 1857.8,595.871 
  1859.87,596.064 1861.93,596.255 1863.99,596.442 1866.05,596.628 1868.12,596.81 1870.18,596.99 1872.24,597.167 1874.3,597.342 1876.37,597.515 1878.43,597.685 
  1880.49,597.853 1882.55,598.019 1884.62,598.183 1886.68,598.345 1888.74,598.504 1890.8,598.662 1892.87,598.818 1894.93,598.972 1896.99,599.124 1899.05,599.274 
  1901.12,599.423 1903.18,599.57 1905.24,599.715 1907.3,599.858 1909.37,600 1911.43,600.141 1913.49,600.28 1915.55,600.417 1917.62,600.553 1919.68,600.688 
  1921.74,600.821 1923.8,600.953 1925.87,601.083 1927.93,601.212 1929.99,601.34 1932.06,601.466 1934.12,601.591 1936.18,601.715 1938.24,601.837 1940.31,601.959 
  1942.37,602.079 1944.43,602.198 1946.49,602.316 1948.56,602.432 1950.62,602.547 1952.68,602.662 1954.74,602.775 1956.81,602.886 1958.87,602.997 1960.93,603.107 
  1962.99,603.215 1965.06,603.323 1967.12,603.429 1969.18,603.534 1971.24,603.638 1973.31,603.741 1975.37,603.843 1977.43,603.944 1979.49,604.044 1981.56,604.142 
  1983.62,604.24 1985.68,604.337 1987.74,604.432 1989.81,604.527 1991.87,604.62 1993.93,604.712 1995.99,604.804 1998.06,604.894 2000.12,604.983 2002.18,605.072 
  2004.24,605.159 2006.31,605.245 2008.37,605.33 2010.43,605.414 2012.5,605.498 2014.56,605.58 2016.62,605.661 2018.68,605.741 2020.75,605.82 2022.81,605.899 
  2024.87,605.976 2026.93,606.052 2029,606.127 2031.06,606.202 2033.12,606.275 2035.18,606.347 2037.25,606.419 2039.31,606.489 2041.37,606.559 2043.43,606.628 
  2045.5,606.695 2047.56,606.762 2049.62,606.828 2051.68,606.893 2053.75,606.957 2055.81,607.021 2057.87,607.083 2059.93,607.144 2062,607.205 2064.06,607.265 
  2066.12,607.324 2068.18,607.382 2070.25,607.439 2072.31,607.495 2074.37,607.551 2076.43,607.606 2078.5,607.659 2080.56,607.713 2082.62,607.765 2084.68,607.817 
  2086.75,607.867 2088.81,607.917 2090.87,607.967 2092.94,608.015 2095,608.063 2097.06,608.11 2099.12,608.156 2101.19,608.202 2103.25,608.247 2105.31,608.291 
  2107.37,608.335 2109.44,608.378 2111.5,608.42 2113.56,608.461 2115.62,608.502 2117.69,608.543 2119.75,608.582 2121.81,608.621 2123.87,608.66 2125.94,608.697 
  2128,608.734 2130.06,608.771 2132.12,608.807 2134.19,608.842 2136.25,608.877 2138.31,608.912 2140.37,608.945 2142.44,608.979 2144.5,609.011 2146.56,609.043 
  2148.62,609.075 2150.69,609.106 2152.75,609.137 2154.81,609.167 2156.87,609.196 2158.94,609.226 2161,609.254 2163.06,609.282 2165.12,609.31 2167.19,609.337 
  2169.25,609.364 2171.31,609.391 2173.37,609.417 2175.44,609.442 2177.5,609.467 2179.56,609.492 2181.63,609.516 2183.69,609.54 2185.75,609.564 2187.81,609.587 
  2189.88,609.61 2191.94,609.632 2194,609.654 2196.06,609.676 2198.13,609.697 2200.19,609.718 2202.25,609.739 2204.31,609.759 2206.38,609.779 2208.44,609.799 
  2210.5,609.818 2212.56,609.838 2214.63,609.856 2216.69,609.875 2218.75,609.893 2220.81,609.911 2222.88,609.928 2224.94,609.945 2227,609.962 2229.06,609.979 
  2231.13,609.996 2233.19,610.012 2235.25,610.028 2237.31,610.043 2239.38,610.059 2241.44,610.074 2243.5,610.089 2245.56,610.104 2247.63,610.118 2249.69,610.132 
  2251.75,610.146 2253.81,610.16 2255.88,610.174 2257.94,610.187 2260,610.2 2262.07,610.213 2264.13,610.226 2266.19,610.238 2268.25,610.251 2270.32,610.263 
  2272.38,610.275 2274.44,610.287 2276.5,610.298 2278.57,610.309 2280.63,610.321 2282.69,610.332 2284.75,610.343 2286.82,610.353 2288.88,610.364 2290.94,610.374 
  
  "/>
<polyline clip-path="url(#clip8202)" style="stroke:#c271d2; stroke-width:8; stroke-opacity:1; fill:none" points="
  230.442,760.121 232.504,760.401 234.567,760.684 236.63,760.969 238.692,761.257 240.755,761.548 242.817,761.842 244.88,762.139 246.942,762.438 249.005,762.741 
  251.067,763.046 253.13,763.355 255.193,763.667 257.255,763.982 259.318,764.3 261.38,764.622 263.443,764.947 265.505,765.276 267.568,765.608 269.631,765.944 
  271.693,766.283 273.756,766.627 275.818,766.974 277.881,767.325 279.943,767.68 282.006,768.039 284.068,768.402 286.131,768.769 288.194,769.141 290.256,769.517 
  292.319,769.897 294.381,770.282 296.444,770.672 298.506,771.066 300.569,771.465 302.632,771.869 304.694,772.277 306.757,772.691 308.819,773.11 310.882,773.534 
  312.944,773.964 315.007,774.399 317.069,774.839 319.132,775.285 321.195,775.736 323.257,776.194 325.32,776.657 327.382,777.126 329.445,777.601 331.507,778.082 
  333.57,778.57 335.633,779.064 337.695,779.564 339.758,780.071 341.82,780.584 343.883,781.104 345.945,781.631 348.008,782.165 350.07,782.706 352.133,783.254 
  354.196,783.81 356.258,784.372 358.321,784.942 360.383,785.52 362.446,786.105 364.508,786.698 366.571,787.298 368.633,787.907 370.696,788.523 372.759,789.148 
  374.821,789.781 376.884,790.422 378.946,791.071 381.009,791.729 383.071,792.395 385.134,793.07 387.197,793.753 389.259,794.445 391.322,795.146 393.384,795.856 
  395.447,796.575 397.509,797.303 399.572,798.04 401.634,798.786 403.697,799.542 405.76,800.306 407.822,801.08 409.885,801.863 411.947,802.656 414.01,803.458 
  416.072,804.27 418.135,805.091 420.198,805.921 422.26,806.761 424.323,807.611 426.385,808.47 428.448,809.339 430.51,810.217 432.573,811.105 434.635,812.002 
  436.698,812.909 438.761,813.825 440.823,814.751 442.886,815.686 444.948,816.631 447.011,817.585 449.073,818.548 451.136,819.52 453.199,820.501 455.261,821.492 
  457.324,822.491 459.386,823.499 461.449,824.516 463.511,825.542 465.574,826.576 467.636,827.619 469.699,828.669 471.762,829.728 473.824,830.795 475.887,831.87 
  477.949,832.952 480.012,834.042 482.074,835.14 484.137,836.244 486.2,837.355 488.262,838.474 490.325,839.598 492.387,840.73 494.45,841.867 496.512,843.01 
  498.575,844.159 500.637,845.314 502.7,846.473 504.763,847.638 506.825,848.808 508.888,849.982 510.95,851.16 513.013,852.342 515.075,853.528 517.138,854.717 
  519.2,855.91 521.263,857.106 523.326,858.304 525.388,859.504 527.451,860.707 529.513,861.911 531.576,863.117 533.638,864.325 535.701,865.533 537.764,866.742 
  539.826,867.951 541.889,869.16 543.951,870.369 546.014,871.578 548.076,872.786 550.139,873.992 552.201,875.198 554.264,876.402 556.327,877.604 558.389,878.804 
  560.452,880.001 562.514,881.196 564.577,882.388 566.639,883.577 568.702,884.762 570.765,885.944 572.827,887.122 574.89,888.296 576.952,889.465 579.015,890.63 
  581.077,891.79 583.14,892.945 585.202,894.095 587.265,895.24 589.328,896.379 591.39,897.512 593.453,898.64 595.515,899.761 597.578,900.876 599.64,901.985 
  601.703,903.087 603.766,904.183 605.828,905.272 607.891,906.354 609.953,907.429 612.016,908.497 614.078,909.558 616.141,910.612 618.203,911.658 620.266,912.697 
  622.329,913.729 624.391,914.753 626.454,915.769 628.516,916.778 630.579,917.78 632.641,918.773 634.704,919.759 636.767,920.738 638.829,921.709 640.892,922.672 
  642.954,923.628 645.017,924.576 647.079,925.516 649.142,926.449 651.204,927.374 653.267,928.292 655.33,929.203 657.392,930.106 659.455,931.002 661.517,931.89 
  663.58,932.771 665.642,933.646 667.705,934.513 669.767,935.373 671.83,936.227 673.893,937.073 675.955,937.913 678.018,938.747 680.08,939.573 682.143,940.394 
  684.205,941.208 686.268,942.015 688.331,942.817 690.393,943.613 692.456,944.402 694.518,945.186 696.581,945.964 698.643,946.736 700.706,947.503 702.768,948.264 
  704.831,949.02 706.894,949.771 708.956,950.516 711.019,951.256 713.081,951.991 715.144,952.722 717.206,953.447 719.269,954.168 721.332,954.884 723.394,955.595 
  725.457,956.302 727.519,957.004 729.582,957.702 731.644,958.395 733.707,959.084 735.769,959.769 737.832,960.45 739.895,961.126 741.957,961.798 744.02,962.466 
  746.082,963.13 748.145,963.79 750.207,964.446 752.27,965.098 754.333,965.746 756.395,966.389 758.458,967.029 760.52,967.665 762.583,968.296 764.645,968.923 
  766.708,969.547 768.77,970.166 770.833,970.781 772.896,971.392 774.958,971.998 777.021,972.601 779.083,973.199 781.146,973.792 783.208,974.381 785.271,974.966 
  787.334,975.546 789.396,976.122 791.459,976.692 793.521,977.259 795.584,977.82 797.646,978.377 799.709,978.928 801.771,979.475 803.834,980.016 805.897,980.553 
  807.959,981.084 810.022,981.61 812.084,982.13 814.147,982.646 816.209,983.155 818.272,983.66 820.334,984.158 822.397,984.651 824.46,985.139 826.522,985.62 
  828.585,986.096 830.647,986.566 832.71,987.03 834.772,987.488 836.835,987.94 838.898,988.386 840.96,988.826 843.023,989.26 845.085,989.688 847.148,990.11 
  849.21,990.526 851.273,990.935 853.335,991.339 855.398,991.737 857.461,992.128 859.523,992.514 861.586,992.893 863.648,993.267 865.711,993.635 867.773,993.997 
  869.836,994.353 871.899,994.703 873.961,995.048 876.024,995.388 878.086,995.721 880.149,996.05 882.211,996.373 884.274,996.691 886.336,997.004 888.399,997.313 
  890.462,997.616 892.524,997.915 894.587,998.209 896.649,998.5 898.712,998.786 900.774,999.068 902.837,999.346 904.9,999.621 906.962,999.893 909.025,1000.16 
  911.087,1000.43 913.15,1000.69 915.212,1000.95 917.275,1001.21 919.337,1001.47 921.4,1001.72 923.463,1001.98 925.525,1002.23 927.588,1002.48 929.65,1002.74 
  931.713,1002.99 933.775,1003.24 935.838,1003.49 937.901,1003.75 939.963,1004.01 942.026,1004.26 944.088,1004.52 946.151,1004.79 948.213,1005.05 950.276,1005.32 
  952.338,1005.6 954.401,1005.87 956.464,1006.16 958.526,1006.44 960.589,1006.74 962.651,1007.04 964.714,1007.35 966.776,1007.66 968.839,1007.98 970.901,1008.31 
  972.964,1008.65 975.027,1008.99 977.089,1009.35 979.152,1009.72 981.214,1010.09 983.277,1010.48 985.339,1010.88 987.402,1011.28 989.465,1011.71 991.527,1012.14 
  993.59,1012.58 995.652,1013.04 997.715,1013.51 999.777,1013.99 1001.84,1014.49 1003.9,1015 1005.97,1015.52 1008.03,1016.05 1010.09,1016.6 1012.15,1017.16 
  1014.22,1017.74 1016.28,1018.32 1018.34,1018.92 1020.4,1019.53 1022.47,1020.16 1024.53,1020.79 1026.59,1021.43 1028.65,1022.09 1030.72,1022.75 1032.78,1023.42 
  1034.84,1024.1 1036.9,1024.79 1038.97,1025.48 1041.03,1026.18 1043.09,1026.88 1045.15,1027.59 1047.22,1028.3 1049.28,1029.01 1051.34,1029.72 1053.4,1030.43 
  1055.47,1031.14 1057.53,1031.84 1059.59,1032.55 1061.65,1033.24 1063.72,1033.94 1065.78,1034.62 1067.84,1035.3 1069.9,1035.97 1071.97,1036.64 1074.03,1037.29 
  1076.09,1037.93 1078.15,1038.56 1080.22,1039.18 1082.28,1039.79 1084.34,1040.39 1086.4,1040.97 1088.47,1041.54 1090.53,1042.1 1092.59,1042.64 1094.66,1043.17 
  1096.72,1043.69 1098.78,1044.19 1100.84,1044.68 1102.91,1045.15 1104.97,1045.61 1107.03,1046.06 1109.09,1046.49 1111.16,1046.92 1113.22,1047.33 1115.28,1047.72 
  1117.34,1048.11 1119.41,1048.48 1121.47,1048.84 1123.53,1049.19 1125.59,1049.53 1127.66,1049.86 1129.72,1050.18 1131.78,1050.49 1133.84,1050.79 1135.91,1051.09 
  1137.97,1051.37 1140.03,1051.64 1142.09,1051.91 1144.16,1052.17 1146.22,1052.42 1148.28,1052.66 1150.34,1052.89 1152.41,1053.12 1154.47,1053.35 1156.53,1053.57 
  1158.59,1053.78 1160.66,1054 1162.72,1054.21 1164.78,1054.42 1166.84,1054.64 1168.91,1054.86 1170.97,1055.08 1173.03,1055.32 1175.1,1055.57 1177.16,1055.83 
  1179.22,1056.1 1181.28,1056.39 1183.35,1056.71 1185.41,1057.04 1187.47,1057.4 1189.53,1057.78 1191.6,1058.19 1193.66,1058.62 1195.72,1059.07 1197.78,1059.54 
  1199.85,1060.03 1201.91,1060.54 1203.97,1061.07 1206.03,1061.62 1208.1,1062.17 1210.16,1062.75 1212.22,1063.33 1214.28,1063.92 1216.35,1064.52 1218.41,1065.14 
  1220.47,1065.76 1222.53,1066.39 1224.6,1067.04 1226.66,1067.7 1228.72,1068.38 1230.78,1069.06 1232.85,1069.76 1234.91,1070.48 1236.97,1071.2 1239.03,1071.94 
  1241.1,1072.69 1243.16,1073.45 1245.22,1074.22 1247.28,1074.99 1249.35,1075.76 1251.41,1076.54 1253.47,1077.31 1255.53,1078.09 1257.6,1078.86 1259.66,1079.62 
  1261.72,1080.38 1263.79,1081.13 1265.85,1081.87 1267.91,1082.61 1269.97,1083.34 1272.04,1084.06 1274.1,1084.77 1276.16,1085.48 1278.22,1086.18 1280.29,1086.88 
  1282.35,1087.57 1284.41,1088.25 1286.47,1088.93 1288.54,1089.61 1290.6,1090.27 1292.66,1090.93 1294.72,1091.58 1296.79,1092.22 1298.85,1092.85 1300.91,1093.46 
  1302.97,1094.04 1305.04,1094.61 1307.1,1095.15 1309.16,1095.66 1311.22,1096.15 1313.29,1096.6 1315.35,1097.01 1317.41,1097.39 1319.47,1097.74 1321.54,1098.05 
  1323.6,1098.32 1325.66,1098.56 1327.72,1098.77 1329.79,1098.95 1331.85,1099.11 1333.91,1099.24 1335.97,1099.37 1338.04,1099.48 1340.1,1099.58 1342.16,1099.69 
  1344.23,1099.81 1346.29,1099.93 1348.35,1100.08 1350.41,1100.24 1352.48,1100.44 1354.54,1100.68 1356.6,1100.95 1358.66,1101.27 1360.73,1101.64 1362.79,1102.06 
  1364.85,1102.55 1366.91,1103.09 1368.98,1103.7 1371.04,1104.37 1373.1,1105.11 1375.16,1105.92 1377.23,1106.8 1379.29,1107.75 1381.35,1108.78 1383.41,1109.87 
  1385.48,1111.02 1387.54,1112.25 1389.6,1113.54 1391.66,1114.89 1393.73,1116.29 1395.79,1117.76 1397.85,1119.27 1399.91,1120.83 1401.98,1122.43 1404.04,1124.07 
  1406.1,1125.75 1408.16,1127.45 1410.23,1129.18 1412.29,1130.92 1414.35,1132.68 1416.41,1134.44 1418.48,1136.21 1420.54,1137.97 1422.6,1139.73 1424.67,1141.48 
  1426.73,1143.21 1428.79,1144.92 1430.85,1146.61 1432.92,1148.27 1434.98,1149.89 1437.04,1151.49 1439.1,1153.04 1441.17,1154.56 1443.23,1156.03 1445.29,1157.46 
  1447.35,1158.84 1449.42,1160.17 1451.48,1161.45 1453.54,1162.68 1455.6,1163.87 1457.67,1165 1459.73,1166.07 1461.79,1167.1 1463.85,1168.08 1465.92,1169 
  1467.98,1169.87 1470.04,1170.69 1472.1,1171.47 1474.17,1172.19 1476.23,1172.87 1478.29,1173.5 1480.35,1174.09 1482.42,1174.63 1484.48,1175.13 1486.54,1175.59 
  1488.6,1176.02 1490.67,1176.4 1492.73,1176.75 1494.79,1177.06 1496.85,1177.34 1498.92,1177.58 1500.98,1177.8 1503.04,1177.99 1505.1,1178.15 1507.17,1178.29 
  1509.23,1178.4 1511.29,1178.49 1513.36,1178.56 1515.42,1178.6 1517.48,1178.63 1519.54,1178.64 1521.61,1178.64 1523.67,1178.62 1525.73,1178.59 1527.79,1178.54 
  1529.86,1178.48 1531.92,1178.42 1533.98,1178.34 1536.04,1178.25 1538.11,1178.16 1540.17,1178.06 1542.23,1177.96 1544.29,1177.85 1546.36,1177.74 1548.42,1177.62 
  1550.48,1177.5 1552.54,1177.38 1554.61,1177.26 1556.67,1177.14 1558.73,1177.02 1560.79,1176.9 1562.86,1176.78 1564.92,1176.66 1566.98,1176.55 1569.04,1176.44 
  1571.11,1176.33 1573.17,1176.23 1575.23,1176.13 1577.29,1176.04 1579.36,1175.95 1581.42,1175.86 1583.48,1175.79 1585.54,1175.71 1587.61,1175.65 1589.67,1175.59 
  1591.73,1175.54 1593.8,1175.49 1595.86,1175.45 1597.92,1175.42 1599.98,1175.39 1602.05,1175.38 1604.11,1175.36 1606.17,1175.36 1608.23,1175.37 1610.3,1175.38 
  1612.36,1175.4 1614.42,1175.42 1616.48,1175.46 1618.55,1175.5 1620.61,1175.54 1622.67,1175.6 1624.73,1175.66 1626.8,1175.73 1628.86,1175.8 1630.92,1175.88 
  1632.98,1175.96 1635.05,1176.06 1637.11,1176.15 1639.17,1176.25 1641.23,1176.36 1643.3,1176.47 1645.36,1176.59 1647.42,1176.7 1649.48,1176.83 1651.55,1176.95 
  1653.61,1177.08 1655.67,1177.21 1657.73,1177.34 1659.8,1177.47 1661.86,1177.6 1663.92,1177.74 1665.98,1177.87 1668.05,1178 1670.11,1178.13 1672.17,1178.26 
  1674.24,1178.39 1676.3,1178.52 1678.36,1178.64 1680.42,1178.76 1682.49,1178.87 1684.55,1178.99 1686.61,1179.09 1688.67,1179.19 1690.74,1179.29 1692.8,1179.38 
  1694.86,1179.46 1696.92,1179.53 1698.99,1179.6 1701.05,1179.66 1703.11,1179.71 1705.17,1179.75 1707.24,1179.78 1709.3,1179.8 1711.36,1179.81 1713.42,1179.81 
  1715.49,1179.8 1717.55,1179.78 1719.61,1179.75 1721.67,1179.7 1723.74,1179.65 1725.8,1179.58 1727.86,1179.49 1729.92,1179.4 1731.99,1179.29 1734.05,1179.16 
  1736.11,1179.03 1738.17,1178.88 1740.24,1178.71 1742.3,1178.53 1744.36,1178.33 1746.42,1178.12 1748.49,1177.9 1750.55,1177.66 1752.61,1177.4 1754.67,1177.13 
  1756.74,1176.84 1758.8,1176.53 1760.86,1176.21 1762.93,1175.88 1764.99,1175.53 1767.05,1175.16 1769.11,1174.77 1771.18,1174.37 1773.24,1173.95 1775.3,1173.52 
  1777.36,1173.07 1779.43,1172.6 1781.49,1172.12 1783.55,1171.62 1785.61,1171.1 1787.68,1170.57 1789.74,1170.02 1791.8,1169.46 1793.86,1168.88 1795.93,1168.28 
  1797.99,1167.66 1800.05,1167.03 1802.11,1166.39 1804.18,1165.72 1806.24,1165.04 1808.3,1164.35 1810.36,1163.64 1812.43,1162.91 1814.49,1162.17 1816.55,1161.41 
  1818.61,1160.63 1820.68,1159.84 1822.74,1159.04 1824.8,1158.22 1826.86,1157.38 1828.93,1156.53 1830.99,1155.67 1833.05,1154.79 1835.11,1153.89 1837.18,1152.98 
  1839.24,1152.06 1841.3,1151.12 1843.37,1150.17 1845.43,1149.21 1847.49,1148.23 1849.55,1147.24 1851.62,1146.23 1853.68,1145.21 1855.74,1144.18 1857.8,1143.14 
  1859.87,1142.08 1861.93,1141.02 1863.99,1139.94 1866.05,1138.84 1868.12,1137.74 1870.18,1136.63 1872.24,1135.5 1874.3,1134.36 1876.37,1133.22 1878.43,1132.06 
  1880.49,1130.9 1882.55,1129.72 1884.62,1128.54 1886.68,1127.34 1888.74,1126.14 1890.8,1124.93 1892.87,1123.71 1894.93,1122.48 1896.99,1121.25 1899.05,1120.01 
  1901.12,1118.76 1903.18,1117.51 1905.24,1116.25 1907.3,1114.98 1909.37,1113.71 1911.43,1112.44 1913.49,1111.16 1915.55,1109.87 1917.62,1108.58 1919.68,1107.29 
  1921.74,1106 1923.8,1104.7 1925.87,1103.4 1927.93,1102.1 1929.99,1100.8 1932.06,1099.49 1934.12,1098.19 1936.18,1096.88 1938.24,1095.58 1940.31,1094.27 
  1942.37,1092.97 1944.43,1091.67 1946.49,1090.36 1948.56,1089.06 1950.62,1087.77 1952.68,1086.47 1954.74,1085.18 1956.81,1083.89 1958.87,1082.6 1960.93,1081.32 
  1962.99,1080.05 1965.06,1078.77 1967.12,1077.51 1969.18,1076.24 1971.24,1074.99 1973.31,1073.74 1975.37,1072.49 1977.43,1071.25 1979.49,1070.02 1981.56,1068.8 
  1983.62,1067.58 1985.68,1066.37 1987.74,1065.17 1989.81,1063.98 1991.87,1062.79 1993.93,1061.61 1995.99,1060.45 1998.06,1059.29 2000.12,1058.14 2002.18,1057 
  2004.24,1055.87 2006.31,1054.75 2008.37,1053.64 2010.43,1052.54 2012.5,1051.45 2014.56,1050.37 2016.62,1049.3 2018.68,1048.24 2020.75,1047.19 2022.81,1046.16 
  2024.87,1045.13 2026.93,1044.12 2029,1043.12 2031.06,1042.12 2033.12,1041.14 2035.18,1040.18 2037.25,1039.22 2039.31,1038.27 2041.37,1037.34 2043.43,1036.41 
  2045.5,1035.5 2047.56,1034.6 2049.62,1033.72 2051.68,1032.84 2053.75,1031.98 2055.81,1031.12 2057.87,1030.28 2059.93,1029.45 2062,1028.63 2064.06,1027.83 
  2066.12,1027.03 2068.18,1026.25 2070.25,1025.48 2072.31,1024.72 2074.37,1023.97 2076.43,1023.23 2078.5,1022.5 2080.56,1021.79 2082.62,1021.08 2084.68,1020.39 
  2086.75,1019.7 2088.81,1019.03 2090.87,1018.37 2092.94,1017.72 2095,1017.08 2097.06,1016.45 2099.12,1015.83 2101.19,1015.22 2103.25,1014.62 2105.31,1014.03 
  2107.37,1013.45 2109.44,1012.88 2111.5,1012.32 2113.56,1011.77 2115.62,1011.23 2117.69,1010.7 2119.75,1010.17 2121.81,1009.66 2123.87,1009.16 2125.94,1008.66 
  2128,1008.17 2130.06,1007.7 2132.12,1007.23 2134.19,1006.77 2136.25,1006.31 2138.31,1005.87 2140.37,1005.43 2142.44,1005 2144.5,1004.58 2146.56,1004.17 
  2148.62,1003.76 2150.69,1003.36 2152.75,1002.97 2154.81,1002.59 2156.87,1002.21 2158.94,1001.84 2161,1001.48 2163.06,1001.12 2165.12,1000.77 2167.19,1000.43 
  2169.25,1000.09 2171.31,999.765 2173.37,999.441 2175.44,999.123 2177.5,998.812 2179.56,998.506 2181.63,998.206 2183.69,997.912 2185.75,997.624 2187.81,997.341 
  2189.88,997.063 2191.94,996.791 2194,996.524 2196.06,996.262 2198.13,996.005 2200.19,995.753 2202.25,995.505 2204.31,995.263 2206.38,995.025 2208.44,994.792 
  2210.5,994.564 2212.56,994.339 2214.63,994.119 2216.69,993.904 2218.75,993.692 2220.81,993.485 2222.88,993.281 2224.94,993.082 2227,992.886 2229.06,992.695 
  2231.13,992.506 2233.19,992.322 2235.25,992.141 2237.31,991.964 2239.38,991.79 2241.44,991.619 2243.5,991.452 2245.56,991.287 2247.63,991.126 2249.69,990.969 
  2251.75,990.814 2253.81,990.662 2255.88,990.513 2257.94,990.367 2260,990.224 2262.07,990.083 2264.13,989.945 2266.19,989.81 2268.25,989.678 2270.32,989.548 
  2272.38,989.42 2274.44,989.295 2276.5,989.172 2278.57,989.052 2280.63,988.934 2282.69,988.818 2284.75,988.704 2286.82,988.593 2288.88,988.483 2290.94,988.376 
  
  "/>
<polyline clip-path="url(#clip8202)" style="stroke:#ac8d18; stroke-width:8; stroke-opacity:1; fill:none" points="
  230.442,1430.07 232.504,1430.45 234.567,1430.82 236.63,1431.19 238.692,1431.56 240.755,1431.93 242.817,1432.3 244.88,1432.66 246.942,1433.02 249.005,1433.38 
  251.067,1433.74 253.13,1434.09 255.193,1434.44 257.255,1434.78 259.318,1435.13 261.38,1435.47 263.443,1435.81 265.505,1436.14 267.568,1436.47 269.631,1436.8 
  271.693,1437.12 273.756,1437.44 275.818,1437.76 277.881,1438.07 279.943,1438.38 282.006,1438.69 284.068,1438.99 286.131,1439.29 288.194,1439.58 290.256,1439.87 
  292.319,1440.15 294.381,1440.43 296.444,1440.71 298.506,1440.98 300.569,1441.25 302.632,1441.51 304.694,1441.76 306.757,1442.01 308.819,1442.26 310.882,1442.5 
  312.944,1442.74 315.007,1442.96 317.069,1443.19 319.132,1443.41 321.195,1443.62 323.257,1443.82 325.32,1444.03 327.382,1444.22 329.445,1444.41 331.507,1444.59 
  333.57,1444.76 335.633,1444.93 337.695,1445.09 339.758,1445.25 341.82,1445.39 343.883,1445.53 345.945,1445.67 348.008,1445.79 350.07,1445.91 352.133,1446.02 
  354.196,1446.12 356.258,1446.22 358.321,1446.31 360.383,1446.38 362.446,1446.46 364.508,1446.52 366.571,1446.57 368.633,1446.62 370.696,1446.65 372.759,1446.68 
  374.821,1446.7 376.884,1446.71 378.946,1446.71 381.009,1446.71 383.071,1446.69 385.134,1446.66 387.197,1446.63 389.259,1446.58 391.322,1446.53 393.384,1446.46 
  395.447,1446.39 397.509,1446.3 399.572,1446.21 401.634,1446.1 403.697,1445.99 405.76,1445.86 407.822,1445.73 409.885,1445.58 411.947,1445.43 414.01,1445.26 
  416.072,1445.08 418.135,1444.89 420.198,1444.7 422.26,1444.49 424.323,1444.27 426.385,1444.04 428.448,1443.8 430.51,1443.54 432.573,1443.28 434.635,1443.01 
  436.698,1442.72 438.761,1442.43 440.823,1442.13 442.886,1441.81 444.948,1441.48 447.011,1441.15 449.073,1440.8 451.136,1440.44 453.199,1440.07 455.261,1439.69 
  457.324,1439.3 459.386,1438.9 461.449,1438.49 463.511,1438.07 465.574,1437.64 467.636,1437.2 469.699,1436.76 471.762,1436.3 473.824,1435.83 475.887,1435.35 
  477.949,1434.87 480.012,1434.37 482.074,1433.87 484.137,1433.35 486.2,1432.83 488.262,1432.3 490.325,1431.76 492.387,1431.22 494.45,1430.67 496.512,1430.1 
  498.575,1429.54 500.637,1428.96 502.7,1428.38 504.763,1427.79 506.825,1427.2 508.888,1426.6 510.95,1425.99 513.013,1425.38 515.075,1424.76 517.138,1424.14 
  519.2,1423.51 521.263,1422.88 523.326,1422.24 525.388,1421.6 527.451,1420.96 529.513,1420.31 531.576,1419.66 533.638,1419.01 535.701,1418.36 537.764,1417.7 
  539.826,1417.04 541.889,1416.38 543.951,1415.71 546.014,1415.05 548.076,1414.39 550.139,1413.72 552.201,1413.06 554.264,1412.39 556.327,1411.73 558.389,1411.06 
  560.452,1410.4 562.514,1409.74 564.577,1409.07 566.639,1408.41 568.702,1407.76 570.765,1407.1 572.827,1406.45 574.89,1405.8 576.952,1405.15 579.015,1404.5 
  581.077,1403.86 583.14,1403.22 585.202,1402.58 587.265,1401.95 589.328,1401.32 591.39,1400.7 593.453,1400.08 595.515,1399.47 597.578,1398.86 599.64,1398.25 
  601.703,1397.65 603.766,1397.05 605.828,1396.46 607.891,1395.88 609.953,1395.3 612.016,1394.72 614.078,1394.15 616.141,1393.59 618.203,1393.03 620.266,1392.48 
  622.329,1391.93 624.391,1391.39 626.454,1390.85 628.516,1390.32 630.579,1389.8 632.641,1389.28 634.704,1388.77 636.767,1388.26 638.829,1387.76 640.892,1387.27 
  642.954,1386.78 645.017,1386.29 647.079,1385.82 649.142,1385.35 651.204,1384.88 653.267,1384.42 655.33,1383.96 657.392,1383.51 659.455,1383.07 661.517,1382.63 
  663.58,1382.2 665.642,1381.77 667.705,1381.34 669.767,1380.92 671.83,1380.51 673.893,1380.1 675.955,1379.69 678.018,1379.29 680.08,1378.9 682.143,1378.51 
  684.205,1378.12 686.268,1377.73 688.331,1377.35 690.393,1376.98 692.456,1376.6 694.518,1376.23 696.581,1375.87 698.643,1375.5 700.706,1375.14 702.768,1374.79 
  704.831,1374.43 706.894,1374.08 708.956,1373.73 711.019,1373.38 713.081,1373.04 715.144,1372.69 717.206,1372.35 719.269,1372.01 721.332,1371.67 723.394,1371.34 
  725.457,1371 727.519,1370.67 729.582,1370.33 731.644,1370 733.707,1369.67 735.769,1369.34 737.832,1369.01 739.895,1368.68 741.957,1368.35 744.02,1368.02 
  746.082,1367.69 748.145,1367.36 750.207,1367.03 752.27,1366.7 754.333,1366.37 756.395,1366.04 758.458,1365.71 760.52,1365.38 762.583,1365.04 764.645,1364.71 
  766.708,1364.37 768.77,1364.04 770.833,1363.7 772.896,1363.36 774.958,1363.02 777.021,1362.68 779.083,1362.34 781.146,1361.99 783.208,1361.65 785.271,1361.3 
  787.334,1360.95 789.396,1360.6 791.459,1360.25 793.521,1359.89 795.584,1359.54 797.646,1359.18 799.709,1358.82 801.771,1358.45 803.834,1358.09 805.897,1357.72 
  807.959,1357.35 810.022,1356.98 812.084,1356.61 814.147,1356.23 816.209,1355.85 818.272,1355.47 820.334,1355.08 822.397,1354.7 824.46,1354.31 826.522,1353.92 
  828.585,1353.52 830.647,1353.13 832.71,1352.73 834.772,1352.33 836.835,1351.92 838.898,1351.51 840.96,1351.1 843.023,1350.69 845.085,1350.28 847.148,1349.86 
  849.21,1349.44 851.273,1349.01 853.335,1348.59 855.398,1348.16 857.461,1347.72 859.523,1347.29 861.586,1346.85 863.648,1346.41 865.711,1345.97 867.773,1345.52 
  869.836,1345.07 871.899,1344.62 873.961,1344.17 876.024,1343.71 878.086,1343.25 880.149,1342.78 882.211,1342.32 884.274,1341.85 886.336,1341.38 888.399,1340.91 
  890.462,1340.43 892.524,1339.95 894.587,1339.47 896.649,1338.99 898.712,1338.5 900.774,1338.01 902.837,1337.52 904.9,1337.03 906.962,1336.54 909.025,1336.04 
  911.087,1335.55 913.15,1335.05 915.212,1334.55 917.275,1334.04 919.337,1333.54 921.4,1333.04 923.463,1332.53 925.525,1332.03 927.588,1331.52 929.65,1331.01 
  931.713,1330.51 933.775,1330 935.838,1329.49 937.901,1328.99 939.963,1328.48 942.026,1327.98 944.088,1327.47 946.151,1326.97 948.213,1326.47 950.276,1325.97 
  952.338,1325.48 954.401,1324.98 956.464,1324.49 958.526,1324.01 960.589,1323.52 962.651,1323.04 964.714,1322.57 966.776,1322.09 968.839,1321.63 970.901,1321.17 
  972.964,1320.71 975.027,1320.26 977.089,1319.81 979.152,1319.38 981.214,1318.94 983.277,1318.52 985.339,1318.1 987.402,1317.69 989.465,1317.29 991.527,1316.89 
  993.59,1316.51 995.652,1316.13 997.715,1315.76 999.777,1315.4 1001.84,1315.05 1003.9,1314.7 1005.97,1314.37 1008.03,1314.04 1010.09,1313.72 1012.15,1313.41 
  1014.22,1313.11 1016.28,1312.82 1018.34,1312.54 1020.4,1312.26 1022.47,1311.99 1024.53,1311.73 1026.59,1311.47 1028.65,1311.22 1030.72,1310.98 1032.78,1310.74 
  1034.84,1310.51 1036.9,1310.28 1038.97,1310.05 1041.03,1309.82 1043.09,1309.6 1045.15,1309.38 1047.22,1309.16 1049.28,1308.93 1051.34,1308.71 1053.4,1308.48 
  1055.47,1308.26 1057.53,1308.02 1059.59,1307.79 1061.65,1307.54 1063.72,1307.3 1065.78,1307.04 1067.84,1306.78 1069.9,1306.51 1071.97,1306.23 1074.03,1305.94 
  1076.09,1305.64 1078.15,1305.34 1080.22,1305.02 1082.28,1304.69 1084.34,1304.35 1086.4,1304 1088.47,1303.63 1090.53,1303.26 1092.59,1302.87 1094.66,1302.48 
  1096.72,1302.07 1098.78,1301.65 1100.84,1301.22 1102.91,1300.78 1104.97,1300.33 1107.03,1299.87 1109.09,1299.4 1111.16,1298.93 1113.22,1298.45 1115.28,1297.96 
  1117.34,1297.47 1119.41,1296.97 1121.47,1296.47 1123.53,1295.97 1125.59,1295.47 1127.66,1294.97 1129.72,1294.47 1131.78,1293.97 1133.84,1293.49 1135.91,1293.01 
  1137.97,1292.54 1140.03,1292.08 1142.09,1291.63 1144.16,1291.2 1146.22,1290.78 1148.28,1290.38 1150.34,1290 1152.41,1289.63 1154.47,1289.28 1156.53,1288.95 
  1158.59,1288.64 1160.66,1288.35 1162.72,1288.06 1164.78,1287.79 1166.84,1287.52 1168.91,1287.26 1170.97,1286.99 1173.03,1286.72 1175.1,1286.44 1177.16,1286.14 
  1179.22,1285.81 1181.28,1285.45 1183.35,1285.06 1185.41,1284.63 1187.47,1284.16 1189.53,1283.65 1191.6,1283.09 1193.66,1282.49 1195.72,1281.85 1197.78,1281.17 
  1199.85,1280.47 1201.91,1279.73 1203.97,1278.98 1206.03,1278.22 1208.1,1277.46 1210.16,1276.7 1212.22,1275.96 1214.28,1275.23 1216.35,1274.52 1218.41,1273.84 
  1220.47,1273.2 1222.53,1272.58 1224.6,1272 1226.66,1271.46 1228.72,1270.95 1230.78,1270.48 1232.85,1270.03 1234.91,1269.63 1236.97,1269.25 1239.03,1268.9 
  1241.1,1268.58 1243.16,1268.28 1245.22,1268 1247.28,1267.75 1249.35,1267.51 1251.41,1267.29 1253.47,1267.07 1255.53,1266.87 1257.6,1266.68 1259.66,1266.49 
  1261.72,1266.3 1263.79,1266.11 1265.85,1265.91 1267.91,1265.7 1269.97,1265.47 1272.04,1265.24 1274.1,1264.98 1276.16,1264.69 1278.22,1264.38 1280.29,1264.05 
  1282.35,1263.68 1284.41,1263.28 1286.47,1262.85 1288.54,1262.38 1290.6,1261.89 1292.66,1261.36 1294.72,1260.81 1296.79,1260.22 1298.85,1259.61 1300.91,1258.99 
  1302.97,1258.34 1305.04,1257.68 1307.1,1257.01 1309.16,1256.34 1311.22,1255.67 1313.29,1255 1315.35,1254.34 1317.41,1253.69 1319.47,1253.05 1321.54,1252.44 
  1323.6,1251.84 1325.66,1251.26 1327.72,1250.71 1329.79,1250.18 1331.85,1249.68 1333.91,1249.2 1335.97,1248.75 1338.04,1248.31 1340.1,1247.9 1342.16,1247.51 
  1344.23,1247.14 1346.29,1246.78 1348.35,1246.45 1350.41,1246.12 1352.48,1245.8 1354.54,1245.49 1356.6,1245.19 1358.66,1244.9 1360.73,1244.6 1362.79,1244.31 
  1364.85,1244.02 1366.91,1243.72 1368.98,1243.42 1371.04,1243.11 1373.1,1242.79 1375.16,1242.46 1377.23,1242.12 1379.29,1241.77 1381.35,1241.4 1383.41,1241.02 
  1385.48,1240.62 1387.54,1240.21 1389.6,1239.77 1391.66,1239.31 1393.73,1238.83 1395.79,1238.33 1397.85,1237.8 1399.91,1237.25 1401.98,1236.67 1404.04,1236.07 
  1406.1,1235.43 1408.16,1234.77 1410.23,1234.07 1412.29,1233.34 1414.35,1232.59 1416.41,1231.79 1418.48,1230.96 1420.54,1230.1 1422.6,1229.2 1424.67,1228.27 
  1426.73,1227.3 1428.79,1226.29 1430.85,1225.24 1432.92,1224.15 1434.98,1223.03 1437.04,1221.86 1439.1,1220.66 1441.17,1219.42 1443.23,1218.14 1445.29,1216.82 
  1447.35,1215.46 1449.42,1214.07 1451.48,1212.63 1453.54,1211.16 1455.6,1209.66 1457.67,1208.11 1459.73,1206.53 1461.79,1204.92 1463.85,1203.28 1465.92,1201.6 
  1467.98,1199.88 1470.04,1198.14 1472.1,1196.37 1474.17,1194.56 1476.23,1192.73 1478.29,1190.87 1480.35,1188.98 1482.42,1187.07 1484.48,1185.13 1486.54,1183.17 
  1488.6,1181.18 1490.67,1179.18 1492.73,1177.14 1494.79,1175.09 1496.85,1173.02 1498.92,1170.93 1500.98,1168.82 1503.04,1166.69 1505.1,1164.54 1507.17,1162.37 
  1509.23,1160.19 1511.29,1158 1513.36,1155.78 1515.42,1153.55 1517.48,1151.31 1519.54,1149.05 1521.61,1146.78 1523.67,1144.49 1525.73,1142.19 1527.79,1139.88 
  1529.86,1137.55 1531.92,1135.21 1533.98,1132.86 1536.04,1130.49 1538.11,1128.11 1540.17,1125.72 1542.23,1123.31 1544.29,1120.89 1546.36,1118.46 1548.42,1116.02 
  1550.48,1113.56 1552.54,1111.09 1554.61,1108.6 1556.67,1106.1 1558.73,1103.59 1560.79,1101.07 1562.86,1098.53 1564.92,1095.97 1566.98,1093.4 1569.04,1090.82 
  1571.11,1088.22 1573.17,1085.61 1575.23,1082.98 1577.29,1080.34 1579.36,1077.68 1581.42,1075.01 1583.48,1072.32 1585.54,1069.61 1587.61,1066.89 1589.67,1064.15 
  1591.73,1061.4 1593.8,1058.63 1595.86,1055.84 1597.92,1053.04 1599.98,1050.22 1602.05,1047.38 1604.11,1044.53 1606.17,1041.66 1608.23,1038.78 1610.3,1035.88 
  1612.36,1032.96 1614.42,1030.03 1616.48,1027.08 1618.55,1024.12 1620.61,1021.14 1622.67,1018.14 1624.73,1015.14 1626.8,1012.11 1628.86,1009.08 1630.92,1006.03 
  1632.98,1002.97 1635.05,999.894 1637.11,996.808 1639.17,993.711 1641.23,990.604 1643.3,987.486 1645.36,984.359 1647.42,981.223 1649.48,978.08 1651.55,974.929 
  1653.61,971.771 1655.67,968.608 1657.73,965.44 1659.8,962.267 1661.86,959.092 1663.92,955.914 1665.98,952.734 1668.05,949.553 1670.11,946.373 1672.17,943.193 
  1674.24,940.015 1676.3,936.84 1678.36,933.669 1680.42,930.501 1682.49,927.339 1684.55,924.183 1686.61,921.034 1688.67,917.892 1690.74,914.759 1692.8,911.635 
  1694.86,908.521 1696.92,905.418 1698.99,902.326 1701.05,899.246 1703.11,896.179 1705.17,893.126 1707.24,890.086 1709.3,887.06 1711.36,884.05 1713.42,881.055 
  1715.49,878.076 1717.55,875.113 1719.61,872.167 1721.67,869.238 1723.74,866.326 1725.8,863.432 1727.86,860.556 1729.92,857.698 1731.99,854.858 1734.05,852.037 
  1736.11,849.233 1738.17,846.449 1740.24,843.683 1742.3,840.935 1744.36,838.205 1746.42,835.494 1748.49,832.802 1750.55,830.127 1752.61,827.47 1754.67,824.831 
  1756.74,822.21 1758.8,819.605 1760.86,817.018 1762.93,814.447 1764.99,811.893 1767.05,809.355 1769.11,806.832 1771.18,804.325 1773.24,801.833 1775.3,799.355 
  1777.36,796.891 1779.43,794.441 1781.49,792.004 1783.55,789.58 1785.61,787.169 1787.68,784.769 1789.74,782.381 1791.8,780.003 1793.86,777.637 1795.93,775.28 
  1797.99,772.932 1800.05,770.594 1802.11,768.265 1804.18,765.944 1806.24,763.63 1808.3,761.323 1810.36,759.024 1812.43,756.73 1814.49,754.443 1816.55,752.161 
  1818.61,749.884 1820.68,747.612 1822.74,745.344 1824.8,743.08 1826.86,740.819 1828.93,738.562 1830.99,736.307 1833.05,734.055 1835.11,731.805 1837.18,729.556 
  1839.24,727.31 1841.3,725.064 1843.37,722.819 1845.43,720.575 1847.49,718.332 1849.55,716.089 1851.62,713.846 1853.68,711.603 1855.74,709.359 1857.8,707.115 
  1859.87,704.871 1861.93,702.626 1863.99,700.38 1866.05,698.134 1868.12,695.887 1870.18,693.638 1872.24,691.389 1874.3,689.139 1876.37,686.888 1878.43,684.636 
  1880.49,682.384 1882.55,680.13 1884.62,677.876 1886.68,675.622 1888.74,673.367 1890.8,671.112 1892.87,668.856 1894.93,666.601 1896.99,664.346 1899.05,662.091 
  1901.12,659.837 1903.18,657.583 1905.24,655.331 1907.3,653.08 1909.37,650.83 1911.43,648.583 1913.49,646.337 1915.55,644.094 1917.62,641.854 1919.68,639.616 
  1921.74,637.382 1923.8,635.152 1925.87,632.926 1927.93,630.704 1929.99,628.487 1932.06,626.275 1934.12,624.068 1936.18,621.867 1938.24,619.672 1940.31,617.484 
  1942.37,615.303 1944.43,613.129 1946.49,610.963 1948.56,608.805 1950.62,606.655 1952.68,604.515 1954.74,602.383 1956.81,600.261 1958.87,598.149 1960.93,596.047 
  1962.99,593.956 1965.06,591.876 1967.12,589.807 1969.18,587.75 1971.24,585.705 1973.31,583.673 1975.37,581.654 1977.43,579.647 1979.49,577.654 1981.56,575.675 
  1983.62,573.71 1985.68,571.759 1987.74,569.823 1989.81,567.901 1991.87,565.995 1993.93,564.104 1995.99,562.229 1998.06,560.37 2000.12,558.527 2002.18,556.701 
  2004.24,554.891 2006.31,553.097 2008.37,551.321 2010.43,549.562 2012.5,547.82 2014.56,546.095 2016.62,544.388 2018.68,542.699 2020.75,541.027 2022.81,539.374 
  2024.87,537.738 2026.93,536.121 2029,534.522 2031.06,532.941 2033.12,531.378 2035.18,529.834 2037.25,528.308 2039.31,526.801 2041.37,525.312 2043.43,523.841 
  2045.5,522.389 2047.56,520.955 2049.62,519.54 2051.68,518.143 2053.75,516.764 2055.81,515.404 2057.87,514.062 2059.93,512.738 2062,511.433 2064.06,510.145 
  2066.12,508.875 2068.18,507.623 2070.25,506.389 2072.31,505.173 2074.37,503.974 2076.43,502.792 2078.5,501.628 2080.56,500.481 2082.62,499.352 2084.68,498.239 
  2086.75,497.143 2088.81,496.063 2090.87,495 2092.94,493.954 2095,492.923 2097.06,491.909 2099.12,490.91 2101.19,489.928 2103.25,488.961 2105.31,488.009 
  2107.37,487.072 2109.44,486.151 2111.5,485.244 2113.56,484.352 2115.62,483.475 2117.69,482.612 2119.75,481.763 2121.81,480.928 2123.87,480.108 2125.94,479.3 
  2128,478.506 2130.06,477.726 2132.12,476.958 2134.19,476.204 2136.25,475.462 2138.31,474.733 2140.37,474.016 2142.44,473.311 2144.5,472.618 2146.56,471.938 
  2148.62,471.269 2150.69,470.611 2152.75,469.964 2154.81,469.329 2156.87,468.705 2158.94,468.092 2161,467.489 2163.06,466.896 2165.12,466.314 2167.19,465.743 
  2169.25,465.181 2171.31,464.628 2173.37,464.086 2175.44,463.553 2177.5,463.029 2179.56,462.514 2181.63,462.009 2183.69,461.512 2185.75,461.024 2187.81,460.545 
  2189.88,460.073 2191.94,459.611 2194,459.156 2196.06,458.709 2198.13,458.27 2200.19,457.839 2202.25,457.416 2204.31,456.999 2206.38,456.59 2208.44,456.189 
  2210.5,455.794 2212.56,455.406 2214.63,455.025 2216.69,454.651 2218.75,454.283 2220.81,453.921 2222.88,453.566 2224.94,453.217 2227,452.874 2229.06,452.537 
  2231.13,452.206 2233.19,451.881 2235.25,451.561 2237.31,451.247 2239.38,450.938 2241.44,450.635 2243.5,450.336 2245.56,450.043 2247.63,449.755 2249.69,449.472 
  2251.75,449.194 2253.81,448.92 2255.88,448.651 2257.94,448.387 2260,448.127 2262.07,447.872 2264.13,447.621 2266.19,447.374 2268.25,447.131 2270.32,446.893 
  2272.38,446.658 2274.44,446.428 2276.5,446.201 2278.57,445.978 2280.63,445.759 2282.69,445.543 2284.75,445.331 2286.82,445.123 2288.88,444.917 2290.94,444.716 
  
  "/>
<polygon clip-path="url(#clip8200)" points="
1989.93,493.644 2280.76,493.644 2280.76,130.764 1989.93,130.764 
  " fill="#ffffff" fill-rule="evenodd" fill-opacity="1"/>
<polyline clip-path="url(#clip8200)" style="stroke:#000000; stroke-width:4; stroke-opacity:1; fill:none" points="
  1989.93,493.644 2280.76,493.644 2280.76,130.764 1989.93,130.764 1989.93,493.644 
  "/>
<polyline clip-path="url(#clip8200)" style="stroke:#009af9; stroke-width:8; stroke-opacity:1; fill:none" points="
  2013.93,191.244 2157.93,191.244 
  "/>
<g clip-path="url(#clip8200)">
<text style="fill:#000000; fill-opacity:1; font-family:Arial,Helvetica Neue,Helvetica,sans-serif; font-size:48px; text-anchor:start;" transform="rotate(0, 2181.93, 208.744)" x="2181.93" y="208.744">y1</text>
</g>
<polyline clip-path="url(#clip8200)" style="stroke:#e26f46; stroke-width:8; stroke-opacity:1; fill:none" points="
  2013.93,251.724 2157.93,251.724 
  "/>
<g clip-path="url(#clip8200)">
<text style="fill:#000000; fill-opacity:1; font-family:Arial,Helvetica Neue,Helvetica,sans-serif; font-size:48px; text-anchor:start;" transform="rotate(0, 2181.93, 269.224)" x="2181.93" y="269.224">y2</text>
</g>
<polyline clip-path="url(#clip8200)" style="stroke:#3da44d; stroke-width:8; stroke-opacity:1; fill:none" points="
  2013.93,312.204 2157.93,312.204 
  "/>
<g clip-path="url(#clip8200)">
<text style="fill:#000000; fill-opacity:1; font-family:Arial,Helvetica Neue,Helvetica,sans-serif; font-size:48px; text-anchor:start;" transform="rotate(0, 2181.93, 329.704)" x="2181.93" y="329.704">y3</text>
</g>
<polyline clip-path="url(#clip8200)" style="stroke:#c271d2; stroke-width:8; stroke-opacity:1; fill:none" points="
  2013.93,372.684 2157.93,372.684 
  "/>
<g clip-path="url(#clip8200)">
<text style="fill:#000000; fill-opacity:1; font-family:Arial,Helvetica Neue,Helvetica,sans-serif; font-size:48px; text-anchor:start;" transform="rotate(0, 2181.93, 390.184)" x="2181.93" y="390.184">y4</text>
</g>
<polyline clip-path="url(#clip8200)" style="stroke:#ac8d18; stroke-width:8; stroke-opacity:1; fill:none" points="
  2013.93,433.164 2157.93,433.164 
  "/>
<g clip-path="url(#clip8200)">
<text style="fill:#000000; fill-opacity:1; font-family:Arial,Helvetica Neue,Helvetica,sans-serif; font-size:48px; text-anchor:start;" transform="rotate(0, 2181.93, 450.664)" x="2181.93" y="450.664">y5</text>
</g>
</svg>
